<?xml version="1.0" encoding="utf-8"?>
<!-- Generator: Adobe Illustrator 24.1.1, SVG Export Plug-In . SVG Version: 6.00 Build 0)  -->
<svg version="1.1" id="Layer_1" xmlns="http://www.w3.org/2000/svg" xmlns:xlink="http://www.w3.org/1999/xlink" x="0px" y="0px"
	 viewBox="0 0 512 512" style="enable-background:new 0 0 512 512;" xml:space="preserve">
<style type="text/css">
	.st0{fill:#272F54;}
</style>
<path class="st0" d="M44.24,375.62c1.61-5.35,2.74-10.9,4.91-16.02c7.55-17.81,21.25-28.62,39.81-33.45
	c7.98-2.08,16.02-3.96,24.08-5.72c2.35-0.51,2.92-1.51,3.14-3.83c0.45-4.57-1.12-7.28-4.96-10.08
	c-11.8-8.59-19.27-20.48-20.03-35.03c-0.88-16.84-1.17-33.88,0.39-50.64c2.18-23.51,24.35-42.34,47.98-43.35
	c15.55-0.67,29.88,1.96,42,12.42c1.53,1.32,3,2.7,4.57,4.12c12.69-31.81,35.41-50.52,69.94-50.44
	c34.34,0.08,56.92,18.79,69.05,49.24c6.93-4.03,13.53-9.4,21.08-11.99c27.09-9.28,57.65-1.1,70.16,27.07
	c2.87,6.47,4.18,13.98,4.62,21.1c0.74,11.92,0.36,23.92,0.17,35.88c-0.28,18.28-7.72,32.98-22.99,43.29
	c-4.08,2.75-2.26,6.38-2.27,9.62c0,0.98,2.74,2.42,4.43,2.87c7.44,1.97,15.02,3.43,22.44,5.47c24.51,6.74,39.32,22.53,44.01,47.59
	c0.12,0.64,0.47,1.24,0.71,1.87c0,11,0,22,0,33.01c-1.94,5.1-5.79,6.7-11.04,6.66c-19.8-0.14-39.61-0.06-59.41-0.06
	c-1.47,0-2.94,0-3.92,0c0,12.41,0,24.27,0,36.31c16.14,0,31.67-0.01,47.2,0.01c6.06,0.01,9.37,2.18,10.36,6.71
	c0.89,4.04-1.1,7.12-6.33,9.78c-125.65,0-251.29,0-376.94,0c-5.24-2.67-7.22-5.73-6.33-9.78c0.99-4.53,4.3-6.71,10.36-6.72
	c13.34-0.02,26.68-0.01,40.03-0.01c2.29,0,4.59,0,7.32,0c0-12.32,0-24.16,0-36.31c-1.5,0-2.99,0-4.49,0
	c-19.67,0-39.34-0.08-59.01,0.06c-5.24,0.04-9.1-1.55-11.03-6.66C44.24,397.63,44.24,386.63,44.24,375.62z M312.1,234.85
	c-21.51-1.62-24.35-3.11-40.19-20.79c-10.44,7.45-21.65,13.76-34.28,16.36c-12.4,2.55-25.07,3.79-37.3,5.55
	c0,9.79-1.03,20.46,0.21,30.86c2.93,24.73,22.34,43.62,47.37,47.52c23.69,3.69,47.68-9.28,58.56-31.19
	C314.16,267.68,311.51,251.28,312.1,234.85z M234.55,451.37c-24.87-24.83-49.73-49.64-74.81-74.67
	c-5.85,4.13-10.94,9.78-15.23,16.26c-11.96,18.07-9.09,38.35-9.27,58.41C168.65,451.37,201.65,451.37,234.55,451.37z M376.96,451.31
	c-0.46-12.3-0.03-24.45-1.58-36.35c-2.09-16.08-10.69-28.84-23.29-38.16c-25.06,24.99-49.92,49.78-74.72,74.5
	C309.99,451.31,342.95,451.31,376.96,451.31z M199.55,217.89c17.94,1.07,34.53-1.64,50.12-9.59c11.06-5.64,20.44-13.31,28.55-22.69
	c4.01-4.64,8.94-5.17,12.65-1.89c3.84,3.41,3.74,8.02-0.31,12.75c-1.85,2.16-3.75,4.28-5.54,6.33c6.5,11.58,15.58,16.57,27.08,14.82
	c-0.09-20.36-8.01-36.88-25.06-48.16c-18.82-12.45-38.94-13.26-58.61-2.29C209.03,177.98,199.93,195.37,199.55,217.89z
	 M183.08,248.76c-9.07-2.07-18.17-2.76-25.98-6.29c-8.63-3.89-15.61-3.62-24.15,0.06c-7.88,3.4-16.9,4.18-26.17,6.29
	c0.33,7.36-0.01,15.55,1.31,23.46c0.84,5.05,3.43,10.21,6.48,14.42c9.82,13.57,26.17,16.35,42.45,12.53
	c10.03-2.35,17.28-8.67,22.11-17.78C184.8,270.74,182.69,259.25,183.08,248.76z M404.63,248.76c-9.01-2.05-18.05-2.81-25.92-6.24
	c-8.57-3.75-15.55-3.85-24.15-0.02c-7.84,3.49-16.9,4.21-26.28,6.35c0.36,7.53,0.11,15.97,1.42,24.15c0.77,4.78,3.4,9.63,6.31,13.64
	c9.91,13.64,26.15,16.39,42.43,12.63c10.2-2.35,17.53-8.8,22.36-18.09C406.3,270.58,404.21,259.21,404.63,248.76z M450.84,398.73
	c0-6.55,0.33-12.47-0.06-18.34c-1.12-16.66-9.18-29.26-24.62-35.55c-10.3-4.19-21.56-6.04-32.68-9.01
	c-3.37,13.14-6.36,25.67-9.85,38.05c-1.77,6.28-3.09,12.15,1.66,17.71c0.76,0.9,1.14,2.2,1.46,3.38c0.79,2.95,2.46,3.9,5.63,3.85
	c12.52-0.22,25.05-0.09,37.57-0.09C436.79,398.73,443.64,398.73,450.84,398.73z M60.1,398.01c1.4,0.49,1.64,0.66,1.89,0.66
	c19.68,0.03,39.36,0.08,59.03-0.03c1.1-0.01,2.61-1.18,3.21-2.22c1.9-3.32,3.54-6.81,5.11-10.31c0.53-1.18,1.04-2.7,0.75-3.86
	c-3.82-15.28-7.79-30.52-11.87-46.38c-11,2.91-22.02,4.92-32.35,8.8c-12.23,4.59-20.63,13.95-23.33,26.88
	C60.74,380.17,60.84,389.2,60.1,398.01z M255.45,424.61c0.32-0.01,0.65-0.01,0.97-0.02c6.17-24.05,12.63-48.03,18.36-72.18
	c1.81-7.6,1.69-15.66,2.52-24.23c-14.67,4.07-28.24,3.95-42.95,0.06c0.93,8.83,1.06,16.97,2.76,24.77
	c3.08,14.2,7.08,28.21,10.72,42.29C250.35,405.07,252.91,414.84,255.45,424.61z M107.29,231.02c11.63-0.23,22.18-3.27,31.82-9.28
	c4.07-2.54,7.81-2.43,11.98-0.05c4.15,2.37,8.49,4.7,13.04,6.05c6.05,1.8,12.38,2.64,18.73,3.92c1.03-20.42-14.6-37.89-37.77-37.89
	C121.87,193.78,106.29,211.27,107.29,231.02z M328.67,231.07c10.94-0.4,20.89-2.54,29.65-8.14c5.89-3.77,11.14-4.01,16.69,0.15
	c0.76,0.57,1.64,1,2.51,1.43c8.46,4.16,17.37,6.41,27.1,6.46c-0.04-13.7-5.02-24.76-16.64-31.47c-14.3-8.26-29.41-8.19-43.52,0.5
	C333.35,206.84,328.6,217.7,328.67,231.07z M177.16,367.61c21.19,21.17,42.15,42.11,62.6,62.54c-6.07-23.61-12.38-48.14-18.79-73.08
	C205.97,360.69,191.35,364.2,177.16,367.61z M271.78,431.31c21.6-21.53,42.38-42.25,63.61-63.43c-14.78-3.56-29.49-7.11-44.58-10.75
	C284.46,381.89,278.21,406.25,271.78,431.31z M174.31,319.48c14.54,4.45,30.17,5.62,43.92,13.49c1.18-7.03,1.52-13.22-6.18-16.42
	c-1.22-0.51-2.29-1.56-3.2-2.56c-5.95-6.58-11.84-13.22-16.05-17.94c-3.87,2.99-8.23,7.2-13.33,10.08
	c-5.14,2.9-6.02,6.82-5.38,11.88C174.13,318.41,174.21,318.82,174.31,319.48z M337.35,319.47c1.01-5.74,0.74-10.64-5.4-13.48
	c-2.03-0.94-3.64-2.91-5.22-4.62c-2.35-2.54-4.51-5.25-6.94-8.12c-6.31,11.22-14.6,20.04-25.05,26.86
	c-0.78,0.51-1.52,1.68-1.58,2.58c-0.19,3.24-0.07,6.5-0.07,10.51C307.21,325.1,322.83,323.97,337.35,319.47z M354.04,316.76
	c0.22,3.39-0.05,7.02,0.75,10.41c2.77,11.75,5.82,23.45,8.98,35.1c0.58,2.14,2.2,4.01,3.34,6c4.64-14.38,8.37-28.28,11.72-42.28
	c0.72-3.02,0.11-6.36,0.11-9.23C370.54,316.76,362.72,316.76,354.04,316.76z M143.36,368.21c5.53-3.94,15.59-44.24,13.59-51.46
	c-8.02,0-15.95,0-24.54,0C132.73,334.42,140.31,350.63,143.36,368.21z M309.35,343.47c0.08,0.35,0.16,0.71,0.24,1.06
	c11.45,2.89,22.89,5.78,34.75,8.78c-1.55-5.97-2.99-11.48-4.5-17.29C329.46,338.55,319.41,341.01,309.35,343.47z M202.23,344.43
	c0-0.34,0-0.68,0.01-1.02c-10.05-2.44-20.1-4.88-30.38-7.37c-1.52,5.93-2.93,11.43-4.42,17.25
	C179.35,350.25,190.79,347.34,202.23,344.43z"/>
<path class="st0" d="M317.38,128.38c-7.35,0.16-11.45-6.41-8.51-11.84c0.58-1.07,1.38-2.06,2.24-2.93
	c10.18-10.21,20.32-20.48,30.68-30.51c1.74-1.68,4.44-3.1,6.79-3.28c5.91-0.44,9.91,6.31,7.23,11.63c-0.43,0.85-0.95,1.7-1.62,2.37
	c-10.77,10.79-21.53,21.6-32.43,32.26C320.39,127.41,318.23,127.94,317.38,128.38z"/>
<path class="st0" d="M203.13,118.11c0.04,7.56-6.22,11.57-11.6,8.9c-1.32-0.66-2.51-1.69-3.57-2.74
	c-9.37-9.29-18.74-18.58-27.98-27.99c-1.47-1.5-2.73-3.49-3.35-5.48c-1.04-3.34,0.29-6.2,3.13-8.24c2.86-2.05,5.89-2.13,8.88-0.29
	c1.04,0.64,1.99,1.47,2.86,2.34c9.36,9.3,18.75,18.56,27.98,27.99C201.29,114.46,202.4,116.99,203.13,118.11z"/>
<path class="st0" d="M264.12,71.43c0,5.49,0.07,10.97-0.02,16.46c-0.09,5.64-3.43,9.42-8.18,9.47c-4.75,0.05-8.26-3.76-8.3-9.34
	c-0.09-10.97-0.08-21.94,0-32.91c0.04-5.65,3.4-9.41,8.18-9.46c4.78-0.05,8.21,3.72,8.31,9.33
	C264.19,60.45,264.12,65.94,264.12,71.43z"/>
<path class="st0" d="M255.65,109.78c4.51-0.09,8.27,3.42,8.41,7.86c0.13,4.33-3.59,8.2-8,8.31c-4.42,0.11-8.27-3.51-8.4-7.91
	C247.53,113.64,251.18,109.87,255.65,109.78z"/>
</svg>
