<?xml version="1.0" encoding="utf-8"?>
<!-- Generator: Adobe Illustrator 24.1.1, SVG Export Plug-In . SVG Version: 6.00 Build 0)  -->
<svg version="1.1" id="Layer_1" xmlns="http://www.w3.org/2000/svg" xmlns:xlink="http://www.w3.org/1999/xlink" x="0px" y="0px"
	 viewBox="0 0 512 512" style="enable-background:new 0 0 512 512;" xml:space="preserve">
<style type="text/css">
	.st0{fill:#272F54;}
</style>
<g>
	<path class="st0" d="M60.1,159.8c17.5-8.5,35-16.9,52.7-25.5c0.7,1.3,1.2,2.2,1.7,3.2c28.5,59.4,56.9,118.8,85.4,178.2
		c0.7,1.4,1.3,3.1,1.3,4.7c0.3,23.1,0.6,46.3,0.8,69.4c0,0.6,0,1.2,0,2.7c-3.9-3.6-7.4-6.7-10.7-9.8c-13.4-12.5-26.7-24.9-40-37.5
		c-2-1.9-3.7-4.2-4.9-6.7C118.2,280.2,90,221.8,61.9,163.4c-0.5-1-1.2-1.9-1.8-2.8C60.1,160.3,60.1,160,60.1,159.8z M194,316
		c-0.3,0-0.6,0-0.8,0.1c-2.2,6-4.4,12.1-6.7,18.4c-4.8-2.6-9.3-5.1-14.1-7.8c-0.6,5.3-1.2,10.2-1.8,15.4c-6.7-2.7-12.8-5.3-19-7.8
		c0.7,2.6,1.8,5,3.5,6.7c6.5,6.3,13.2,12.4,19.9,18.6c2.7,2.5,5.3,6.5,8.3,6.9c3,0.4,6.7-2.5,9.9-4.4c1.2-0.7,2.5-2.6,2.5-3.9
		c0-12.5-0.2-25.1-0.5-37.6C195.2,319,194.4,317.5,194,316z M115.4,165.4c-2.7-5.5-5.1-10.6-7.7-16c-11,5.3-21.6,10.4-32.4,15.6
		c2.7,5.5,5.2,10.6,7.8,16C94.1,175.7,104.6,170.6,115.4,165.4z"/>
	<path class="st0" d="M452.9,435.2c-46.9,0-93.8,0-140.8,0.1c-12.1,0-24.3,0-36.4,0c-1.4,0-2.7,0-4.3,0c-0.1-1.7-0.2-2.9-0.2-4.2
		c0-73.4-0.1-146.8,0.1-220.1c0-7.2,0.5-14.8,6.2-20.3c3.1-3,7-5.6,10.9-7c3.8-1.4,8.3-1.4,12.4-1.4c41.9,0,83.9,0.1,125.8,0.1
		c10.9,0,18.5,5.7,24.1,14.4c1.2,1.9,1.4,4.5,2.1,6.8C452.9,280.7,452.9,358,452.9,435.2z M440.8,422c0-1.5,0-2.6,0-3.7
		c0-69.2,0-138.3,0-207.5c0-10.2-5.3-15.4-15.7-15.4c-41.9,0-83.9-0.1-125.8-0.1c-0.9,0-1.8-0.1-2.7,0c-7.5,0.5-11.4,3.3-12.4,8.9
		c-0.3,1.9-0.2,3.8-0.2,5.7c0,69.3,0,138.6,0,207.8c0,1.3,0,2.7,0,4.2C336.5,422,388.4,422,440.8,422z"/>
	<path class="st0" d="M343.2,169.8c-5.2,0-10.1,0-15.3,0c0-2.4,0-4.7,0-7.5c-21,0-41.7,0-62.6,0c0-22.9,0-45.3,0-68.1
		c-48.5,0-96.8,0-145.3,0c0,8.7,0,17.4,0,26.3c-5.2,0-10.1,0-15.3,0c0-13.8,0-27.7,0-42.1c1.4,0,2.7,0,4.1,0c56.4,0,112.7,0,169.1,0
		c2.5,0,4.3,0.6,6.1,2.4c19,19,38,37.9,57,56.9c1.3,1.3,2.1,3.5,2.2,5.3C343.4,151.7,343.2,160.5,343.2,169.8z M281.3,100.5
		c0,15.6,0,30.8,0,45.8c15.5,0,30.7,0,45.5,0C311.7,131.1,296.7,115.9,281.3,100.5z"/>
	<path class="st0" d="M105.3,291.2c4.7,9.7,9.4,19.5,14,29.2c0.6,1.3,0.6,3,0.6,4.4c0,29.9,0,59.8,0,89.7c0,1.5,0,3,0,5.1
		c46.8,0,93.4,0,140.1,0c0,5.4,0,10.4,0,15.4c-51.8,0-103.5,0-155.4,0c0-48.1,0-96,0-143.8C104.9,291.2,105.1,291.2,105.3,291.2z"/>
	<path class="st0" d="M297.7,216.4c43.1,0,85.9,0,129,0c0,15.6,0,31.1,0,46.8c-43,0-85.9,0-129,0
		C297.7,247.7,297.7,232.3,297.7,216.4z M384.7,246.7c4.6-3.9,10.5-6.4,7.8-13.9c-1.2-3.2-6.2-4.8-10.4-3.7
		c-4.5,1.1-6.6,4.1-6.4,9.2c2.4,0.1,5,1.2,5.9-2.6c0.2-0.9,2.1-1.6,3.3-1.8c0.6-0.1,2.1,1.1,2.1,1.7c0,1.2-0.3,2.9-1.1,3.6
		c-1.7,1.5-3.9,2.5-5.7,3.9c-2.7,2.1-5.4,4.4-4.8,8.6c6,0,12,0,18.1,0c0-1.7,0-3.1,0-4.9C390.5,246.7,387.6,246.7,384.7,246.7z
		 M397.6,237.2c1.8-0.9,3.5-1.9,5.4-2.6c1.3-0.5,2.8-0.6,4.2-0.5c0.5,0,1.3,1.9,1.2,2c-0.9,0.8-2,1.4-3.1,2
		c-0.4,0.2-0.9,0.3-1.4,0.4c0.1,1.1,0.1,2.1,0.1,3.1c0.3-0.2,0.5-0.4,0.8-0.6c1.2,1.1,2.6,2.1,3.6,3.4c0.3,0.4-0.9,2.5-1.5,2.5
		c-1.5,0-3.9-0.2-4.3-1.1c-1.5-3.4-3.8-2.4-6.2-2c0.2,4.6,2.1,7.1,5.9,8c5.4,1.2,10.2-0.4,11.7-4c1.4-3.2,0.8-6-2.4-8
		c2.4-2.2,3.5-4.9,1.3-7.8c-2.4-3.2-6-3.7-9.7-2.9C399.6,230,397.1,231.9,397.6,237.2z M356.6,238.4c1.9,0.2,3.3,0.3,5.1,0.4
		c0,4.4,0,8.5,0,12.7c2.2,0,4,0,5.7,0c0-7.6,0-14.9,0-22.9c-1.7,0.6-3.3,0.7-4.3,1.5c-2.1,1.5-3.9,3.5-5.9,5.2
		c-0.2-0.2-0.4-0.4-0.7-0.6C356.6,235.9,356.6,237,356.6,238.4z"/>
	<path class="st0" d="M355.3,281.2c0,5.3,0,10.4,0,15.8c-19.1,0-38.1,0-57.4,0c0-5.3,0-10.4,0-15.8C317,281.2,336,281.2,355.3,281.2
		z"/>
	<path class="st0" d="M369.4,297.1c0-5.4,0-10.5,0-15.8c19.2,0,38.2,0,57.4,0c0,5.3,0,10.5,0,15.8
		C407.6,297.1,388.7,297.1,369.4,297.1z"/>
	<path class="st0" d="M390.3,369.8c-7.8,0-15.3,0-23.1,0c0-8.3,0-16.3,0-24.7c7.7,0,15.3,0,23.1,0
		C390.3,353.2,390.3,361.3,390.3,369.8z"/>
	<path class="st0" d="M426.6,345.1c0,8.2,0,16.3,0,24.6c-7.7,0-15.4,0-23.2,0c0-8.1,0-16.2,0-24.6
		C410.9,345.1,418.6,345.1,426.6,345.1z"/>
	<path class="st0" d="M321.6,345.1c0,8.4,0,16.4,0,24.6c-7.7,0-15.3,0-23.1,0c0-8.2,0-16.3,0-24.6
		C306.2,345.1,313.7,345.1,321.6,345.1z"/>
	<path class="st0" d="M355.7,345.2c0,8.3,0,16.4,0,24.7c-7.7,0-15.2,0-23,0c0-8.2,0-16.2,0-24.7
		C340.2,345.2,347.7,345.2,355.7,345.2z"/>
	<path class="st0" d="M298.6,311c7.6,0,15.1,0,22.9,0c0,8,0,16,0,24.2c-7.4,0-15,0-22.9,0C298.6,327.2,298.6,319.2,298.6,311z"/>
	<path class="st0" d="M355.7,311c0,8.1,0,16.1,0,24.2c-7.7,0-15.3,0-23.1,0c0-8.1,0-16,0-24.2C340.3,311,347.9,311,355.7,311z"/>
	<path class="st0" d="M390.9,311.1c0,8,0,16,0,24.2c-7.7,0-15.2,0-23,0c0-8,0-16,0-24.2C375.5,311.1,383.1,311.1,390.9,311.1z"/>
	<path class="st0" d="M427.1,335.4c-7.8,0-15.3,0-23.1,0c0-8.1,0-16.1,0-24.3c7.6,0,15.2,0,23.1,0C427.1,319,427.1,327,427.1,335.4z
		"/>
	<path class="st0" d="M297.7,379.3c7.8,0,15.3,0,23,0c0,8.1,0,16.1,0,24.3c-7.6,0-15.2,0-23,0C297.7,395.7,297.7,387.7,297.7,379.3z
		"/>
	<path class="st0" d="M331.9,379.4c7.6,0,15.1,0,22.9,0c0,8.1,0,16.2,0,24.4c-7.7,0-15.2,0-22.9,0
		C331.9,395.8,331.9,387.8,331.9,379.4z"/>
	<path class="st0" d="M367.8,403.7c0-8.1,0-16,0-24.2c7.6,0,15.2,0,23.1,0c0,7.9,0,15.9,0,24.2C383.3,403.7,375.8,403.7,367.8,403.7
		z"/>
	<path class="st0" d="M426.6,379.4c0,8.2,0,16.2,0,24.4c-7.8,0-15.4,0-23.3,0c0-8,0-16.1,0-24.4C411,379.4,418.6,379.4,426.6,379.4z
		"/>
</g>
</svg>
