<?xml version="1.0" encoding="utf-8"?>
<!-- Generator: Adobe Illustrator 24.1.1, SVG Export Plug-In . SVG Version: 6.00 Build 0)  -->
<svg version="1.1" id="Layer_1" xmlns="http://www.w3.org/2000/svg" xmlns:xlink="http://www.w3.org/1999/xlink" x="0px" y="0px"
	 viewBox="0 0 512 512" style="enable-background:new 0 0 512 512;" xml:space="preserve">
<style type="text/css">
	.st0{fill:#272F54;}
</style>
<path class="st0" d="M237.51,467.4c-3.79-1.61-5.08-4.48-4.94-8.53c0.23-6.42,0.06-12.86,0.06-19.47c-5.18-0.26-9.98-0.2-14.7-0.79
	c-16.95-2.13-29.67-16.45-29.93-33.58c-0.14-8.81-0.12-17.62,0.02-26.42c0.04-2.49-0.54-3.8-3-4.96
	c-8.32-3.95-12.61-10.76-12.77-20.02c-0.09-4.68-0.13-9.36,0.03-14.03c0.09-2.45-0.61-3.92-2.81-5.3c-33.67-21-54.48-50.99-62-89.95
	c-4.11-21.29-2.84-42.45,3.62-63.21c1.31-4.21,4.08-5.72,7.8-4.57c3.71,1.15,5.1,3.92,4.04,8.1c-0.2,0.8-0.43,1.59-0.65,2.38
	c-5.89,21-6.31,42.12-0.76,63.19c8.7,33.01,27.96,58.13,57.54,75.19c4.08,2.36,5.95,5.17,5.67,9.91
	c-0.32,5.62-0.11,11.28-0.07,16.92c0.05,7.26,3.71,11.02,10.86,11.05c12.21,0.05,24.43,0.01,36.87,0.01c0-88.12,0-175.86,0-264.63
	c-7.08,1.12-14.14,1.76-20.97,3.39c-30.3,7.23-54.35,23.78-72.23,49.3c-0.63,0.9-1.22,1.83-1.89,2.7c-2.47,3.18-5.65,3.84-8.61,1.8
	c-3.11-2.15-4.03-5.81-1.45-8.99c7.01-8.63,13.62-17.75,21.68-25.31c23.23-21.79,51.25-33.02,83.71-35.07c0-3.6,0-7.25,0-10.9
	c0-4.95-0.03-9.91,0.01-14.86c0.05-4.93,2.22-7.52,6.23-7.55c3.99-0.03,6.2,2.55,6.2,7.49c0.02,29.86,0.01,59.73,0.01,89.59
	c0,1.23,0,2.47,0,3.7c0.23,0.11,0.46,0.22,0.7,0.32c0.55-1.1,1.15-2.18,1.65-3.31c7.18-16.35,14.34-32.72,21.53-49.07
	c2.79-6.35,5.2-7.27,11.63-4.48c8.81,3.83,17.61,7.7,26.39,11.54c3.53-6.27,3.53-6.26-0.57-11.52c-2.29-2.93-4.59-5.84-6.83-8.81
	c-2.23-2.95-2.07-5.89,0.38-8.61c4.6-5.12,9.22-10.21,13.89-15.26c2.51-2.71,5.49-2.96,8.59-1.11c4.02,2.39,7.95,4.92,11.94,7.35
	c3.66,2.23,11.1-1.15,11.76-5.41c0.71-4.62,1.29-9.26,1.85-13.9c0.48-3.95,2.87-5.83,6.61-6.06c6.73-0.41,13.47-0.69,20.2-1
	c3.88-0.18,6.25,1.72,7.15,5.44c1.14,4.67,2.15,9.37,3.33,14.04c0.8,3.19,8.88,6.1,11.53,4.14c3.76-2.78,7.41-5.71,11.15-8.52
	c3.83-2.87,6.26-2.77,9.9,0.44c4.65,4.09,9.26,8.22,13.84,12.39c3.9,3.55,4.19,5.87,1.38,10.46c-2.15,3.52-4.39,6.99-6.56,10.49
	c-2.58,4.15,0.93,11.42,5.81,12.05c4.36,0.57,8.72,1.18,13.1,1.64c4.13,0.43,6.13,2.77,6.37,6.75c0.39,6.59,0.75,13.19,1.06,19.78
	c0.19,4.03-1.78,6.49-5.7,7.4c-4.55,1.06-9.11,2.08-13.64,3.2c-3.96,0.98-6.58,8.65-4.09,11.92c2.67,3.5,5.44,6.92,8.1,10.43
	c2.96,3.91,2.92,6.31-0.27,9.89c-4.2,4.73-8.45,9.43-12.77,14.05c-3.41,3.66-5.79,3.9-10.21,1.25c-1.89-1.13-3.98-2.06-5.57-3.52
	c-5.69-5.25-11.33-4.76-17.36,0.11c1.59,4.16,3.63,8.52,4.86,13.1c0.69,2.55,0.77,5.75-0.17,8.17c-3.15,8.17-6.88,16.12-10.68,24.85
	c2.01,0,3.44,0,4.87,0c21.33,0,42.66,0,63.99,0c7.2,0,9.13,1.88,9.13,8.99c0.02,33.72-0.03,67.43,0.05,101.15
	c0.01,3.56-1.11,6.27-3.57,8.82c-7.65,7.91-15.18,15.95-22.65,24.04c-2.4,2.6-5,3.82-8.66,3.79c-15-0.15-30-0.01-45,0.03
	c-0.92,0-1.83,0.12-2.81,0.69c2.51,0.49,5.02,0.96,7.52,1.49c3.58,0.75,5.47,2.92,5.48,6.65c0.01,5.5,0.03,11.01,0.07,16.51
	c0.02,3.95-2.09,6.1-5.8,6.84c-2.83,0.56-5.69,0.99-8.52,1.53c-5.87,1.1-7.65,5.32-4.3,10.13c1.73,2.48,3.48,4.96,5.18,7.45
	c2.07,3.02,1.97,5.96-0.62,8.6c-3.94,4.03-7.93,8.03-11.97,11.97c-2.51,2.45-5.39,2.57-8.28,0.72c-2.55-1.63-4.98-3.44-7.47-5.16
	c-5.18-3.58-9.47-1.8-10.46,4.33c-0.37,2.31-0.39,4.77-1.28,6.87c-1.12,2.62-2.97,4.93-4.5,7.37c-7.16,0-14.31,0-21.47,0
	c-1.5-2.46-3.3-4.79-4.41-7.41c-0.89-2.1-0.97-4.55-1.36-6.85c-1.08-6.32-5.41-8.07-10.76-4.34c-2.37,1.65-4.74,3.3-7.13,4.91
	c-2.9,1.95-5.76,1.81-8.27-0.6c-4.16-4.01-8.26-8.08-12.27-12.24c-2.4-2.49-2.61-5.35-0.64-8.27c1.62-2.39,3.28-4.75,4.92-7.13
	c3.81-5.5,1.99-9.73-4.65-10.87c-2.71-0.47-5.4-1.03-8.1-1.49c-3.86-0.66-5.76-3.03-5.82-6.82c-0.1-5.5-0.11-11-0.04-16.51
	c0.05-3.65,1.98-5.89,5.59-6.59c2.83-0.55,5.68-1.03,8.52-1.54c6.39-1.14,8.03-5.27,4.26-10.7c-1.57-2.26-3.16-4.5-4.71-6.77
	c-2.28-3.33-1.99-6.4,0.9-9.26c3.72-3.68,7.4-7.38,11.09-11.09c2.87-2.89,5.96-3.1,9.27-0.82c2.94,2.03,5.84,4.13,8.81,6.11
	c1.85,1.23,6.89-0.14,7.93-2.06c1.97-3.61,1.15-7.49-1.93-8.84c-17.6-7.73-35.21-15.45-52.82-23.16c-2.34-1.02-4.7-1.99-7.58-3.21
	c0,2.28,0,3.89,0,5.51c0,47.04-0.04,94.09,0.07,141.13c0.01,3.91-0.8,6.96-4.34,8.92C239.71,467.4,238.61,467.4,237.51,467.4z
	 M279.15,110.43c-0.53,0.86-0.87,1.29-1.08,1.78c-10.71,24.4-21.43,48.79-32.06,73.22c-0.63,1.45-0.88,3.18-0.88,4.78
	c-0.05,34.8-0.01,69.61-0.09,104.41c-0.01,2.55,0.71,3.87,3.14,4.92c21.93,9.49,43.8,19.13,65.69,28.71
	c1.08,0.47,2.24,0.78,3.93,1.37c0-2.05,0-3.53,0-5.02c0-17.33,0.04-34.67-0.02-52c-0.01-4.21,1.2-7.65,4.28-10.71
	c5.27-5.23,10.79-10.35,15.2-16.27c6.64-8.92,14.82-13.03,25.8-10.97c6.65,1.25,10.18-1.34,12.23-7.77
	c1.97-6.18,5.05-11.99,7.71-18.11c-11.29-5-22.07-9.8-32.87-14.56c-10.89-4.79-11.17-5.48-6.46-16.16
	c4.81-10.9,9.61-21.8,14.53-32.96C331.71,133.48,305.57,122.02,279.15,110.43z M377.52,368.86c15.14,0,29.83-0.04,44.53,0.03
	c2.73,0.01,2.68-1.6,2.68-3.5c-0.02-8.94-0.07-17.88,0.03-26.82c0.04-4.12,2.22-6.4,5.85-6.55c3.76-0.16,6.33,2.23,6.54,6.38
	c0.16,3.16,0.05,6.33,0.05,9.49c0,3.43,0,6.87,0,11.4c4.35-4.61,7.93-8.05,11.06-11.87c1.34-1.63,2.45-4.03,2.46-6.09
	c0.16-26.68,0.11-53.37,0.09-80.05c0-1.13-0.2-2.25-0.38-4.15c-3.96,4.21-7.54,7.64-10.62,11.46c-1.39,1.74-2.44,4.26-2.5,6.46
	c-0.27,9.9-0.05,19.8-0.17,29.71c-0.05,4.32-2.4,6.62-6.24,6.64c-3.96,0.02-6.07-2.13-6.17-6.59c-0.11-5.09-0.03-10.18-0.03-15.27
	c0-4.76,0-9.53,0-14.3c-31.67,0-62.7,0-93.85,0c0,18.11,0,36.01,0,53.85c6.87,0.87,7.97,1.92,9.09,8.32
	c0.36,2.03,0.73,4.06,1.13,6.08c1.29,6.48,5.32,8.15,10.71,4.44c2.26-1.56,4.54-3.1,6.79-4.68c3.33-2.34,6.41-1.99,9.27,0.83
	c2.25,2.22,4.48,4.47,6.71,6.71C382.44,358.64,382.44,358.64,377.52,368.86z M359.67,58.37c-0.58,4.56-1.2,9.18-1.73,13.82
	c-0.41,3.62-2.06,5.96-5.66,7.28c-3.84,1.41-7.54,3.3-11.13,5.28c-2.97,1.64-5.65,1.7-8.5-0.11c-4.17-2.64-8.39-5.19-12.79-7.91
	c-2.5,2.76-4.86,5.37-7.38,8.15c3.14,4.06,6.1,8,9.19,11.84c2.15,2.68,2.33,5.37,0.88,8.43c-1.34,2.82-2.42,5.76-3.76,8.99
	c5.02,2.21,9.6,4.22,14.17,6.24c10.95-22.37,22.34-30.06,41.04-27.88c14.2,1.66,26.84,13.17,30.11,27.46
	c1.68,7.32,1.13,14.5-1.71,21.44c-4.05,9.93-11.44,16.58-21.39,20.7c1.91,4.85,3.7,9.39,5.7,14.45c3.55-1.82,6.79-3.28,9.81-5.1
	c2.93-1.76,5.6-1.81,8.47,0.03c4.16,2.66,8.39,5.19,12.84,7.92c2.49-2.72,4.87-5.32,7.43-8.11c-3.13-4.04-6.1-7.98-9.19-11.82
	c-2.14-2.66-2.3-5.31-0.97-8.43c1.61-3.77,3.03-7.65,4.16-11.59c0.98-3.42,2.85-5.47,6.36-6.18c4.04-0.82,8.07-1.7,12.02-2.84
	c0.94-0.27,2.11-1.64,2.21-2.61c0.3-2.82,0.11-5.7,0.11-8.71c-5.3-0.68-9.9-1.41-14.54-1.83c-3.87-0.35-6.24-2.12-7.62-5.81
	c-1.34-3.58-2.97-7.11-4.94-10.38c-2.04-3.37-2.11-6.28,0.11-9.54c2.67-3.93,5.06-8.05,7.66-12.22c-2.94-2.62-5.57-4.95-8.21-7.29
	c-2.25,1.73-4.1,3.15-5.96,4.57c-1.97,1.5-3.99,2.94-5.89,4.52c-2.6,2.15-5.22,2.48-8.39,1.1c-3.88-1.69-7.91-3.15-11.99-4.28
	c-3.32-0.92-5.26-2.72-5.91-6.05c-0.32-1.62-0.8-3.2-1.17-4.8c-2.34-10.04-2.33-10.04-12.48-9.18
	C360.47,57.95,360.35,58.04,359.67,58.37z M381.15,394.97c-8.01-1.64-17.35-0.75-18.59-12.03c-7.26-8.95,0.02-15.05,4.58-21.85
	c-1.71-1.76-3.3-3.42-4.96-5.13c-3.4,2.35-6.47,4.42-9.48,6.56c-2.51,1.78-4.98,1.8-7.74,0.46c-3.07-1.5-6.26-2.8-9.49-3.94
	c-3.22-1.13-4.92-3.24-5.44-6.56c-0.54-3.49-1.28-6.94-1.94-10.46c-2.5,0-4.66,0-7.12,0c-1.34,7.99-1.77,14.99-11.83,19.19
	c-10.21,4.27-15.3-1.08-21.78-5.31c-1.87,1.69-3.47,3.12-5.24,4.72c4.6,6.92,12.16,12.96,4.86,21.97
	c-1.3,11.35-10.75,10.58-18.39,11.97c-0.89,6.99-0.89,6.99,5.26,8.16c1.75,0.33,3.5,0.73,5.27,0.96c3.38,0.44,5.35,2.27,6.42,5.53
	c1.02,3.12,2.37,6.15,3.83,9.09c1.42,2.88,1.44,5.46-0.46,8.11c-2.15,2.99-4.17,6.07-6.36,9.28c1.7,1.76,3.21,3.32,4.87,5.05
	c3.24-2.23,6.22-4.18,9.09-6.27c2.74-1.99,5.4-2.2,8.46-0.62c2.91,1.5,6,2.72,9.1,3.79c3.02,1.05,4.95,2.79,5.38,6.07
	c0.25,1.9,0.71,3.78,1.08,5.67c1.21,6.09,1.21,6.09,8.07,5.19c0.56-3.11,1.27-6.32,1.67-9.57c0.52-4.22,2.64-6.64,6.86-7.62
	c2.5-0.58,4.98-1.69,7.19-3.02c3.59-2.15,6.66-1.76,9.86,0.73c2.67,2.08,5.55,3.88,7.64,5.32c2.25-1.65,4-2.93,5.83-4.28
	c-5.1-7.1-11.99-13.28-4.87-22.22c0.94-11.8,11.23-9.78,18.36-11.94C381.15,399.46,381.15,397.42,381.15,394.97z M232.3,426.9
	c0-17.53,0-34.23,0-50.89c-10.73,0-21.12,0-31.91,0c0,1.57-0.01,2.91,0,4.26c0.05,8.94-0.38,17.91,0.3,26.81
	c0.72,9.43,8.12,17.35,17.03,18.89C222.39,426.77,227.24,426.61,232.3,426.9z M339.36,261.81c1.03,0.3,1.39,0.5,1.76,0.5
	c28.31,0.02,56.62,0.03,84.93,0.01c0.92,0,2.16-0.05,2.71-0.6c4.48-4.53,8.83-9.2,13.53-14.14c-1.09-0.29-1.45-0.47-1.81-0.47
	c-28.31-0.02-56.62-0.03-84.93,0c-0.91,0-2.15,0.04-2.69,0.59C348.38,252.23,344.03,256.89,339.36,261.81z M376.5,150.06
	c10.45-3.48,17.26-13.94,15.93-24.25c-1.51-11.74-10.45-20.39-21.77-21.06c-11.73-0.69-22.13,6.67-24.83,17.45
	c-0.64,2.54-0.14,4.01,2.5,5.01c4.35,1.65,8.42,4.13,12.85,5.48c7.48,2.28,12.35,6.66,14.03,14.41
	C375.45,148.14,376.07,149.09,376.5,150.06z M366.07,158.15c-3.83,8.7-7.29,16.57-10.87,24.68c8.21,3.62,16.02,7.06,24.72,10.89
	C375.17,181.52,370.81,170.32,366.07,158.15z"/>
<path class="st0" d="M108.88,359.05c-1.54-1.32-3.87-2.47-4.68-4.28c-0.74-1.66-0.62-4.8,0.51-6c7.21-7.71,14.72-15.15,22.3-22.5
	c2.45-2.37,5.39-1.86,7.78,0.35c2.54,2.34,3.32,5.54,0.91,8.07c-7.36,7.75-15.04,15.21-22.68,22.69
	C112.23,358.16,110.82,358.3,108.88,359.05z"/>
<path class="st0" d="M68.67,227.2c-4.67,0-9.33,0.06-14-0.02c-4.28-0.08-6.61-2.33-6.61-6.16c0-3.81,2.36-6.19,6.62-6.23
	c9.61-0.09,19.21-0.09,28.82,0c4.23,0.04,6.65,2.46,6.65,6.23c0,3.78-2.4,6.09-6.66,6.16C78.56,227.26,73.61,227.2,68.67,227.2z"/>
<path class="st0" d="M107.37,81.91c2.05,1.19,3.67,1.75,4.77,2.84c6.97,6.81,13.88,13.68,20.7,20.64c2.95,3.01,2.81,6.83-0.05,9.47
	c-2.53,2.33-5.79,2.15-8.76-0.77c-6.85-6.74-13.6-13.57-20.39-20.37c-2-2-3.28-4.44-1.54-6.98
	C103.38,84.87,105.5,83.58,107.37,81.91z"/>
<path class="st0" d="M353.13,398.36c0.04,15.54-12.37,28.1-27.92,28.26c-15.67,0.16-28.63-12.81-28.57-28.59
	c0.06-15.56,12.57-28.04,28.11-28.03C340.34,370.01,353.09,382.76,353.13,398.36z M309.14,398.33c0.09,8.91,7.25,15.88,16.16,15.74
	c8.58-0.14,15.4-7.05,15.4-15.6c0-8.76-7.28-16.03-16.04-16.01C315.97,382.46,309.06,389.54,309.14,398.33z"/>
</svg>
