<?xml version="1.0" encoding="utf-8"?>
<!-- Generator: Adobe Illustrator 24.1.1, SVG Export Plug-In . SVG Version: 6.00 Build 0)  -->
<svg version="1.1" id="Layer_1" xmlns="http://www.w3.org/2000/svg" xmlns:xlink="http://www.w3.org/1999/xlink" x="0px" y="0px"
	 viewBox="0 0 512 512" style="enable-background:new 0 0 512 512;" xml:space="preserve">
<style type="text/css">
	.st0{fill:#272F54;}
</style>
<path class="st0" d="M142.59,464.34c-3.82-2.26-4.48-5.42-3.6-9.7c6.65-32.37,13.11-64.78,19.62-97.17c0.13-0.64,0.1-1.3,0.18-2.45
	c-2.45,0-4.72,0-6.99,0c-8.95,0-17.91,0.05-26.86-0.03c-4.7-0.04-7.53-2.52-7.5-6.22c0.03-3.71,2.81-5.91,7.62-6.04
	c1.36-0.03,2.71-0.01,4.07-0.01c105.26,0,210.52,0,315.77,0c6.98,0,6.98,0,6.99-6.74c0-11.62,0-11.62-11.81-11.62
	c-33.91,0-67.82,0-101.73,0c-1.36,0-2.75,0.13-4.06-0.13c-3.35-0.67-5.32-2.81-5.19-6.26c0.13-3.23,2.09-5.22,5.3-5.74
	c1.33-0.21,2.71-0.1,4.06-0.1c29.16,0,58.33,0,87.49,0c1.62,0,3.25,0,5.56,0c0-1.57,0-2.99,0-4.4c0-68.08,0-136.16,0-204.24
	c0-9.43-3.53-12.96-13.05-12.96c-80.44-0.01-160.87-0.01-241.31-0.01c-1.49,0-3,0.08-4.47-0.12c-3.44-0.48-5.92-3.27-5.54-6.38
	c0.41-3.36,2.35-5.51,5.87-5.61c5.29-0.14,10.58-0.08,15.87-0.09c8.94-0.01,17.87,0,27.55,0c0-4.69,0-9.09,0-13.49
	c0.02-11.99,5.13-17.16,17-17.16c15.33,0,30.66-0.02,45.98,0.01c9.77,0.02,15.46,5.62,15.58,15.31c0.06,4.87,0.01,9.74,0.01,15.34
	c1.97,0,3.67,0,5.36,0c39.74,0,79.49-0.02,119.23,0.01c12.78,0.01,21.75,7.14,23.79,18.85c0.37,2.12,0.33,4.32,0.33,6.48
	c0.02,67.67,0.01,135.35,0.01,203.02c0,1.61,0,3.23,0,5.46c2.31,0,4.42-0.07,6.53,0.01c7.65,0.31,13.55,6.15,13.8,13.82
	c0.16,5.01,0.15,10.04,0,15.05c-0.21,7.11-5.13,12.58-12.15,13.66c-1.86,0.29-3.78,0.32-5.67,0.32c-29.3,0.02-58.6,0.01-87.9,0.01
	c-1.61,0-3.22,0-5.49,0c1.41,7.24,2.71,14.07,4.08,20.89c5.28,26.15,10.53,52.31,15.92,78.44c0.84,4.1,0.34,7.44-3.17,10
	c-13.84,0-27.68,0-41.51,0c-1.38-2.64-3.35-5.15-4.03-7.96c-2.09-8.67-3.84-17.43-5.37-26.22c-0.55-3.15-1.64-4.13-4.89-4.12
	c-38.74,0.12-77.48,0.08-116.21,0.08c-1.2,0-2.4,0-3.7,0c-2.13,10.52-4.02,20.77-6.4,30.89c-0.62,2.63-2.81,4.89-4.27,7.33
	C169.72,464.34,156.15,464.34,142.59,464.34z M303.59,355.01c-1.95,0-3.55,0-5.16,0c-26.98,0-53.97,0-80.95,0
	c-9.14,0-9.19-0.01-11.04,8.97c-1.61,7.78-3.1,15.59-4.7,23.65c36.35,0,72.24,0,108.4,0C307.96,376.8,305.83,366.19,303.59,355.01z
	 M176.25,451.99c6.51-32.36,12.95-64.39,19.51-96.98c-7.29,0-14.03,0.11-20.77-0.05c-2.7-0.07-3.64,0.84-4.17,3.52
	c-4.98,25.35-10.15,50.67-15.25,76c-1.16,5.76-2.29,11.52-3.49,17.51C160.39,451.99,168.09,451.99,176.25,451.99z M359.8,451.98
	c-6.56-32.56-13.01-64.61-19.45-96.58c-8.24,0-16.1,0-24.21,0c6.54,32.46,12.99,64.5,19.45,96.58
	C343.77,451.98,351.6,451.98,359.8,451.98z M196.46,413.67c39.76,0,79.17,0,118.94,0c-0.97-4.71-1.89-9.14-2.82-13.65
	c-37.31,0-74.17-0.02-111.04,0.1c-0.94,0-2.43,1.4-2.72,2.42C197.83,406.04,197.27,409.66,196.46,413.67z M228.7,77.81
	c18.43,0,36.17,0,54.07,0c0-5.22-0.03-9.96,0.01-14.7c0.02-2.14-0.78-3.28-3.09-3.27c-16,0.03-32-0.03-48,0.14
	c-1.01,0.01-2.8,1.76-2.87,2.79C228.53,67.75,228.7,72.76,228.7,77.81z"/>
<path class="st0" d="M47.35,322.73c3.8-8.83,10.75-11.97,20.37-10.35c0-2.24,0-3.83,0-5.42c0-67.81,0-135.62,0-203.43
	c0-16.24,8.9-25.2,25.07-25.22c17.63-0.02,35.27-0.01,52.9,0c1.35,0,2.73-0.05,4.06,0.17c3.07,0.5,4.82,2.45,5.02,5.51
	c0.19,3.06-1.3,5.27-4.29,6.09c-1.54,0.42-3.22,0.42-4.83,0.42c-17.63,0.03-35.27,0-52.9,0.03c-9.26,0.02-12.79,3.57-12.79,12.8
	c0,68.08,0,136.16,0,204.24c0,1.33,0,2.67,0,4.56c1.99,0,3.7,0,5.4,0c73.79,0,147.58,0,221.37,0c1.49,0,3-0.12,4.47,0.08
	c3.42,0.46,5.46,2.51,5.51,5.95c0.05,3.46-2,5.53-5.37,6.09c-1.45,0.24-2.98,0.11-4.47,0.11c-80.44,0-160.87,0-241.31,0
	c-5.98,0-5.98,0-5.99,6.05c0,2.71,0.16,5.44-0.04,8.13c-0.25,3.29,1.23,4.25,4.3,4.22c10.71-0.1,21.43-0.04,32.15-0.03
	c1.35,0,2.73-0.01,4.06,0.2c3.08,0.49,4.86,2.44,5.05,5.49c0.2,3.25-1.45,5.46-4.65,6.22c-1.43,0.34-2.96,0.35-4.44,0.36
	c-10.17,0.03-20.36-0.25-30.52,0.1c-8.76,0.3-14.97-2.79-18.12-11.2C47.35,336.83,47.35,329.78,47.35,322.73z"/>
<path class="st0" d="M217.79,167.24c0.03,25.12-20.31,45.55-45.44,45.63c-25.19,0.08-45.99-20.7-45.81-45.77
	c0.18-25.09,20.71-45.47,45.74-45.42C197.43,121.74,217.75,142.08,217.79,167.24z M205.54,167.19
	c-0.06-18.49-14.95-33.32-33.42-33.28c-18.35,0.04-33.42,15.16-33.34,33.46c0.08,18.35,15.15,33.32,33.52,33.29
	C190.72,200.63,205.6,185.65,205.54,167.19z"/>
<path class="st0" d="M261.2,223.22c-7.96-0.69-15.93-1.27-23.88-2.12c-5.37-0.57-7.93-3.35-7.23-7.26c0.71-3.99,3.77-5.48,9.21-4.78
	c20.94,2.67,41.7,2.18,61.97-4.33c27.89-8.96,43.93-28.06,48.24-57.05c0.3-2.05,0.91-4.72,2.35-5.77c1.66-1.21,4.95-1.94,6.52-1.06
	c1.77,0.99,3.59,4.14,3.36,6.11c-3.19,27.41-15.66,49.02-40.42,62.49C302.61,219.62,282.24,222.72,261.2,223.22z"/>
<path class="st0" d="M294.98,260.11c-0.08,14.27-11.7,25.84-25.9,25.77c-14.24-0.07-25.74-11.65-25.74-25.93
	c0-14.47,11.65-26.04,26.1-25.92C283.66,234.15,295.06,245.79,294.98,260.11z M255.58,259.86c-0.03,7.58,6.01,13.75,13.51,13.8
	c7.48,0.05,13.63-6.11,13.66-13.66c0.02-7.63-5.95-13.7-13.52-13.74C261.67,246.22,255.61,252.25,255.58,259.86z"/>
<path class="st0" d="M180.36,260.22c3.26,2.97,6.26,5.5,9.02,8.26c3.26,3.25,3.48,6.61,0.91,9.32c-2.59,2.72-6.31,2.49-9.62-0.79
	c-2.69-2.66-5.23-5.49-8.93-9.4c-2.84,3.36-5.21,6.45-7.88,9.25c-3.29,3.44-6.91,3.7-9.58,1.06c-2.76-2.74-2.49-6.18,0.91-9.59
	c2.67-2.67,5.47-5.21,8.92-8.48c-2.8-2.56-5.23-4.65-7.51-6.9c-4.75-4.67-5.4-8-2.29-11.04c2.98-2.9,6.46-2.12,11.09,2.55
	c2.19,2.21,4.3,4.49,6.89,7.21c3.09-3.26,5.79-6.26,8.66-9.09c3.08-3.03,6.82-3.14,9.34-0.49c2.52,2.65,2.36,5.87-0.64,9.01
	C186.93,253.93,184.05,256.61,180.36,260.22z"/>
<path class="st0" d="M357.88,268.66c-1.45,1.7-3.02,3.76-4.81,5.59c-5.75,5.85-9.03,6.8-12.21,3.72c-3.36-3.27-2.47-6.37,3.71-12.49
	c1.81-1.79,3.78-3.43,6.15-5.57c-3.59-3.36-6.64-6.03-9.47-8.93c-2.98-3.04-3.04-6.38-0.45-8.99c2.47-2.49,6.11-2.43,9.05,0.41
	c2.92,2.82,5.64,5.84,9.17,9.53c2.99-3.32,5.59-6.41,8.42-9.27c3.06-3.09,6.79-3.23,9.34-0.64c2.62,2.67,2.43,6.06-0.78,9.3
	c-2.75,2.77-5.7,5.34-9.4,8.77c3.51,3.13,6.53,5.62,9.31,8.36c3.38,3.33,3.53,6.93,0.69,9.59c-2.64,2.47-6.08,2.13-9.32-0.99
	c-2.64-2.54-5.21-5.14-7.83-7.7C359.27,269.18,358.96,269.13,357.88,268.66z"/>
<path class="st0" d="M277.21,168.08c3.62,3.51,6.29,6.01,8.87,8.61c3.48,3.51,3.83,6.8,1.14,9.6c-2.76,2.87-6.28,2.54-9.89-1.13
	c-2.64-2.69-5.09-5.57-8.03-8.81c-3.39,3.61-6.08,6.66-8.98,9.5c-3.05,2.99-6.41,3.12-9.03,0.63c-2.74-2.61-2.62-6.09,0.51-9.29
	c2.82-2.88,5.79-5.61,9.3-8.98c-3.43-3.15-6.52-5.8-9.38-8.67c-3.02-3.03-3.15-6.37-0.65-9c2.57-2.71,6.16-2.64,9.29,0.5
	c2.85,2.86,5.43,5.99,8.73,9.68c3.28-3.62,5.74-6.51,8.39-9.21c3.42-3.48,6.84-3.81,9.59-1.17c2.88,2.77,2.57,6.28-1.11,9.89
	C283.24,162.86,280.33,165.29,277.21,168.08z"/>
<path class="st0" d="M165.55,171.22c6.26-5.82,12.3-11.43,18.33-17.05c0.89-0.83,1.67-1.79,2.61-2.57c2.66-2.21,6.29-2.18,8.44,0.17
	c2.34,2.55,2.64,5.62,0.3,8.09c-8.09,8.58-16.34,17.02-24.7,25.34c-2.6,2.59-5.75,2.22-8.39-0.25c-4.16-3.89-8.26-7.84-12.26-11.9
	c-2.92-2.97-2.93-6.47-0.31-9.02c2.41-2.35,5.82-2.29,8.76,0.26c1.43,1.24,2.74,2.62,4.11,3.94
	C163.69,169.45,164.95,170.65,165.55,171.22z"/>
</svg>
