<?xml version="1.0" encoding="utf-8"?>
<!-- Generator: Adobe Illustrator 24.1.1, SVG Export Plug-In . SVG Version: 6.00 Build 0)  -->
<svg version="1.1" id="Layer_1" xmlns="http://www.w3.org/2000/svg" xmlns:xlink="http://www.w3.org/1999/xlink" x="0px" y="0px"
	 viewBox="0 0 512 512" style="enable-background:new 0 0 512 512;" xml:space="preserve">
<style type="text/css">
	.st0{fill:#272F54;}
</style>
<g>
	<path class="st0" d="M256.8,213.4c-16.4-0.1-29.8,13-29.8,29.3c-0.1,16.3,13.1,29.6,29.4,29.7c16.3,0.1,29.7-13.1,29.7-29.4
		C286.1,226.7,273,213.5,256.8,213.4z"/>
	<path class="st0" d="M256.4,95.4c10,0,18.1-8,18.1-18c0-9.9-8-18-17.9-18c-10-0.1-18.2,7.9-18.2,17.9
		C238.4,87.3,246.4,95.4,256.4,95.4z"/>
	<path class="st0" d="M402.2,179.6c10,0,18.1-8,18.1-18c0-9.9-8-18-17.9-18c-10-0.1-18.2,7.9-18.2,17.9
		C384.2,171.4,392.2,179.5,402.2,179.6z"/>
	<path class="st0" d="M402.4,311.9c-10-0.1-18.2,7.9-18.2,17.9c-0.1,10,8,18.1,18,18.1c10,0,18.1-8,18.1-18
		C420.3,320,412.3,312,402.4,311.9z"/>
	<path class="st0" d="M238.4,413.9c-0.1,10,8,18.1,18,18.1c10,0,18.1-8,18.1-18c0-9.9-8-18-17.9-18
		C246.6,395.9,238.4,403.9,238.4,413.9z"/>
	<path class="st0" d="M110.9,310.9c-10-0.1-18.2,7.9-18.2,17.9c-0.1,10,8,18.1,18,18.1c10,0,18.1-8,18.1-18
		C128.8,319,120.8,310.9,110.9,310.9z"/>
	<path class="st0" d="M110.9,143.6c-10-0.1-18.2,7.9-18.2,17.9c-0.1,10,8,18.1,18,18.1c10,0,18.1-8,18.1-18
		C128.8,151.7,120.8,143.6,110.9,143.6z"/>
	<path class="st0" d="M427.6,297.1c-23.1-13.3-52.4-6.3-67.2,15.4l-28.8-16.6c1.1-2.2,2.2-4.4,3.1-6.7c0,0,0-0.1,0-0.1
		c0.3-0.7,0.6-1.4,0.9-2.1c0-0.1,0.1-0.2,0.1-0.2c0.3-0.7,0.5-1.4,0.8-2.1c0-0.1,0-0.1,0.1-0.2c0.5-1.6,1-3.1,1.5-4.7c0,0,0,0,0,0
		c0.2-0.8,0.4-1.5,0.6-2.3c0-0.2,0.1-0.3,0.1-0.5c0.2-0.6,0.3-1.2,0.4-1.9c0-0.2,0.1-0.4,0.1-0.6c0.1-0.6,0.3-1.2,0.4-1.9
		c0-0.2,0.1-0.3,0.1-0.5c0.3-1.6,0.5-3.2,0.7-4.8c0-0.2,0-0.4,0.1-0.6c0.1-0.6,0.1-1.2,0.2-1.8c0-0.3,0-0.5,0.1-0.8
		c0-0.5,0.1-1.1,0.1-1.6c0-0.3,0-0.6,0.1-0.9c0-0.6,0.1-1.1,0.1-1.7c0-0.3,0-0.5,0-0.8c0-0.8,0-1.6,0-2.4c0-0.8,0-1.6,0-2.4
		c0-0.3,0-0.5,0-0.8c0-0.6,0-1.1-0.1-1.7c0-0.3,0-0.6-0.1-0.9c0-0.5-0.1-1.1-0.1-1.6c0-0.3,0-0.5-0.1-0.8c-0.1-0.6-0.1-1.2-0.2-1.8
		c0-0.2,0-0.4-0.1-0.6c-0.2-1.6-0.4-3.2-0.7-4.8c0-0.2-0.1-0.3-0.1-0.5c-0.1-0.6-0.2-1.2-0.4-1.9c0-0.2-0.1-0.4-0.1-0.6
		c-0.1-0.6-0.3-1.2-0.4-1.9c0-0.2-0.1-0.3-0.1-0.5c-0.2-0.8-0.4-1.5-0.6-2.3c0,0,0,0,0,0c-0.4-1.6-0.9-3.2-1.5-4.7
		c0-0.1,0-0.1-0.1-0.2c-0.2-0.7-0.5-1.4-0.8-2.1c0-0.1-0.1-0.2-0.1-0.2c-0.3-0.7-0.6-1.4-0.9-2.1c0,0,0-0.1,0-0.1
		c-1-2.3-2-4.5-3.1-6.7l28.8-16.6c6.8,10.1,16.9,17.3,28.8,20.5c4.4,1.2,8.8,1.7,13.2,1.7c8.8,0,17.4-2.3,25.2-6.8
		c11.7-6.8,20.1-17.7,23.6-30.7c3.5-13.1,1.7-26.7-5.1-38.4c-14-24.2-45-32.5-69.1-18.5c-11.7,6.8-20.1,17.7-23.6,30.7
		c-3.2,11.9-2,24.2,3.3,35.1l-28.8,16.6c0,0,0,0,0,0c-0.4-0.7-0.9-1.4-1.3-2c-0.1-0.1-0.1-0.2-0.2-0.3c-0.4-0.5-0.7-1.1-1.1-1.6
		c-0.1-0.2-0.2-0.3-0.4-0.5c-0.4-0.5-0.7-1-1.1-1.4c-0.1-0.2-0.2-0.3-0.4-0.5c-0.4-0.5-0.8-1.1-1.3-1.6c-0.1-0.1-0.1-0.1-0.2-0.2
		c-0.5-0.6-1-1.2-1.6-1.9c0,0,0,0,0-0.1c-0.5-0.6-1-1.1-1.5-1.7c-0.1-0.1-0.2-0.3-0.4-0.4c-0.4-0.5-0.8-0.9-1.3-1.3
		c-0.1-0.1-0.3-0.3-0.4-0.4c-0.5-0.5-0.9-0.9-1.4-1.4c-0.1-0.1-0.2-0.2-0.3-0.3c-1.2-1.1-2.3-2.2-3.6-3.2c-0.1-0.1-0.2-0.1-0.3-0.2
		c-0.5-0.4-1-0.9-1.6-1.3c-0.1-0.1-0.3-0.2-0.4-0.3c-0.5-0.4-1-0.8-1.6-1.2c-0.1-0.1-0.2-0.1-0.3-0.2c-1.3-1-2.6-1.9-4-2.8
		c0,0,0,0,0,0c-0.6-0.4-1.3-0.9-2-1.3c-0.1-0.1-0.2-0.1-0.3-0.2c-0.6-0.4-1.2-0.7-1.8-1.1c-0.1-0.1-0.2-0.1-0.3-0.2
		c-2.1-1.2-4.3-2.4-6.5-3.4c-0.1,0-0.1,0-0.2-0.1c-0.7-0.3-1.4-0.6-2.1-0.9c-0.1,0-0.1-0.1-0.2-0.1c-3-1.3-6.2-2.5-9.4-3.4
		c-0.1,0-0.1,0-0.2,0c-0.8-0.2-1.6-0.5-2.4-0.7c0,0,0,0,0,0c-2.5-0.7-5-1.2-7.5-1.6c0,0-0.1,0-0.1,0c-0.8-0.1-1.7-0.3-2.5-0.4
		c0,0,0,0-0.1,0c-2.6-0.4-5.2-0.6-7.9-0.7v-33.3c26.2-1.9,46.9-23.8,46.9-50.5c0-27.9-22.7-50.6-50.6-50.6s-50.6,22.7-50.6,50.6
		c0,26.7,20.7,48.6,46.9,50.5v33.3c0,0,0,0,0,0c-2.6,0.1-5.3,0.4-7.8,0.7c0,0-0.1,0-0.1,0c-0.8,0.1-1.7,0.2-2.5,0.4c0,0-0.1,0-0.1,0
		c-2.6,0.4-5.1,1-7.5,1.6c0,0,0,0-0.1,0c-0.8,0.2-1.6,0.4-2.3,0.7c-0.1,0-0.1,0-0.2,0c-2.4,0.7-4.8,1.6-7.1,2.5c0,0,0,0,0,0
		c-0.7,0.3-1.5,0.6-2.2,0.9c-0.1,0-0.2,0.1-0.2,0.1c-0.7,0.3-1.4,0.6-2.1,0.9c-0.1,0-0.1,0-0.2,0.1c-2.2,1.1-4.4,2.2-6.5,3.4
		c-0.1,0.1-0.2,0.1-0.3,0.2c-0.6,0.4-1.2,0.7-1.8,1.1c-0.1,0.1-0.2,0.1-0.3,0.2c-0.7,0.4-1.3,0.8-2,1.3c0,0,0,0,0,0
		c-1.4,0.9-2.7,1.9-4,2.8c-0.1,0.1-0.2,0.2-0.3,0.2c-0.5,0.4-1.1,0.8-1.6,1.2c-0.1,0.1-0.2,0.2-0.4,0.3c-0.5,0.4-1.1,0.9-1.6,1.3
		c-0.1,0.1-0.2,0.1-0.2,0.2c-1.2,1-2.4,2.1-3.6,3.2c-0.1,0.1-0.2,0.2-0.3,0.3c-0.5,0.5-0.9,0.9-1.4,1.4c-0.1,0.1-0.3,0.3-0.4,0.4
		c-0.4,0.4-0.9,0.9-1.3,1.4c-0.1,0.1-0.2,0.2-0.3,0.4c-0.5,0.6-1,1.1-1.5,1.7c0,0,0,0,0,0c-0.5,0.6-1.1,1.2-1.6,1.9
		c-0.1,0.1-0.1,0.1-0.2,0.2c-0.4,0.5-0.9,1.1-1.3,1.6c-0.1,0.2-0.2,0.3-0.4,0.5c-0.4,0.5-0.7,1-1.1,1.4c-0.1,0.2-0.2,0.3-0.3,0.5
		c-0.4,0.5-0.8,1.1-1.1,1.6c-0.1,0.1-0.1,0.2-0.2,0.3c-0.5,0.7-0.9,1.3-1.3,2l-28.8-16.6c11.4-23.6,2.8-52.5-20.2-65.9
		c-24.2-14-55.2-5.6-69.1,18.5c-6.8,11.7-8.6,25.3-5.1,38.4c3.5,13.1,11.9,24,23.6,30.7c8,4.6,16.6,6.8,25.2,6.8
		c16.3,0,32.3-7.9,41.9-22.2l28.8,16.6c-1.1,2.2-2.2,4.4-3.1,6.7c0,0,0,0.1,0,0.1c-0.3,0.7-0.6,1.4-0.8,2.1c0,0.1-0.1,0.2-0.1,0.2
		c-0.3,0.7-0.5,1.4-0.8,2.1c0,0.1,0,0.1-0.1,0.2c-0.5,1.6-1,3.1-1.5,4.7c0,0,0,0,0,0c-0.2,0.7-0.4,1.5-0.6,2.3
		c0,0.2-0.1,0.3-0.1,0.5c-0.2,0.6-0.3,1.2-0.4,1.9c0,0.2-0.1,0.4-0.1,0.6c-0.1,0.6-0.3,1.2-0.4,1.9c0,0.2-0.1,0.3-0.1,0.5
		c-0.3,1.6-0.5,3.2-0.7,4.8c0,0.2,0,0.4-0.1,0.6c-0.1,0.6-0.1,1.2-0.2,1.8c0,0.3,0,0.5-0.1,0.8c0,0.5-0.1,1.1-0.1,1.6
		c0,0.3,0,0.6-0.1,0.9c0,0.6-0.1,1.1-0.1,1.7c0,0.3,0,0.5,0,0.8c0,0.8,0,1.6,0,2.4c0,0.8,0,1.6,0,2.4c0,0.3,0,0.5,0,0.8
		c0,0.6,0,1.1,0.1,1.7c0,0.3,0,0.6,0.1,0.9c0,0.5,0.1,1.1,0.1,1.6c0,0.3,0,0.5,0.1,0.8c0.1,0.6,0.1,1.2,0.2,1.8c0,0.2,0,0.4,0.1,0.6
		c0.2,1.6,0.4,3.2,0.7,4.8c0,0.2,0.1,0.3,0.1,0.5c0.1,0.6,0.2,1.2,0.4,1.9c0,0.2,0.1,0.4,0.1,0.6c0.1,0.6,0.3,1.2,0.4,1.9
		c0,0.2,0.1,0.3,0.1,0.5c0.2,0.8,0.4,1.5,0.6,2.2c0,0,0,0,0,0c0.4,1.6,0.9,3.2,1.5,4.7c0,0.1,0,0.1,0.1,0.2c0.2,0.7,0.5,1.4,0.8,2.1
		c0,0.1,0.1,0.2,0.1,0.2c0.3,0.7,0.6,1.4,0.8,2.1c0,0,0,0.1,0,0.1c1,2.3,2,4.5,3.1,6.7c0,0,0,0,0,0l-28.8,16.6
		c-14.7-21.7-44.1-28.7-67.2-15.4c-24.2,14-32.5,45-18.5,69.1c9.4,16.2,26.4,25.3,43.9,25.3c8.6,0,17.3-2.2,25.2-6.8
		c23.1-13.3,31.7-42.2,20.2-65.9l28.8-16.6l0,0c0.4,0.7,0.9,1.4,1.3,2c0.1,0.1,0.1,0.2,0.2,0.3c0.4,0.5,0.8,1.1,1.1,1.6
		c0.1,0.2,0.2,0.3,0.4,0.5c0.4,0.5,0.7,1,1.1,1.4c0.1,0.2,0.2,0.3,0.4,0.5c0.4,0.5,0.8,1.1,1.3,1.6c0.1,0.1,0.1,0.2,0.2,0.2
		c0.5,0.6,1,1.2,1.6,1.9c0,0,0,0,0,0c0.5,0.6,1,1.1,1.5,1.7c0.1,0.1,0.2,0.3,0.4,0.4c0.4,0.5,0.9,0.9,1.3,1.4
		c0.1,0.1,0.3,0.3,0.4,0.4c0.5,0.5,0.9,0.9,1.4,1.4c0.1,0.1,0.2,0.2,0.3,0.3c1.2,1.1,2.3,2.2,3.6,3.2c0.1,0.1,0.2,0.1,0.3,0.2
		c0.5,0.4,1,0.9,1.6,1.3c0.1,0.1,0.3,0.2,0.4,0.3c0.5,0.4,1,0.8,1.6,1.2c0.1,0.1,0.2,0.2,0.3,0.2c1.3,1,2.6,1.9,4,2.8c0,0,0,0,0,0
		c0.6,0.4,1.3,0.9,2,1.3c0.1,0.1,0.2,0.1,0.3,0.2c0.6,0.4,1.2,0.7,1.8,1.1c0.1,0.1,0.2,0.1,0.3,0.2c2.1,1.2,4.3,2.4,6.5,3.4
		c0.1,0,0.1,0,0.2,0.1c0.7,0.3,1.4,0.6,2.1,0.9c0.1,0,0.2,0.1,0.2,0.1c0.7,0.3,1.5,0.6,2.2,0.9c0,0,0,0,0,0c2.3,0.9,4.7,1.8,7.1,2.5
		c0.1,0,0.1,0,0.2,0.1c0.8,0.2,1.6,0.5,2.3,0.7c0,0,0,0,0.1,0c2.5,0.7,5,1.2,7.5,1.6c0,0,0.1,0,0.1,0c0.8,0.1,1.6,0.3,2.5,0.4
		c0,0,0.1,0,0.1,0c2.6,0.4,5.2,0.6,7.8,0.7c0,0,0,0,0,0v33.3c-26.2,1.9-46.9,23.8-46.9,50.5c0,27.9,22.7,50.6,50.6,50.6
		s50.6-22.7,50.6-50.6c0-26.7-20.7-48.6-46.9-50.5v-33.3c2.7-0.1,5.3-0.4,7.9-0.7c0,0,0.1,0,0.1,0c0.8-0.1,1.7-0.2,2.5-0.4
		c0,0,0.1,0,0.1,0c2.6-0.4,5.1-1,7.5-1.6c0,0,0,0,0,0c0.8-0.2,1.6-0.4,2.4-0.7c0.1,0,0.1,0,0.2,0c3.2-1,6.3-2.1,9.4-3.4
		c0.1,0,0.2-0.1,0.2-0.1c0.7-0.3,1.4-0.6,2.1-0.9c0.1,0,0.1,0,0.2-0.1c2.2-1.1,4.4-2.2,6.5-3.4c0.1-0.1,0.2-0.1,0.3-0.2
		c0.6-0.4,1.2-0.7,1.8-1.1c0.1-0.1,0.2-0.1,0.3-0.2c0.7-0.4,1.3-0.8,2-1.3c0,0,0,0,0,0c1.4-0.9,2.7-1.9,4-2.8
		c0.1-0.1,0.2-0.2,0.3-0.2c0.5-0.4,1.1-0.8,1.6-1.2c0.1-0.1,0.3-0.2,0.4-0.3c0.5-0.4,1-0.9,1.6-1.3c0.1-0.1,0.2-0.2,0.3-0.2
		c1.2-1,2.4-2.1,3.5-3.2c0.1-0.1,0.2-0.2,0.3-0.3c0.5-0.5,0.9-0.9,1.4-1.4c0.1-0.1,0.3-0.3,0.4-0.4c0.4-0.4,0.9-0.9,1.3-1.3
		c0.1-0.1,0.2-0.3,0.4-0.4c0.5-0.6,1-1.1,1.5-1.7c0,0,0,0,0.1-0.1c0.5-0.6,1.1-1.2,1.6-1.9c0.1-0.1,0.1-0.2,0.2-0.2
		c0.4-0.5,0.9-1.1,1.3-1.6c0.1-0.2,0.2-0.3,0.4-0.5c0.4-0.5,0.7-0.9,1.1-1.4c0.1-0.2,0.2-0.3,0.4-0.5c0.4-0.5,0.8-1.1,1.1-1.6
		c0.1-0.1,0.1-0.2,0.2-0.3c0.5-0.7,0.9-1.3,1.3-2c0,0,0,0,0,0l28.8,16.6c-5.3,10.9-6.5,23.3-3.3,35.1c3.5,13.1,11.9,24,23.6,30.7
		c8,4.6,16.6,6.8,25.2,6.8c17.5,0,34.6-9.1,43.9-25.3C460,342.1,451.7,311.1,427.6,297.1z M360.5,161.4c3-11.1,10.1-20.5,20.1-26.2
		c6.8-3.9,14.2-5.8,21.5-5.8c14.9,0,29.5,7.7,37.5,21.6c5.8,10,7.3,21.6,4.3,32.8c-1.1,4-2.7,7.8-4.8,11.3c-0.8-4.2-3-7.7-6.5-10.5
		c-4.6-3.8-10.1-4.2-15.7-3.8c-0.6,0-1.3,0.7-1.7,1.2c-2.1,2.5-4.1,5.1-6.1,7.7c-2.2,2.8-4.5,5.6-6.9,8.6c-0.5-0.6-0.9-1-1.3-1.5
		c-3.2-4-6.7-7.9-9.6-12.2c-2.2-3.2-4.8-4.1-8.5-3.9c-8.9,0.4-15.9,6.2-17.6,14.5c-0.2-0.3-0.4-0.6-0.5-0.9
		C359.1,184.2,357.5,172.6,360.5,161.4z M148.2,194.2c-0.2,0.3-0.3,0.5-0.5,0.8c-0.8-4.2-3-7.7-6.5-10.5c-4.6-3.8-10.1-4.2-15.7-3.8
		c-0.6,0-1.3,0.7-1.7,1.2c-2.1,2.5-4.1,5.1-6.1,7.7c-2.2,2.8-4.5,5.6-6.9,8.6c-0.5-0.6-0.9-1-1.3-1.5c-3.2-4-6.7-7.9-9.6-12.2
		c-2.2-3.2-4.8-4.1-8.5-3.9c-8.9,0.4-15.9,6.2-17.6,14.5c-7.9-13.1-8.7-29.9-0.5-44.1c8-13.8,22.5-21.6,37.5-21.6
		c7.3,0,14.7,1.9,21.5,5.8C153,147.1,160.1,173.6,148.2,194.2z M147.8,363.1c-0.7-4.5-2.9-8.3-6.6-11.3c-4.6-3.8-10.1-4.2-15.7-3.8
		c-0.6,0-1.3,0.7-1.7,1.2c-2.1,2.5-4.1,5.1-6.1,7.7c-2.2,2.8-4.5,5.6-6.9,8.6c-0.5-0.6-0.9-1-1.3-1.5c-3.2-4-6.7-7.9-9.6-12.2
		c-2.2-3.2-4.8-4.1-8.5-3.9c-9.2,0.4-16.3,6.6-17.7,15.3c-0.1-0.2-0.3-0.4-0.4-0.7c-11.9-20.6-4.8-47.1,15.8-59
		c20.6-11.9,47.1-4.8,59,15.8C156.3,333.4,155.6,350.1,147.8,363.1z M317.5,304.1c0-0.3,0-0.6,0-0.9c-0.1-9.3-3.9-16.9-11.1-22.8
		c-7.6-6.2-16.5-6.9-25.7-6.2c-1,0.1-2.1,1.1-2.8,2c-3.4,4.1-6.7,8.3-10,12.5c-3.7,4.6-7.4,9.2-11.2,14.1c-0.9-1-1.5-1.7-2.1-2.5
		c-5.3-6.6-10.9-13-15.7-20c-3.6-5.3-7.8-6.7-13.9-6.5c-16.7,0.7-29.3,13.1-29.4,29.9c0,0.1,0,0.2,0,0.3
		c-10.2-13.1-16.2-29.5-16.2-47.3c0-42.6,34.6-77.2,77.2-77.2c42.6,0,77.2,34.6,77.2,77.2C333.7,274.6,327.7,291.1,317.5,304.1z
		 M256.5,45.3c23.8,0,43.2,19.4,43.2,43.2c0,8.2-2.3,15.9-6.3,22.4c-0.8-4.2-3-7.7-6.5-10.5c-4.6-3.8-10.1-4.2-15.7-3.8
		c-0.6,0-1.3,0.7-1.7,1.2c-2.1,2.5-4.1,5.1-6.1,7.7c-2.2,2.8-4.5,5.6-6.9,8.6c-0.5-0.6-0.9-1-1.3-1.5c-3.2-4-6.7-7.9-9.6-12.2
		c-2.2-3.2-4.8-4.1-8.5-3.9c-8.9,0.4-15.9,6.2-17.6,14.5c-4-6.5-6.3-14.2-6.3-22.4C213.3,64.6,232.7,45.3,256.5,45.3z M299.7,425.1
		c0,8.2-2.3,15.9-6.3,22.5c-0.8-4.2-3-7.7-6.5-10.6c-4.6-3.8-10.1-4.2-15.7-3.8c-0.6,0-1.3,0.7-1.7,1.2c-2.1,2.5-4.1,5.1-6.1,7.7
		c-2.2,2.8-4.5,5.6-6.9,8.6c-0.5-0.6-0.9-1-1.3-1.5c-3.2-4-6.7-7.9-9.6-12.2c-2.2-3.2-4.8-4.1-8.5-3.9c-8.9,0.4-15.9,6.2-17.6,14.5
		c-4-6.5-6.3-14.2-6.3-22.4c0-23.8,19.4-43.2,43.2-43.2C280.3,381.9,299.7,401.3,299.7,425.1z M439.7,362.5
		c-0.2,0.3-0.3,0.5-0.5,0.8c-0.8-4.2-3-7.7-6.5-10.5c-4.6-3.8-10.1-4.2-15.7-3.8c-0.6,0-1.3,0.7-1.7,1.2c-2.1,2.5-4.1,5.1-6.1,7.7
		c-2.2,2.8-4.5,5.6-6.9,8.6c-0.5-0.6-0.9-1-1.3-1.5c-3.2-4-6.7-7.9-9.6-12.2c-2.2-3.2-4.8-4.1-8.5-3.9c-8.9,0.4-15.9,6.2-17.6,14.6
		c-2.1-3.5-3.8-7.3-4.8-11.3c-3-11.1-1.5-22.8,4.3-32.8c8-13.8,22.5-21.6,37.5-21.6c7.3,0,14.7,1.9,21.5,5.8
		c10,5.8,17.1,15.1,20.1,26.2C447,340.9,445.4,352.5,439.7,362.5z"/>
</g>
</svg>
