<?xml version="1.0" encoding="utf-8"?>
<!-- Generator: Adobe Illustrator 24.1.1, SVG Export Plug-In . SVG Version: 6.00 Build 0)  -->
<svg version="1.1" id="Layer_1" xmlns="http://www.w3.org/2000/svg" xmlns:xlink="http://www.w3.org/1999/xlink" x="0px" y="0px"
	 viewBox="0 0 506.36 512" style="enable-background:new 0 0 506.36 512;" xml:space="preserve">
<style type="text/css">
	.st0{fill:#272F54;}
</style>
<path class="st0" d="M457.84,268.79c-1.01,7.36-1.93,14.72-3.04,22.06c-2.55,16.93-7.79,33.07-14.54,48.75
	c-2.21,5.13-6.33,7.24-10.76,5.53c-4.35-1.68-5.83-6.07-4.13-11.36c4.27-13.25,9.66-26.29,12.41-39.86
	c9.12-44.95,2.24-87.82-19.74-128.1c-19.5-35.75-48.13-62.04-84.89-79.35c-22.13-10.43-45.57-16.11-70.09-17.39
	c-29.79-1.55-58.43,3.32-85.68,15.34c-10.53,4.65-20.48,10.59-31.79,16.52c5.06,4.79,9.16,8.71,13.3,12.57
	c3.01,2.8,4.44,6.08,2.68,10.02c-1.68,3.76-4.96,4.79-8.89,4.76c-12-0.08-24-0.01-36-0.04c-7.07-0.02-10-2.92-10.03-9.95
	c-0.04-11.98,0.03-23.95-0.04-35.93c-0.02-4.08,1.11-7.46,5.12-9.06c3.82-1.52,6.97-0.05,9.7,2.78c4.34,4.5,8.77,8.91,13.41,13.62
	c1.95-1.2,3.76-2.23,5.49-3.38c22.45-14.93,46.95-25.13,73.43-29.96c61-11.11,116.56,1.82,165.62,39.8
	c36.35,28.14,60.22,65.01,71.75,109.44c3.12,12.02,4.05,24.61,6,36.93c0.21,1.3,0.47,2.59,0.7,3.89
	C457.84,253.88,457.84,261.34,457.84,268.79z M122.77,112.02c4.03,0,7.66,0,10.17,0c-3.24-3.23-6.9-6.86-10.17-10.11
	C122.77,104.63,122.77,108.19,122.77,112.02z"/>
<path class="st0" d="M48.24,244.83c1.06-7.74,1.97-15.5,3.2-23.2c2.57-16.09,7.48-31.51,13.89-46.46c1.97-4.6,6.34-6.44,10.43-4.79
	c4.41,1.77,5.89,6.03,4.17,11.35c-3.96,12.24-8.65,24.32-11.55,36.81c-6.39,27.51-5.69,55.17,1.04,82.59
	c8.96,36.49,27.3,67.56,54.81,93.19c28.06,26.14,61.16,42.28,99.02,48.12c48.46,7.48,93.44-2.18,134.6-29
	c0.43-0.28,0.8-0.65,1.78-1.46c-4.26-4.06-8.35-8-12.48-11.9c-2.84-2.68-4.37-5.8-2.79-9.65c1.63-3.99,4.98-5.11,9.08-5.09
	c12,0.08,23.99,0,35.99,0.04c7.06,0.02,9.97,2.92,10,9.97c0.04,11.97-0.04,23.95,0.04,35.92c0.02,3.91-1,7.26-4.77,8.88
	c-3.89,1.67-7.22,0.28-10.07-2.68c-4.34-4.5-8.75-8.92-13.27-13.52c-1.28,0.73-2.33,1.23-3.28,1.88
	c-25.06,17-52.62,27.75-82.45,32.71c-7.59,1.26-15.3,1.81-22.96,2.69c-6.93,0-13.87,0-20.8,0c-1.3-0.22-2.59-0.56-3.9-0.65
	c-14.53-0.99-28.78-3.58-42.72-7.74c-44.22-13.21-80.08-38.45-107.45-75.47c-19.28-26.08-31.48-55.3-36.64-87.34
	c-1.22-7.57-1.94-15.23-2.89-22.85C48.24,259.74,48.24,252.29,48.24,244.83z M383.23,413.39c0-4.38,0-8.01,0-11.7
	c-3.89,0-7.59,0-11.45,0C375.57,405.56,379.1,409.17,383.23,413.39z"/>
<path class="st0" d="M349.76,330.43c0,9.3,0.03,18.17-0.02,27.05c-0.01,1.84-0.13,3.73-0.56,5.52c-0.79,3.29-2.99,5.27-6.4,5.67
	c-1.71,0.2-3.45,0.24-5.18,0.24c-56.4,0.01-112.79,0.01-169.19,0.01c-9.94,0-12.11-2.21-12.11-12.29c0-8.51,0-17.02,0-26.2
	c-1.62,0-3.01,0-4.4,0c-16.53,0-33.06,0.01-49.6,0c-8.21-0.01-10.85-2.61-10.86-10.67c-0.01-15.04-0.03-30.08,0-45.11
	c0.04-17.36,8.59-29.19,25.12-34.77c7.55-2.55,15.11-5.05,22.89-7.65c-2.18-4.01-4.57-7.65-6.24-11.59
	c-6.2-14.65-6.68-44.29,8.59-60.18c21.35-22.23,58.22-18.92,74.36,7.31c0.61,1,1.29,1.96,1.95,2.95
	c19.81-16.28,47.89-17.77,68.97-0.74c5.26-5.32,9.84-11.4,15.75-15.65c14.28-10.28,30.14-11.77,46.17-4.52
	c16.34,7.38,25.64,20.44,27.36,38.33c1.18,12.25,1.04,24.5-5.01,35.81c-1.43,2.67-3.15,5.18-4.99,8.17
	c7.12,2.39,14.01,4.72,20.91,7.01c19.37,6.4,27.34,17.34,27.34,37.56c0,14.37,0.01,28.74,0,43.12c-0.01,7.9-2.67,10.6-10.51,10.61
	c-16.53,0.02-33.06,0.01-49.6,0.01C353.08,330.43,351.65,330.43,349.76,330.43z M333.61,352.69c0-17.33,0.42-34.21-0.16-51.06
	c-0.33-9.69-6.31-16.13-15.5-19.25c-12.47-4.23-24.97-8.36-37.51-12.34c-1.57-0.5-3.71-0.24-5.26,0.43
	c-14.74,6.4-29.39,6.42-44.16,0.07c-1.74-0.75-4.18-0.83-5.99-0.26c-11.93,3.73-23.79,7.69-35.64,11.65
	c-11.78,3.94-17.06,11.39-17.07,23.93c-0.02,12.9,0,25.81,0,38.71c0,2.63,0,5.26,0,8.13C226.24,352.69,279.74,352.69,333.61,352.69z
	 M289.78,216.6c0-2.44,0.14-5.38-0.02-8.29c-0.98-16.87-14.39-33.01-34.81-34.25c-15.76-0.96-32.55,8.83-36.92,26.26
	c-1.87,7.45-1.93,15.54-1.7,23.3c0.45,15.38,8.19,26.6,22.27,32.62c14.26,6.09,27.74,3.62,39.35-6.71
	C287.61,240.93,290.83,229.7,289.78,216.6z M202.93,241.17c-13.61,9.05-32,10.96-46.93,3.62c-1-0.49-2.59-0.27-3.74,0.1
	c-10.63,3.43-21.26,6.88-31.84,10.49c-8.48,2.9-12.89,9.15-12.96,18.09c-0.06,8.52-0.02,17.03-0.02,25.55c0,5.02,0,10.03,0,15.16
	c16.48,0,32.51,0,48.86,0c0-3.3-0.04-6.34,0.01-9.38c0.12-7.01,1.45-13.72,4.95-19.9c5.34-9.42,13.52-15.12,23.68-18.38
	c9.28-2.97,18.52-6.1,27.65-9.11C209.26,251.8,206.15,246.58,202.93,241.17z M293.45,257.44c9.31,3.06,18.54,6.07,27.76,9.14
	c18.81,6.26,28.52,19.72,28.56,39.53c0.01,2.73,0,5.46,0,8.12c16.6,0,32.54,0,48.86,0c0-1.39,0-2.56,0-3.72
	c0-12.11,0.02-24.22-0.01-36.33c-0.03-9.95-4.31-15.85-13.83-19.04c-10.09-3.39-20.16-6.83-30.32-9.99
	c-1.79-0.56-4.18-0.36-5.95,0.36c-9.42,3.82-19.09,5.13-28.92,2.5c-5.8-1.55-11.31-4.15-16.81-6.22
	C299.88,246.66,296.77,251.88,293.45,257.44z M145.46,197.92c0,2.12-0.17,4.26,0.03,6.37c2.25,24.73,28.06,37.07,48.7,23.29
	c3.9-2.6,6.51-5.63,6.08-11.02c-0.8-10.2,0.72-20.13,5.43-29.42c0.51-1.01,0.42-2.61,0.05-3.75c-3.7-11.46-11.5-18.79-23.27-21.14
	c-11.38-2.27-21.31,1.06-29.24,9.73C146.46,179.36,144.93,188.36,145.46,197.92z M360.79,198.4c0-1.6,0.04-3.19-0.01-4.79
	c-0.65-22.09-19.44-36.67-39.83-30.78c-8.01,2.32-13.73,7.53-18.3,14.52c-4.03,6.16-1.65,11.38,0.6,17.11
	c3.07,7.83,2.63,16.16,2.78,24.41c0.03,1.85,0.97,4.13,2.26,5.45c9.3,9.46,23.5,11.8,35.28,5.72
	C356.39,223.43,361.27,212.31,360.79,198.4z"/>
<path class="st0" d="M76.95,154.85c0.04-4.49,3.75-8.22,8.1-8.14c4.26,0.08,7.88,3.78,7.81,7.99c-0.07,4.48-3.75,8.12-8.2,8.08
	C80.27,162.74,76.92,159.29,76.95,154.85z"/>
<path class="st0" d="M420.36,367.92c-4.32-0.06-7.75-3.56-7.75-7.9c0-4.39,3.69-8.15,8.02-8.18c4.54-0.03,8.03,3.55,7.89,8.1
	C428.37,364.52,424.83,367.99,420.36,367.92z"/>
</svg>
