<?xml version="1.0" encoding="utf-8"?>
<!-- Generator: Adobe Illustrator 24.1.1, SVG Export Plug-In . SVG Version: 6.00 Build 0)  -->
<svg version="1.1" id="Layer_1" xmlns="http://www.w3.org/2000/svg" xmlns:xlink="http://www.w3.org/1999/xlink" x="0px" y="0px"
	 viewBox="0 0 512 512" style="enable-background:new 0 0 512 512;" xml:space="preserve">
<style type="text/css">
	.st0{fill:#272F54;}
</style>
<path class="st0" d="M227.32,424.19c-4.88-1.05-7.95-0.02-10.68,4.7c-4.66,8.03-15.05,10.88-23.86,7.82
	c-8.58-2.99-14.31-11.39-14.03-20.58c0.28-9.26,6.76-17.21,15.94-19.53c8.89-2.26,18.44,1.44,22.85,9.55
	c1.69,3.11,3.51,3.86,6.74,3.83c13.55-0.16,27.11-0.07,40.66-0.07c1.43,0,2.86,0,4.75,0c0-9.64,0-18.92,0-28.2
	c0-4.23-0.05-8.45,0.02-12.68c0.09-5.45,2.62-8.03,8.07-8.07c11.07-0.07,22.14-0.02,33.89-0.02c0-1.54,0-2.92,0-4.3
	c0-9.47-0.01-18.94,0.01-28.41c0.01-6.91,2.29-9.23,9.1-9.25c10.76-0.02,21.53-0.01,32.88-0.01c0-6.46,0-12.67,0-18.87
	c0-4.95-0.05-9.91,0.01-14.86c0.07-5.69,2.6-8.19,8.36-8.22c10.06-0.05,20.11-0.02,30.17-0.02c0.99,0,1.97,0,3.44,0
	c0-10.66,0-20.96,0-31.26c0-8.94,1.77-10.71,10.71-10.71c11.95,0,23.9-0.01,35.85,0c7.16,0.01,9.41,2.24,9.41,9.39
	c0.01,53.18,0,106.37,0,159.55c0,1.74,0,3.49,0,5.71c4.55,0,8.98,0,13.7,0c0,4.89,0,9.31,0,14.05c-74.35,0-148.62,0-223.59,0
	c0,6.49,0.47,12.73-0.15,18.86c-0.48,4.78-1.47,9.88-3.74,14.01c-3.44,6.24-9.67,9.21-16.85,9.22
	c-51.45,0.07-102.89,0.09-154.34-0.01c-11.71-0.02-20.77-9.18-20.79-20.93c-0.08-54.06-0.04-108.12-0.03-162.18
	c0-5.82,2.19-10.8,6.28-14.9c15.85-15.89,31.71-31.76,47.62-47.59c4.46-4.44,9.96-6.23,16.26-6.21c34.1,0.07,68.21,0.03,102.31,0.04
	c15.09,0,23.47,8.47,23.42,23.63c0,1.29,0,2.57,0,4.09c-4.76,0-9.18,0-13.99,0c0-1.61,0.01-3.03,0-4.45
	c-0.05-7.07-2.3-9.28-9.51-9.29c-24.34-0.01-48.68,0-73.01,0c-9.6,0-19.2,0-29.41,0c0,4.83,0,9.43,0,14.03
	c0,6.85,0.07,13.7-0.02,20.55c-0.15,12.27-9.05,21.24-21.29,21.36c-11.35,0.11-22.7,0.02-34.67,0.02c0,1.77,0,3.31,0,4.85
	c0,51,0,102,0,153c0,8.02,2.03,10.04,10.07,10.04c49.26,0,98.52,0,147.78,0c8.02,0,10.07-2.04,10.07-10.06
	c0-5.54-0.03-11.07-0.06-16.61C227.64,424.94,227.48,424.67,227.32,424.19z M437.39,409.72c0-53.75,0-107.01,0-160.45
	c-9.29,0-18.37,0-27.49,0c0,53.62,0,106.99,0,160.45C419.16,409.72,428.14,409.72,437.39,409.72z M395.54,291.35
	c-9.22,0-18.4,0-27.61,0c0,39.54,0,78.92,0,118.21c9.38,0,18.46,0,27.61,0C395.54,370.05,395.54,330.88,395.54,291.35z
	 M325.66,409.56c9.67,0,18.75,0,27.77,0c0-25.63,0-50.91,0-76.34c-9.3,0-18.37,0-27.77,0c0,1.4,0,2.54,0,3.67
	C325.66,361.04,325.66,385.19,325.66,409.56z M283.99,375.12c0,11.74,0,23.14,0,34.43c9.38,0,18.46,0,27.45,0
	c0-11.64,0-22.94,0-34.43C302.24,375.12,293.27,375.12,283.99,375.12z M101.73,239.64c-10.19,10.15-20.33,20.26-30.41,30.31
	c7.69,0,15.81,0.17,23.92-0.08c3.82-0.12,6.32-2.65,6.43-6.47C101.89,255.31,101.73,247.2,101.73,239.64z M206.68,416.72
	c-0.09-3.75-3.28-6.83-7.03-6.8c-3.75,0.03-6.88,3.17-6.9,6.92c-0.03,3.93,3.33,7.19,7.24,7.01
	C203.75,423.69,206.77,420.46,206.68,416.72z"/>
<path class="st0" d="M319.82,209.95c-42.53-33.29-46.83-91.56-16.38-129.7c29.64-37.12,82.33-45.5,121.76-19.34
	c39.38,26.12,52.25,77.64,29.97,119.25c-22.06,41.21-75.18,61.84-123.34,37.34c-4.56,4.65-9.21,9.46-13.93,14.2
	c-11.52,11.56-23.13,23.04-34.59,34.66c-2.53,2.57-5.26,3.76-8.9,3.71c-10.75-0.16-21.5-0.06-32.57-0.06c0,42,0,83.62,0,125.58
	c-4.73,0-9.15,0-14.06,0c0-41.67,0-83.4,0-125.57c-4.79,0-9.15-0.24-13.44,0.15c-1.22,0.11-2.57,1.9-3.35,3.22
	c-4.94,8.29-14.4,12.3-23.63,9.85c-9.08-2.42-15.46-10.51-15.62-19.8c-0.16-9.52,6.1-18,15.2-20.57c9.39-2.65,19.26,1.23,23.91,9.84
	c1.39,2.58,2.82,3.4,5.66,3.38c17.93-0.14,35.85-0.04,53.78-0.13c1.6-0.01,3.68-0.34,4.72-1.36
	C289.97,239.87,304.77,225,319.82,209.95z M367.64,60.89c-30.02,0.15-60.11,26.23-67.91,58.48c-8.32,34.42,8.42,70.24,40.49,86.51
	c29.91,15.18,63.92,6.88,79.62-7.41c-16.25-18.28-32.59-36.49-48.64-54.95c-1.98-2.28-3.38-5.88-3.41-8.89
	c-0.28-23.01-0.15-46.02-0.15-69.03C367.64,64.03,367.64,62.46,367.64,60.89z M381.94,60.78c0,23.24,0,46.16,0,68.99
	c23.21,0,46.12,0,69.04,0C449.04,94.61,416.68,62.3,381.94,60.78z M451.19,144.4c-20.33,0-40.16,0-60.68,0
	c13.68,15.38,26.91,30.25,40.27,45.27C442.62,176.6,449.39,161.83,451.19,144.4z M192.89,269.96c3.76-0.11,6.83-3.29,6.79-7.04
	c-0.03-3.92-3.45-7.12-7.36-6.89c-3.74,0.22-6.73,3.52-6.57,7.25C185.92,267.04,189.15,270.07,192.89,269.96z"/>
<path class="st0" d="M203.15,138.92c10.66-9.13,21.1-17.96,31.34-27.03c0.96-0.85,1.12-3.31,0.78-4.84
	c-2.11-9.53,2.17-19.08,10.81-23.57c8.45-4.39,18.7-2.53,25.14,4.56c6.32,6.96,7.23,17.09,2.27,25.1
	c-4.85,7.83-14.22,11.8-23.04,9.08c-3.71-1.14-6.03-0.43-8.82,2.04c-10.69,9.45-21.66,18.59-32.4,27.99
	c-1.53,1.34-2.7,3.33-3.45,5.25c-3.25,8.37-9.15,13.54-18.08,14.4c-8.94,0.86-15.92-2.98-20.28-10.85
	c-1.25-2.24-2.47-3.08-4.98-3.03c-7.86,0.15-15.73,0.16-23.6,0c-2.38-0.05-3.52,0.77-4.65,2.85c-4.97,9.15-14.45,13.17-24.44,10.18
	c-2.58-0.77-3.96-0.18-5.63,1.54c-5.07,5.23-10.18,10.43-15.47,15.43c-2.17,2.05-2.61,3.82-1.74,6.78
	c2.62,8.92-1.23,18.16-9.09,23.03c-7.76,4.81-17.52,4.13-24.44-1.69c-7.02-5.91-9.42-15.24-6.08-23.72
	c3.36-8.56,11.86-13.94,21.03-13.29c0.44,0.03,0.95-0.06,1.29,0.14c5.49,3.13,8.69-0.23,12.07-3.92c4.13-4.51,8.72-8.59,12.83-13.11
	c0.98-1.08,1.5-3.33,1.14-4.76c-2.8-10.96,1.97-21.45,11.94-25.67c10.18-4.31,21.02-0.29,26.92,9.71c0.74,1.25,2.77,2.42,4.23,2.47
	c8,0.24,16.02,0.19,24.03,0.03c1.31-0.03,3.17-0.74,3.81-1.75C176.06,127.32,190.17,125.86,203.15,138.92z M255.79,95.15
	c-3.77-0.05-6.94,2.99-7.06,6.76c-0.12,3.92,3.16,7.24,7.08,7.17c3.76-0.07,6.85-3.22,6.84-6.98
	C262.65,98.33,259.55,95.19,255.79,95.15z M122.73,151.16c0.05-3.76-3.02-6.95-6.77-7.04c-3.94-0.1-7.23,3.16-7.15,7.1
	c0.07,3.76,3.23,6.85,6.99,6.83C119.55,158.03,122.68,154.92,122.73,151.16z M185.69,144.12c-3.78,0.03-6.88,3.12-6.93,6.9
	c-0.05,3.93,3.3,7.18,7.22,7.03c3.76-0.14,6.79-3.36,6.71-7.11C192.61,147.16,189.45,144.08,185.69,144.12z M66.97,207.01
	c3.76-0.1,6.83-3.28,6.79-7.03c-0.04-3.77-3.16-6.88-6.92-6.89c-3.94-0.01-7.16,3.32-7,7.25C59.98,204.09,63.21,207.11,66.97,207.01
	z"/>
<path class="st0" d="M206.52,333.26c0,4.62,0,8.93,0,13.47c-27.82,0-55.43,0-83.4,0c0-4.32,0-8.74,0-13.47
	C150.73,333.26,178.45,333.26,206.52,333.26z"/>
<path class="st0" d="M150.54,368.23c0,4.63,0,8.94,0,13.47c-23.16,0-46.11,0-69.41,0c0-4.33,0-8.75,0-13.47
	C104.09,368.23,127.15,368.23,150.54,368.23z"/>
<path class="st0" d="M80.98,311.66c0-4.61,0-8.92,0-13.45c13.82,0,27.45,0,41.43,0c0,4.31,0,8.72,0,13.45
	C108.8,311.66,95.07,311.66,80.98,311.66z"/>
<path class="st0" d="M206.43,381.7c-14.03,0-27.66,0-41.49,0c0-4.52,0-8.83,0-13.46c13.74,0,27.47,0,41.49,0
	C206.43,372.62,206.43,377.03,206.43,381.7z"/>
<path class="st0" d="M164.54,403.21c0,4.62,0,8.93,0,13.46c-13.82,0-27.45,0-41.43,0c0-4.32,0-8.74,0-13.46
	C136.73,403.21,150.46,403.21,164.54,403.21z"/>
<path class="st0" d="M137.11,298.13c11.48,0,22.78,0,34.35,0c0,4.55,0,8.96,0,13.61c-11.4,0-22.7,0-34.35,0
	C137.11,307.43,137.11,303.02,137.11,298.13z"/>
<path class="st0" d="M108.56,346.78c-9.27,0-18.23,0-27.48,0c0-4.51,0-8.92,0-13.58c9.14,0,18.2,0,27.48,0
	C108.56,337.68,108.56,341.99,108.56,346.78z"/>
<path class="st0" d="M108.56,416.73c-9.27,0-18.23,0-27.48,0c0-4.51,0-8.92,0-13.58c9.14,0,18.2,0,27.48,0
	C108.56,407.63,108.56,411.94,108.56,416.73z"/>
<path class="st0" d="M136.92,276.65c0-4.51,0-8.82,0-13.38c6.89,0,13.63,0,20.6,0c0,4.43,0,8.73,0,13.38
	C150.85,276.65,144.11,276.65,136.92,276.65z"/>
<path class="st0" d="M206.39,311.79c-6.9,0-13.53,0-20.41,0c0-4.58,0-8.99,0-13.61c6.81,0,13.45,0,20.41,0
	C206.39,302.57,206.39,306.98,206.39,311.79z"/>
</svg>
