<?xml version="1.0" encoding="utf-8"?>
<!-- Generator: Adobe Illustrator 24.1.1, SVG Export Plug-In . SVG Version: 6.00 Build 0)  -->
<svg version="1.1" id="Layer_1" xmlns="http://www.w3.org/2000/svg" xmlns:xlink="http://www.w3.org/1999/xlink" x="0px" y="0px"
	 viewBox="0 0 512 512" style="enable-background:new 0 0 512 512;" xml:space="preserve">
<style type="text/css">
	.st0{fill:#272F54;}
</style>
<path class="st0" d="M39.27,152.06c3.12-8.41,9.16-11.65,18.06-11.31c11.54,0.44,23.1,0.1,34.66,0.11
	c11.76,0.01,17,5.18,17.21,16.92c0.02,1.1,0.12,2.2,0.21,3.72c15.63-0.03,31.53,2.75,44.86-8.6c0.64-0.54,1.38-0.99,2.12-1.38
	c3.24-1.7,6.77-0.93,8.54,1.94c1.91,3.1,1.47,6.14-1.34,8.3c-8.59,6.63-17.88,11.86-29.06,12.34c-6.75,0.29-13.52,0.17-20.28,0.23
	c-1.51,0.01-3.03,0-4.8,0c0,40.15,0,79.81,0,119.98c13.32,0,26.67-0.77,38.69,5.37c4.05-6.13,8.42-11.8,11.78-18.03
	c7.93-14.72,29.36-18.35,40.79-0.82c1.16-0.65,2.34-1.33,3.53-1.98c13.42-7.37,29.72,0.18,33.06,15.13
	c0.43,1.94,1.82,4.15,3.43,5.27c21.87,15.17,43.86,30.17,65.82,45.2c1.04,0.71,2.1,1.45,3.24,1.98c4.4,2.03,9.67,0.5,12.32-3.49
	c2.49-3.76,1.95-9.22-1.35-12.42c-1.1-1.07-2.42-1.92-3.7-2.8c-21.48-14.75-42.96-29.48-64.44-44.23c-1.27-0.88-2.65-1.68-3.71-2.77
	c-2.36-2.44-2.6-5.32-0.71-8.08c1.8-2.62,4.46-3.37,7.45-2.17c1.28,0.52,2.44,1.38,3.6,2.17c24.16,16.56,48.32,33.12,72.48,49.69
	c1.16,0.8,2.3,1.63,3.53,2.32c4.9,2.76,10.41,1.53,13.39-2.94c2.96-4.45,2.01-10.12-2.63-13.44c-7.21-5.17-14.6-10.09-21.91-15.11
	c-17.88-12.27-35.76-24.54-53.64-36.82c-0.93-0.64-1.9-1.23-2.73-1.98c-2.67-2.4-3.19-5.25-1.31-8.33c1.74-2.87,5.32-3.63,8.55-1.89
	c1.23,0.67,2.37,1.52,3.53,2.32c24.51,16.8,49,33.63,73.54,50.38c1.94,1.32,4.12,2.59,6.37,3.07c4.47,0.96,8.86-1.73,10.56-5.9
	c1.78-4.36,0.53-8.96-3.67-11.91c-9.91-6.97-19.92-13.78-29.9-20.64c-9.29-6.38-18.51-12.85-27.9-19.07
	c-13.66-9.03-23.75-21.01-30.46-35.9c-0.34-0.75-0.76-1.47-1.32-2.54c-6.59,3.42-13.05,6.76-19.49,10.12
	c-7.74,4.03-15.35,8.32-23.22,12.07c-15.08,7.17-29.82,6.16-43.7-3.15c-11.64-7.81-11.96-22.01-0.74-30.44
	c17.46-13.11,35.06-26.03,52.6-39.03c1.12-0.83,2.2-1.72,3.68-2.88c-18.63-10.61-37.45-12.06-56.96-3.87
	c-1.17,0.49-2.27,1.12-3.43,1.62c-3.93,1.71-7.35,0.73-9.05-2.56c-1.71-3.33-0.5-6.77,3.33-8.77c8.2-4.26,16.9-6.95,26.12-7.81
	c17.59-1.65,33.81,2.25,48.68,11.88c1.05,0.68,3.24,0.71,4.3,0.06c28.74-17.45,57-16.61,84.86,1.99
	c6.09,4.07,12.16,8.16,18.24,12.25c5.87,3.95,12.3,6.17,19.42,6.18c7.14,0.01,14.29,0,21.89,0c0-2.39-0.09-4.33,0.02-6.26
	c0.47-8.72,6.25-14.4,14.95-14.46c13.39-0.09,26.77-0.1,40.16,0c8.85,0.07,14.75,6.07,14.76,15.01c0.04,52.57,0.04,105.13,0,157.7
	c-0.01,9.05-6.07,15.1-15.15,15.17c-12.96,0.1-25.93,0.07-38.89,0.01c-9.84-0.04-15.67-5.91-15.85-15.81c-0.03-1.8,0-3.61,0-5.72
	c-12.68-0.51-24.92-1.08-36.15,5.22c-1.32,0.74-2.8,2.48-2.92,3.87c-1.31,14.21-10.03,22.37-24.45,22.56
	c-0.67,0.01-1.34,0.1-1.95,0.15c-3.29,17.39-16.34,22.92-28.7,20.54c-7.17,20.4-18.42,24.75-38.33,14.83
	c-12.63,14.83-35.28,10.87-40.9-9.3c-16.35-0.92-22.19-4.93-26.62-18.28c-18.09-2.06-21.27-4.25-26.44-17.19
	c-6.31-1.86-11.77-3.28-17.07-5.15c-1.73-0.61-3.47-2.17-4.47-3.75c-6.26-9.93-16.31-12.31-26.8-13.38
	c-5.82-0.59-11.76-0.11-18.22-0.11c0,2.12,0.04,4.04-0.01,5.96c-0.24,9.65-6.09,15.51-15.68,15.56c-11.84,0.06-23.68-0.31-35.5,0.12
	c-8.92,0.33-15.27-2.69-18.72-11.1c0-19.73,0-39.46,0-59.19c2.33-2.63,4.92-4.78,8.71-3.26c3.85,1.54,4.03,4.92,4.01,8.47
	c-0.06,15.92,0.06,31.85-0.1,47.77c-0.04,3.55,1.14,4.61,4.61,4.55c11.41-0.18,22.83-0.06,34.24-0.07c5.72,0,5.73-0.01,5.73-5.9
	c0-45.38,0-90.76,0-136.14c0-5.07-0.21-10.16,0.07-15.22c0.21-3.91-0.86-5.48-5.12-5.37c-11.55,0.28-23.11,0.21-34.66,0.02
	c-3.59-0.06-5.07,0.85-4.88,4.71c0.3,6.19,0.08,12.4,0.08,18.6c0,18.88-0.03,37.77,0.03,56.65c0.01,3.45-0.38,6.64-3.99,8.07
	c-3.53,1.39-6.25-0.15-8.34-3.07c-0.06-0.09-0.26-0.08-0.4-0.11C39.27,209.56,39.27,180.81,39.27,152.06z M402.22,174.33
	c-7.32,0-13.92-0.06-20.52,0.01c-10.48,0.12-19.94-2.94-28.56-8.83c-6.98-4.76-13.94-9.56-21.06-14.1
	c-21.61-13.8-47.83-13.43-68.65,1.55c-22.51,16.2-44.66,32.92-66.93,49.46c-4.67,3.47-4.54,7.2,0.38,10.37
	c10.08,6.5,20.63,7.03,31.27,1.56c15.4-7.9,30.68-16.01,46.02-24.02c6.66-3.48,9.52-2.2,12.07,4.78
	c8.45,23.12,23.73,38.98,48.36,44.41c5.18,1.14,10.61,1.17,15.92,1.74c4.2,0.45,6.58,2.72,6.63,6.26c0.06,3.55-2.32,5.91-6.44,6.42
	c-0.84,0.1-1.66,0.32-3.01,0.59c8.56,5.88,16.58,11.36,24.56,16.88c6.76,4.67,10.01,11.22,10.18,19.37c0.02,1.19,0,2.38,0,3.35
	c6.84,0,13.11,0,19.77,0c0-2.03,0-3.69,0-5.35c0-20.57,0-41.14,0-61.71c0-6.69,2.17-9.91,6.57-9.8c4.21,0.11,6.14,3.14,6.14,9.7
	c0,28.04,0.06,56.08-0.07,84.12c-0.02,3.82,1.03,5.16,5.02,5.08c11.69-0.25,23.39-0.21,35.07-0.02c3.56,0.06,4.63-1.15,4.55-4.62
	c-0.2-8.87-0.07-17.75-0.07-26.63c0-42.13-0.05-84.26,0.08-126.39c0.01-3.88-1.04-5.13-4.97-5.06c-11.83,0.23-23.67,0.17-35.5,0.03
	c-3.14-0.04-4.24,1.04-4.17,4.14c0.14,6.9,0.05,13.81,0.04,20.71c-0.01,6.62,0.08,13.25-0.09,19.86c-0.1,3.78-2.65,6.2-6.05,6.28
	c-3.41,0.08-5.98-2.22-6.46-5.95c-0.19-1.53-0.11-3.09-0.11-4.64C402.22,187.56,402.22,181.24,402.22,174.33z M214.64,288.07
	c-2.32,1.38-5.37,2.23-6.84,4.24c-6.49,8.83-12.68,17.89-18.65,27.07c-2.75,4.23-1.12,9.94,2.92,12.72
	c4.17,2.87,9.92,2.54,12.92-1.58c6.53-8.97,12.96-18.05,18.76-27.5C227.7,296.59,222.55,288.75,214.64,288.07z M236.49,313.53
	c-2.39,1.5-5.43,2.5-7.05,4.6c-4.78,6.22-9.17,12.77-13.39,19.4c-2.74,4.31-1.38,9.9,2.56,12.8c4.2,3.09,10.01,2.72,13.23-1.54
	c4.89-6.49,9.63-13.16,13.78-20.14C249.45,322.21,244.41,314.31,236.49,313.53z M251.78,371.33c2.41-1.5,5.48-2.48,7.11-4.59
	c4.81-6.23,9.23-12.79,13.44-19.44c2.73-4.31,1.23-9.84-2.84-12.77c-3.97-2.86-9.95-2.47-12.96,1.52
	c-4.9,6.52-9.66,13.2-13.84,20.19C238.84,362.7,243.85,370.59,251.78,371.33z M171.41,316.12c2.25-1.26,5.14-2.02,6.62-3.89
	c4.1-5.17,7.88-10.64,11.27-16.31c2.6-4.34,0.78-9.89-3.4-12.59c-4.03-2.6-9.66-2.06-12.62,1.81c-3.93,5.14-7.75,10.43-10.96,16.03
	C158.56,307.73,163.53,315.5,171.41,316.12z M277.33,363.55c3.46,3.2,7.38,4.5,11.9,2.48c3.67-1.64,5.59-4.61,5.66-8.65
	c0.11-5.85-3.84-8.59-7.92-10.73C283.76,352.28,280.64,357.73,277.33,363.55z"/>
<path class="st0" d="M67.94,289.93c0-1.68-0.09-3.37,0.02-5.04c0.24-3.75,2.6-6.09,6.07-6.17c3.43-0.08,6.2,2.18,6.46,5.83
	c0.27,3.76,0.27,7.57-0.01,11.33c-0.27,3.6-3.19,5.96-6.51,5.84c-3.34-0.13-5.79-2.65-6.01-6.32
	C67.85,293.57,67.94,291.75,67.94,289.93z"/>
<path class="st0" d="M443.48,290.43c0,1.68,0.09,3.37-0.02,5.04c-0.25,3.64-2.76,6.24-6.1,6.21c-3.59-0.03-6-2.04-6.34-5.49
	c-0.4-4.02-0.43-8.14,0.02-12.15c0.38-3.43,2.77-5.48,6.43-5.3c3.61,0.18,5.65,2.24,5.96,5.81c0.17,1.95,0.03,3.92,0.03,5.88
	C443.47,290.43,443.47,290.43,443.48,290.43z"/>
</svg>
