<?xml version="1.0" encoding="utf-8"?>
<!-- Generator: Adobe Illustrator 24.1.1, SVG Export Plug-In . SVG Version: 6.00 Build 0)  -->
<svg version="1.1" id="Layer_1" xmlns="http://www.w3.org/2000/svg" xmlns:xlink="http://www.w3.org/1999/xlink" x="0px" y="0px"
	 viewBox="0 0 512 512" style="enable-background:new 0 0 512 512;" xml:space="preserve">
<style type="text/css">
	.st0{fill:#272F54;}
</style>
<path class="st0" d="M258.3,32.64c15.25,15.11,30.49,30.23,45.77,45.32c2.27,2.24,3.44,4.66,2.2,7.8c-1.3,3.3-3.9,4.42-7.28,4.37
	c-4.63-0.06-9.26-0.02-14.48-0.02c0,6.49,0.02,12.69-0.01,18.88c-0.03,6.27-2.1,8.41-8.31,8.42c-13.66,0.04-27.32,0.04-40.98,0
	c-6.21-0.02-8.32-2.17-8.35-8.4c-0.03-6.08-0.01-12.17-0.01-18.91c-4.84,0-9.42-0.07-14,0.02c-3.49,0.07-6.35-0.83-7.73-4.36
	c-1.3-3.33,0.11-5.79,2.49-8.13c15.18-14.97,30.31-30,45.45-45.01C254.81,32.64,256.56,32.64,258.3,32.64z M228.36,76.73
	c11.43,0.96,11.61,1.16,11.61,12.83c0,4.86,0,9.73,0,14.5c10.82,0,20.93,0,31.45,0c0-5.56,0-10.9,0-16.23
	c0-9.35,1.15-10.56,10.31-10.87c0.5-0.02,1-0.22,0.42-0.09c-8.77-9.09-17.77-18.41-26.8-27.77
	C246.43,58.22,237.46,67.41,228.36,76.73z"/>
<path class="st0" d="M286.24,190.79c0-14.15-0.02-27.95,0.02-41.76c0.01-2.61-1.49-3.14-3.66-3.13c-4.22,0.03-8.44,0.07-12.65-0.02
	c-4.76-0.1-7.58-2.61-7.57-6.58c0.01-4.04,2.71-6.4,7.59-6.47c4.51-0.07,9.02-0.07,13.52,0c9.59,0.16,15.79,6.34,15.84,15.91
	c0.07,13.96,0.13,27.92-0.06,41.88c-0.05,3.56,0.99,6.34,2.99,9.21c35.68,51.13,71.27,102.32,106.88,153.49
	c5.1,7.32,5.32,13.99,0.63,20.06c-2.71,3.51-6.23,5.72-10.77,5.73c-23.99,0.05-47.99,0.07-71.98,0.02c-4.44-0.01-7.05-2.7-6.93-6.65
	c0.11-3.96,2.9-6.37,7.77-6.38c21.81-0.05,43.62,0.02,65.44-0.08c2.15-0.01,4.3-0.84,6.45-1.29c-0.88-1.91-1.51-4-2.69-5.71
	c-7.97-11.62-16.12-23.13-24.07-34.77c-1.62-2.37-3.28-3.48-6.32-3.48c-74.01,0.09-148.03,0.09-222.04,0.01
	c-2.8,0-4.48,0.86-6.05,3.17c-8.1,11.89-16.41,23.63-24.55,35.5c-1.08,1.58-1.58,3.57-2.35,5.36c1.88,0.42,3.76,1.21,5.63,1.21
	c59.76,0.06,119.53,0.05,179.29,0.07c1.74,0,3.54-0.08,5.19,0.33c3.39,0.85,5.22,3.3,4.95,6.74c-0.27,3.4-2.3,5.57-5.88,5.93
	c-1.01,0.1-2.03,0.07-3.05,0.07c-60.93,0-121.86-0.13-182.78,0.12c-11.03,0.04-17.11-8.32-16.56-15.15
	c0.29-3.68,1.77-7.69,3.88-10.75c28.73-41.62,57.67-83.1,86.56-124.61c6.97-10.02,14.04-19.98,20.82-30.13
	c1.34-2.01,2.18-4.74,2.21-7.16c0.21-13.96,0.08-27.92,0.11-41.88c0.02-10.73,6.02-16.73,16.73-16.81
	c4.51-0.03,9.02-0.09,13.52,0.04c4.2,0.13,6.72,2.66,6.73,6.43c0.01,3.68-2.59,6.39-6.7,6.55c-4.5,0.18-9.01,0.11-13.52,0.04
	c-2.52-0.04-3.71,0.88-3.7,3.56c0.07,13.66,0.03,27.32,0.03,41.33C245.48,190.79,265.59,190.79,286.24,190.79z M361.28,307.52
	c-10.06-14.46-19.65-28.11-29.05-41.89c-1.61-2.36-3.35-3.1-6.09-3.09c-18.32,0.11-36.64,0.06-54.95,0.05
	c-8.58,0-17.16,0.09-25.73-0.07c-4.5-0.08-7.2-2.76-7.18-6.55c0.02-3.77,2.73-6.25,7.23-6.54c1.3-0.09,2.62-0.04,3.92-0.04
	c21.95,0,43.91,0,65.86,0c1.52,0,3.04,0,5.22,0c-0.66-1.21-0.87-1.71-1.18-2.15c-9.45-13.61-18.84-27.25-28.47-40.73
	c-0.92-1.29-3.35-2.11-5.09-2.12c-20.06-0.15-40.13-0.03-60.19-0.17c-2.87-0.02-4.43,1.03-5.97,3.29
	c-7.53,11.04-15.23,21.97-22.86,32.95c-1.88,2.7-3.7,5.43-6.08,8.93c2.4,0,3.94,0,5.47,0c7.12,0.01,14.25-0.08,21.37,0.05
	c4.77,0.09,7.64,2.74,7.59,6.62c-0.04,3.86-2.92,6.29-7.72,6.51c-1.16,0.05-2.33,0.02-3.49,0.02c-9.6,0-19.19,0.07-28.79-0.04
	c-2.54-0.03-4.23,0.59-5.77,2.84c-8.93,13.08-18.05,26.03-27.08,39.04c-0.6,0.86-1.01,1.85-1.68,3.08
	C220.88,307.52,290.62,307.52,361.28,307.52z"/>
<path class="st0" d="M398.84,451.93c0,6.75,0.02,12.83-0.01,18.9c-0.03,6.28-2.15,8.5-8.26,8.52c-13.81,0.03-27.61,0.04-41.42,0
	c-5.62-0.02-7.91-2.34-7.96-7.96c-0.05-6.23-0.01-12.46-0.01-19.46c-4.66,0-9.08-0.06-13.5,0.02c-3.55,0.06-6.76-0.45-8.22-4.26
	c-1.35-3.53,0.32-6.03,2.78-8.46c13.87-13.67,27.64-27.44,41.47-41.15c4.87-4.83,7.73-4.83,12.54-0.06
	c13.82,13.71,27.62,27.46,41.46,41.15c2.39,2.36,4.33,4.72,2.92,8.39c-1.47,3.83-4.55,4.45-8.13,4.39
	C408.18,451.87,403.83,451.93,398.84,451.93z M396.59,438.57c-8.83-9.11-17.85-18.41-26.53-27.36
	c-8.95,9.13-17.95,18.31-26.79,27.33c0.11,0.01,0.81,0.15,1.51,0.19c8.02,0.38,9.5,1.93,9.51,10.02c0,5.76,0,11.52,0,17.2
	c10.81,0,21.04,0,31.46,0c0-5.55,0-10.78,0-16.01c0-9.59,0.8-10.44,10.55-11.27C396.67,438.63,397.04,438.4,396.59,438.57z"/>
<path class="st0" d="M284.52,451.93c0,6.75,0.02,12.82-0.01,18.9c-0.03,6.26-2.17,8.5-8.26,8.52c-13.81,0.03-27.61,0.04-41.42,0
	c-5.62-0.02-7.91-2.34-7.96-7.95c-0.05-6.23-0.01-12.46-0.01-19.46c-4.68,0-9.1-0.06-13.52,0.02c-3.55,0.06-6.73-0.46-8.21-4.27
	c-1.38-3.56,0.34-6.03,2.79-8.44c13.96-13.78,27.83-27.65,41.76-41.47c4.44-4.4,7.54-4.41,11.93-0.06
	c14.04,13.91,28.02,27.88,42.09,41.76c2.5,2.46,3.97,5.01,2.45,8.5c-1.44,3.31-4.26,4.02-7.54,3.98
	C294.13,451.88,289.63,451.93,284.52,451.93z M239.97,465.97c10.75,0,20.98,0,31.45,0c0-4.64,0-8.99,0-13.33
	c0-12.25,0-12.25,10.74-14.24c-8.67-8.95-17.69-18.26-26.45-27.3c-9,9.12-18.04,18.26-27.04,27.38c0.47,0.06,1.29,0.21,2.11,0.24
	c7.44,0.34,9.17,2.11,9.18,9.5C239.97,454.02,239.97,459.82,239.97,465.97z"/>
<path class="st0" d="M170.2,451.93c0,6.78,0.03,13-0.01,19.22c-0.04,5.9-2.28,8.18-8.15,8.2c-13.81,0.04-27.61,0.04-41.42,0
	c-5.83-0.02-8.03-2.31-8.06-8.28c-0.04-6.21-0.01-12.42-0.01-19.14c-4.95,0-9.41-0.03-13.88,0.01c-3.39,0.03-6.43-0.58-7.9-4.13
	c-1.47-3.56,0.3-6.07,2.73-8.46c13.94-13.8,27.83-27.67,41.76-41.48c4.59-4.55,7.63-4.52,12.25,0.06
	c13.93,13.82,27.81,27.69,41.78,41.46c2.49,2.45,4.02,4.99,2.58,8.49c-1.47,3.56-4.5,4.14-7.9,4.08
	C179.61,451.87,175.25,451.93,170.2,451.93z M168.3,438.42c-8.99-9.18-17.99-18.37-26.73-27.29c-8.97,9.22-17.98,18.48-26.74,27.47
	c-0.2-0.03,0.37,0.09,0.94,0.12c8.42,0.39,9.88,1.88,9.88,10.13c0,5.75,0,11.49,0,17.21c10.79,0,20.91,0,31.45,0
	c0-4.97,0-9.73,0-14.49C157.1,439.82,157.14,439.76,168.3,438.42z"/>
</svg>
