<?xml version="1.0" encoding="utf-8"?>
<!-- Generator: Adobe Illustrator 24.1.1, SVG Export Plug-In . SVG Version: 6.00 Build 0)  -->
<svg version="1.1" id="Layer_1" xmlns="http://www.w3.org/2000/svg" xmlns:xlink="http://www.w3.org/1999/xlink" x="0px" y="0px"
	 viewBox="0 0 512 512" style="enable-background:new 0 0 512 512;" xml:space="preserve">
<style type="text/css">
	.st0{fill:#272F54;}
</style>
<g>
	<path class="st0" d="M311.2,333.7c-10.1-8.2-21.6-8.6-31.5-7.9c-2.4,0.2-4.7,1.6-6.8,4.1c-2.5,3.1-5,6.2-7.5,9.4L254,353.5
		c-1-1.3-2.1-2.6-3.1-3.8c-4.1-5-8-9.8-11.5-14.9c-5.9-8.8-13.7-9.6-19.7-9.3h0c-21.2,1-36.7,16.8-36.9,37.6c-0.1,9-0.1,18,0,27
		l0,8.2c0,7,3.3,10.3,10.4,10.3c20.3,0,40.5,0,60.8,0s40.5,0,60.8,0c7.2,0,10.4-3.2,10.4-10.2l0-9.3c0-8.7,0-17.7,0-26.6
		C325.1,350.8,320.4,341.1,311.2,333.7z M314.5,389l0,8.9c-40.3,0-80.6,0-120.9,0l0-7.8c0-9,0-18,0-26.9
		c0.1-14.9,11.3-26.2,26.6-26.9h0c5.3-0.2,7.8,0.9,10.3,4.6c3.7,5.5,8,10.7,12.1,15.7c1.7,2.1,3.4,4.1,5,6.2c0.5,0.6,1,1.2,1.6,1.9
		l5.1,5.8l19.5-24.5c2.4-3.1,4.9-6.2,7.4-9.2c0.1-0.1,0.2-0.2,0.2-0.3c10.7-0.6,17.4,1,23,5.6c6.7,5.4,9.9,12.2,10,20.5
		C314.6,371.3,314.6,380.3,314.5,389z"/>
	<path class="st0" d="M253.9,329.1c0.1,0,0.1,0,0.2,0c9.9,0,19.3-3.8,26.3-10.8c7.1-7,11-16.3,11-26.3c0-20.4-16.5-37.1-36.9-37.2
		c-10,0-19.5,3.7-26.6,10.8c-7.1,7-11,16.3-11,26.2c-0.1,10,3.8,19.3,10.8,26.4C234.6,325.1,243.9,329,253.9,329.1z M235.4,273.1
		c5-4.9,11.7-7.7,18.7-7.7c0.1,0,0.1,0,0.2,0c14.5,0.1,26.3,12,26.3,26.5c0,7-2.8,13.7-7.8,18.7c-5,5-11.7,7.7-18.7,7.7
		c0,0-0.1,0-0.1,0c-7.1,0-13.8-2.8-18.7-7.8c-5-5-7.7-11.7-7.7-18.8C227.6,284.7,230.4,278.1,235.4,273.1z"/>
	<path class="st0" d="M473.2,215.4h-39.6L418,171.8h23.8c3.2,0,5.8-2.6,5.8-5.8v-35.7c0-3.2-2.6-5.8-5.8-5.8h-68
		c-3.2,0-5.8,2.6-5.8,5.8v35.7c0,0.6,0.1,1.2,0.3,1.8l-46.4,55c-0.5-0.2-1.1-0.3-1.7-0.3h-22.1l-9.9-71.6h28.3
		c3.2,0,5.8-2.6,5.8-5.8v-35.7c0-3.2-2.6-5.8-5.8-5.8h-68c-3.2,0-5.8,2.6-5.8,5.8v22.3h-48.8v-8.8c0-3.2-2.6-5.8-5.8-5.8h-41
		c-3.2,0-5.8,2.6-5.8,5.8v22.9c0,3.2,2.6,5.8,5.8,5.8h41c3.2,0,5.8-2.6,5.8-5.8v-8.8h48.8v8c0,3.2,2.6,5.8,5.8,5.8h34.3l9.9,71.6
		h-14.5c-1,0-1.9,0.3-2.7,0.7l0.1-0.6l-40-9.9c0.1-0.3,0.1-0.7,0.1-1v-31.3c0-3.2-2.6-5.8-5.8-5.8h-59.3c-0.7,0-1.3,0.1-1.9,0.3
		l-46.9-27.5c0.1-0.5,0.2-1,0.2-1.5v-30.9c0-3.2-2.6-5.8-5.8-5.8H56.7c-3.2,0-5.8,2.6-5.8,5.8v30.9c0,3.2,2.6,5.8,5.8,5.8h59.5
		c0.7,0,1.3-0.1,1.9-0.3l46.9,27.5c-0.1,0.5-0.2,1-0.2,1.5v31.3c0,0.6,0.1,1.2,0.3,1.7l-27.3,26h-4.3c-3.2,0-5.8,2.6-5.8,5.8v35.7
		c0,0.4,0,0.8,0.1,1.1l-19.2,6l0.1,0.5c-0.8-0.4-1.6-0.6-2.5-0.6h-58c-3.2,0-5.8,2.6-5.8,5.8v31c0,3.2,2.6,5.8,5.8,5.8h58
		c0.6,0,1.2-0.1,1.8-0.3l14.4,13.5c-0.2,0.5-0.3,1.1-0.3,1.7v21.8c0,3.2,2.6,5.8,5.8,5.8h42c3.2,0,5.8-2.6,5.8-5.8v-21.8
		c0-3.2-2.6-5.8-5.8-5.8h-42c-0.6,0-1.2,0.1-1.8,0.3l-14.4-13.5c0.2-0.5,0.3-1.1,0.3-1.7v-31c0-0.4,0-0.8-0.1-1.1l19.2-6l-0.1-0.5
		c0.8,0.4,1.6,0.6,2.5,0.6h68c3.2,0,5.8-2.6,5.8-5.8v-35.7c0-3.2-2.6-5.8-5.8-5.8h-55.9l23.3-22.2c0.6,0.2,1.1,0.3,1.8,0.3h59.3
		c1,0,1.9-0.3,2.7-0.7l-0.1,0.6l40,9.9c-0.1,0.3-0.1,0.7-0.1,1V250c0,3.2,2.6,5.8,5.8,5.8h42c0.5,0,0.9-0.1,1.3-0.2l7.9,18.3
		l0.2-0.1c-0.3,0.7-0.4,1.4-0.4,2.2v21.8c0,3.2,2.6,5.8,5.8,5.8h42c0.5,0,1-0.1,1.5-0.2l4.6,7.1c-0.2,0.6-0.3,1.2-0.3,1.8V348
		c0,3.2,2.6,5.8,5.8,5.8h68c3.2,0,5.8-2.6,5.8-5.8v-35.7c0-3.2-2.6-5.8-5.8-5.8h-68c-0.5,0-1,0.1-1.5,0.2l-4.6-7.1
		c0.2-0.6,0.3-1.2,0.3-1.8V276c0-0.5-0.1-1-0.2-1.5l20.6-12.1c0.6,0.2,1.2,0.3,1.9,0.3h68c3.2,0,5.8-2.6,5.8-5.8v-35.7
		C479,218.1,476.4,215.4,473.2,215.4z M188.4,145.7c0,0.3-0.2,0.5-0.5,0.5h-41c-0.3,0-0.5-0.2-0.5-0.5v-22.9c0-0.3,0.2-0.5,0.5-0.5
		h41c0.3,0,0.5,0.2,0.5,0.5V145.7z M106.7,324.7c0,0.3-0.2,0.5-0.5,0.5h-58c-0.3,0-0.5-0.2-0.5-0.5v-31c0-0.3,0.2-0.5,0.5-0.5h58
		c0.3,0,0.5,0.2,0.5,0.5V324.7z M373.3,130.2c0-0.3,0.2-0.5,0.5-0.5h68c0.3,0,0.5,0.2,0.5,0.5v35.7c0,0.3-0.2,0.5-0.5,0.5h-68
		c-0.3,0-0.5-0.2-0.5-0.5V130.2z M230.4,211.6c0,0.3-0.2,0.5-0.5,0.5h-59.3c-0.3,0-0.5-0.2-0.5-0.5v-31.3c0-0.3,0.2-0.5,0.5-0.5
		h59.3c0.3,0,0.5,0.2,0.5,0.5V211.6z M325.8,252.1l-0.2,0.1c0.3-0.7,0.4-1.4,0.4-2.2v-21.8c0-0.6-0.1-1.2-0.3-1.8l46.4-55
		c0.5,0.2,1.1,0.3,1.7,0.3h38.5l15.6,43.7h-22.8c-3.2,0-5.8,2.6-5.8,5.8v35.7c0,0.5,0.1,1,0.2,1.5l-20.6,12.1
		c-0.6-0.2-1.2-0.3-1.9-0.3h-42c-0.5,0-0.9,0.1-1.3,0.2L325.8,252.1z M377.5,297.8c0,0.3-0.2,0.5-0.5,0.5h-42
		c-0.3,0-0.5-0.2-0.5-0.5V276c0-0.3,0.2-0.5,0.5-0.5h42c0.3,0,0.5,0.2,0.5,0.5V297.8z M473.6,256.9c0,0.3-0.2,0.5-0.5,0.5h-68
		c-0.3,0-0.5-0.2-0.5-0.5v-35.7c0-0.3,0.2-0.5,0.5-0.5h68c0.3,0,0.5,0.2,0.5,0.5V256.9z"/>
</g>
</svg>
