<?xml version="1.0" encoding="utf-8"?>
<!-- Generator: Adobe Illustrator 24.1.1, SVG Export Plug-In . SVG Version: 6.00 Build 0)  -->
<svg version="1.1" id="Layer_1" xmlns="http://www.w3.org/2000/svg" xmlns:xlink="http://www.w3.org/1999/xlink" x="0px" y="0px"
	 viewBox="0 0 512 512" style="enable-background:new 0 0 512 512;" xml:space="preserve">
<style type="text/css">
	.st0{fill:#272F54;}
</style>
<path class="st0" d="M36.35,453.93c1.13-8.75,1.75-17.61,3.52-26.23c2-9.74,4.84-19.33,7.66-28.88c1.6-5.43,4.74-7.27,8.63-5.97
	c4.2,1.4,5.4,4.81,3.38,10.25c-7.05,18.95-9.61,38.65-10.25,59.04c32.12,0,64.02,0,96.61,0c0-1.4,0-2.9,0-4.4
	c0.01-16.71,0.02-33.41,0.02-50.12c0-11.58,2.39-22.69,7.15-33.21c1.26-2.79,0.96-4.47-1.37-6.08c-5.15-3.55-10.13-7.37-15.5-10.57
	c-6.09-3.63-6.63-8.48-0.92-12.65c12.68-9.25,17.36-22.96,12.41-36.39c-4.95-13.45-18.7-22.03-33.51-20.92
	c-14.5,1.09-26.79,11.55-29.4,25.69c-2.32,12.53,2.23,22.67,12.11,30.53c0.67,0.53,1.43,0.95,2.11,1.47
	c4.82,3.64,4.7,8.98-0.61,11.65c-10.56,5.32-19.13,12.82-26.22,22.2c-2.85,3.77-6.53,4.34-9.63,1.87c-2.97-2.37-3.45-6.4-0.34-9.83
	c6.76-7.45,13.89-14.56,21.16-22.1c-9.07-9.58-13.46-21.86-11.63-35.98c1.43-11.05,6.69-20.22,15.17-27.47
	c17.57-15.02,43.84-14.48,61.14,1.01c14.28,12.78,22.68,39.82,1.77,63.41c3.76,2.97,7.52,5.94,11.5,9.08
	c13.7-18.88,31.94-30.69,55.31-35.61c-9.23-6.6-16.61-13.88-21.87-23.06c-2.12-3.7-2.97-8.56-5.91-11.22
	c-2.8-2.53-7.69-2.61-11.45-4.24c-12.57-5.44-18.98-18.95-15.86-32.57c0.46-1.98,0.53-4.24,0.1-6.21
	c-5.22-23.82-7.29-47.68-1.05-71.64c4.11-15.77,11.75-29.65,23.11-41.38c2.03-2.1,2.61-3.8,1.68-6.68
	c-4.76-14.79-9.38-29.62-13.8-44.52c-2.81-9.46,2.9-18.52,12.53-19.33c3.42-0.29,7.33,1.04,10.48,2.66
	c7.2,3.71,14.07,8.05,21.23,12.22c9.12-11.48,18.08-22.77,27.04-34.05c7.47-9.39,18.11-9.44,25.6-0.06
	c8.99,11.26,17.93,22.56,27.09,34.1c7.12-4.13,14.11-8.22,21.13-12.25c6.97-4,13.05-3.83,18.31,0.46
	c5.19,4.22,6.75,10.31,4.43,17.85c-4.48,14.58-9.09,29.12-13.45,43.73c-0.42,1.41-0.06,3.76,0.89,4.76
	c20.52,21.38,28.66,47.36,27.49,76.33c-0.51,12.75-3.16,25.42-4.75,38.14c-0.22,1.78-0.33,3.69,0.08,5.4
	c4.13,17.15-6.31,32.67-23.84,35.45c-1.31,0.21-3.22,0.96-3.61,1.95c-5.57,13.92-14.58,25.05-27.53,34.16
	c23.39,4.93,41.63,16.72,55.34,35.61c3.96-3.12,7.71-6.08,11.72-9.24c-9.77-10.3-14.15-22.46-12.46-36.42
	c1.38-11.38,6.78-20.79,15.58-28.15c18.28-15.27,45.63-13.94,62.35,2.85c15.44,15.5,18.45,41.96,0.3,61.46
	c0.15,0.33,0.21,0.86,0.49,1.05c21.76,14.93,33.48,36.45,40.22,61.23c4.94,18.17,6.59,36.74,6.82,55.5c0.04,3.61-1.7,5.83-4.33,7.74
	c-144.79,0-289.58,0-434.38,0C36.35,468.21,36.35,461.07,36.35,453.93z M461.69,462.24c0.14-0.6,0.33-1,0.32-1.39
	c-0.74-20.2-3.24-40.09-10.75-59.06c-7.36-18.57-18.36-34.12-36.5-43.67c-7.58-3.99-7.91-8.58-0.93-13.67
	c7.53-5.5,12.26-12.77,13.14-22.11c1.47-15.51-8.34-29.24-23.57-33.43c-15.39-4.23-31.92,3.1-38.61,17.12
	c-6.62,13.87-2.25,29.34,10.99,38.88c6.19,4.47,5.59,9.13-1.07,13.06c-6.31,3.73-12.19,8.17-18.18,12.25
	c5.75,12.5,8.86,24.41,8.88,37.03c0.01,4.76-2.21,7.62-6.02,7.84c-3.91,0.22-6.46-2.8-6.87-7.62c-0.43-5.1-0.75-10.27-1.83-15.26
	c-6.48-29.84-33.09-53.49-63.13-56.48c-2.94-0.29-4.6,0.29-5.62,3.41c-1.87,5.68-4.41,11.13-6.38,16.78
	c-0.67,1.91-0.93,4.2-0.58,6.18c3.12,17.69,6.38,35.36,9.68,53.02c0.73,3.94,0.09,7.1-3,10.04c-6.71,6.41-13.09,13.15-19.63,19.73
	c-4.94,4.97-7.74,5-12.57,0.14c-6.54-6.59-12.9-13.35-19.63-19.74c-3.22-3.05-3.9-6.3-3.11-10.4c2.25-11.62,3.73-23.42,6.65-34.86
	c3.55-13.92,3.46-27.01-3.44-39.99c-1.87-3.53-3.38-4.74-7.22-4.19c-37.11,5.3-63.73,35.65-63.92,73.13
	c-0.08,16.42-0.02,32.84-0.02,49.26c0,1.35,0,2.69,0,3.95c9.66,0,18.6,0,27.89,0c0-1.83,0-3.38,0-4.93c0-11.71,0-23.41,0-35.12
	c0-1.28-0.05-2.58,0.1-3.85c0.43-3.69,3.13-6.22,6.46-6.16c3.62,0.07,6.25,2.86,6.29,7.23c0.11,12.56,0.05,25.13,0.05,37.69
	c0,1.67,0,3.33,0,5.2c37.59,0,74.64,0,112.21,0c0-6.74-0.01-13.27,0-19.79c0.01-7.99-0.09-15.99,0.12-23.98
	c0.1-3.74,2.91-6.3,6.25-6.34c3.33-0.04,6,2.49,6.43,6.19c0.15,1.27,0.1,2.57,0.1,3.85c0.01,11.85-0.01,23.7,0.02,35.55
	c0,1.5,0.16,2.99,0.25,4.5c9.41,0,18.34,0,27.64,0c0-1.92,0-3.61,0-5.29c0.01-7.85-0.1-15.71,0.07-23.56
	c0.09-3.95,2.98-6.66,6.47-6.62c3.54,0.03,6.1,2.74,6.3,6.73c0.08,1.57,0.03,3.14,0.03,4.71c0,7.95,0,15.9,0,24.05
	C397.85,462.24,429.75,462.24,461.69,462.24z M172.63,235.87c4.09-1.38,7.64-2.99,11.35-3.68c2.58-0.48,4.12-1.36,5.03-3.76
	c5.34-14.1,10.92-28.11,16.02-42.29c2.49-6.93,4.83-8.45,11.69-5.71c25.83,10.34,51.66,10.5,77.53,0.13
	c7.37-2.95,9.48-1.5,12.17,6.04c5.03,14.06,10.55,27.94,15.99,41.85c0.51,1.31,1.7,2.85,2.92,3.28c4.34,1.53,8.83,2.62,13.32,3.89
	c2.86-13.39,3.82-27.18,2.57-41.04c-1.82-20.22-8.97-38.23-23.48-52.82c-1.58-1.59-4.34-2.69-6.6-2.79
	c-7.69-0.34-15.41-0.04-23.12-0.19c-1.91-0.04-4.54-0.23-5.53-1.43c-1.42-1.73-2.44-4.55-2.16-6.72c0.43-3.39,3.46-4.65,6.75-4.67
	c7.57-0.05,15.13-0.1,22.7,0.02c2.18,0.04,3.33-0.58,3.98-2.75c4.38-14.45,8.9-28.87,13.26-43.33c0.35-1.17-0.12-2.6-0.21-3.9
	c-1.3,0.24-2.79,0.15-3.87,0.76c-7.81,4.44-15.53,9.04-23.3,13.55c-6.14,3.56-8.1,3.14-12.61-2.56
	c-9.22-11.63-18.43-23.27-27.66-34.89c-3.55-4.47-3.83-4.46-7.46,0.11c-9.5,11.96-18.96,23.94-28.48,35.88
	c-3.43,4.3-5.99,4.76-10.72,2.02c-7.9-4.57-15.72-9.27-23.66-13.76c-1.31-0.74-3.06-0.71-4.61-1.03c0.03,1.59-0.29,3.3,0.16,4.77
	c4.21,13.91,8.62,27.76,12.77,41.69c0.8,2.68,2.02,3.48,4.76,3.46c18.41-0.12,36.83-0.07,55.24-0.04c1.69,0,3.46,0.04,5.06,0.52
	c3.13,0.93,4.64,3.29,4.36,6.52c-0.28,3.22-2.18,5.21-5.4,5.69c-1.4,0.21-2.85,0.15-4.27,0.15c-18.98,0.01-37.97-0.08-56.95,0.12
	c-2.13,0.02-5.04,1-6.22,2.57c-5.63,7.47-11.91,14.77-15.89,23.11C167.13,187.53,168.26,211.67,172.63,235.87z M216.5,193.96
	c-1.81,5.31-3.37,10.17-5.12,14.95c-1.76,4.82-2.97,10.04-5.71,14.25c-8.4,12.94-8.72,27.1-8.37,41.78
	c0.69,28.67,22.8,53.95,50.61,57.01c30.46,3.35,58.14-15.07,64.06-44.24c2.43-11.98,1.43-24.67,1.87-37.04
	c0.04-1.02-0.82-2.07-1.27-3.11c-4.39-10.04-8.9-20.03-13.14-30.13c-1.79-4.28-3.02-8.8-4.57-13.43
	C268.68,203.52,242.82,203.6,216.5,193.96z M249,364.89c-3.02,16.72-6.01,33.11-8.9,49.53c-0.19,1.1-0.02,2.72,0.67,3.43
	c4.84,5,9.86,9.82,14.94,14.81c5.04-4.97,10.05-9.8,14.87-14.81c0.69-0.71,0.84-2.33,0.66-3.44c-1.14-7.03-2.41-14.05-3.69-21.06
	c-1.73-9.48-3.52-18.95-5.29-28.47C257.73,364.89,253.62,364.89,249,364.89z M269.47,335.7c-9.38,0-18.27,0-27.24,0
	c4.12,16.06,5.4,17.05,20.39,16.07c0.14-0.01,0.28-0.07,0.73-0.19C265.31,346.49,267.34,341.22,269.47,335.7z M326.76,245.8
	c0,9.37,0,18.65,0,27.89c6.05-0.95,10.9-6.93,11.02-13.82C337.91,253.19,333.35,247.14,326.76,245.8z M184.68,245.58
	c-7.34,2.09-11.75,8.6-11.04,15.37c0.71,6.83,5.67,12.35,11.04,12.57C184.68,264.34,184.68,255.15,184.68,245.58z"/>
<path class="st0" d="M255.73,298.46c-8.02-0.2-14.85-2.79-19.28-9.89c-2.42-3.88-1.68-7.77,1.6-9.76c3.16-1.92,6.48-0.95,9.14,2.66
	c4.02,5.46,12.92,5.51,16.91,0.09c2.81-3.81,6.26-4.75,9.45-2.57c3.16,2.15,3.6,5.89,1.18,9.86
	C271.11,294.8,263.92,298.44,255.73,298.46z"/>
<path class="st0" d="M230.78,251.53c0,2.28,0.1,4.56-0.02,6.83c-0.21,4.16-3.03,6.99-6.65,6.85c-3.53-0.14-6.05-2.83-6.14-6.86
	c-0.11-4.55-0.11-9.11,0-13.66c0.1-4.11,2.51-6.65,6.15-6.75c3.82-0.11,6.43,2.48,6.65,6.75
	C230.87,246.97,230.78,249.25,230.78,251.53z"/>
<path class="st0" d="M293.39,251.44c0,2.56,0.14,5.13-0.03,7.68c-0.25,3.67-2.51,5.82-6.03,6.01c-3.57,0.19-6.26-1.87-6.54-5.41
	c-0.42-5.37-0.42-10.82-0.04-16.2c0.25-3.49,2.68-5.57,6.4-5.56c3.48,0,6.01,2.49,6.23,6.23c0.14,2.41,0.03,4.84,0.03,7.26
	C293.4,251.44,293.4,251.44,293.39,251.44z"/>
</svg>
