<?xml version="1.0" encoding="utf-8"?>
<!-- Generator: Adobe Illustrator 24.1.1, SVG Export Plug-In . SVG Version: 6.00 Build 0)  -->
<svg version="1.1" id="Layer_1" xmlns="http://www.w3.org/2000/svg" xmlns:xlink="http://www.w3.org/1999/xlink" x="0px" y="0px"
	 viewBox="0 0 506.4 512" style="enable-background:new 0 0 506.4 512;" xml:space="preserve">
<style type="text/css">
	.st0{fill:#272F54;}
</style>
<g>
	<path class="st0" d="M438.6,280.4c-78.4,0-156.8,0-235.3,0c-45.7,0-91.3,0-137,0c-11.6,0-20.3,7.7-20.9,18.3
		c-0.7,11.6,6.2,20.2,18.1,21.5c7.4,0.8,15,0.3,22.4,0.3c3.2,0,6.4,0,10,0c0,3.6,0,6.2,0,8.8c0,39.9,0,79.8,0,119.7
		c0,7.9,5,13,11.9,13c7.2,0,11.9-5,11.9-12.9c0-34.8-0.1-69.7-0.2-104.5c0-7.9,0-15.9,0-24.5l0,0c6.5-0.1,226.9,0,257.4,0
		c0,16.6,0,39.2,0,54.7c0,24,0,48.1,0.1,72.1c0,7.3,5.1,12.5,11.9,12.5c6.7,0,11.6-5.3,11.8-12.7c0.1-2.3,0-4.5,0-6.8
		c0-38,0-76-0.1-113.9c0-4.3,0.8-6,5.8-5.8c11.7,0.5,23.3,0.3,35,0.1c8.9-0.2,16.4-6,18.7-14.1C464.4,292,454.7,280.4,438.6,280.4z"
		/>
	<path class="st0" d="M340.1,265.6c6.8-8.5,12.5-15.7,18.4-22.8c2.1-2.5,2.6-4.4,0.3-7.2c-4.2-5.2-8.1-10.8-12.4-16.6
		c-8.4,12.5-16.7,24.1-20.1,38.2c-0.9,3.8-2.4,5.4-6.6,5.4c-23.2-0.2-46.3-0.2-69.5,0c-3.6,0-5.3-1.1-5.9-4.8
		c-0.6-3.4-1.7-6.8-3.4-9.8c-5.4-9.5-11.2-18.8-17.3-28.9c-4.7,6.3-9.2,12.2-13.4,18.3c-0.6,0.9,0,3.3,0.8,4.4
		c4.8,6.4,9.9,12.6,14.9,18.8c1,1.3,2,2.7,3.5,4.9c-10.2,0-19.5,0.1-28.8-0.1c-1.2,0-2.7-1.4-3.6-2.6c-4.2-5.1-8.4-10.3-12.4-15.5
		c-4-5.2-4.1-10.2-0.3-15.4c11.7-16,23.4-32,35.3-48c4.1-5.5,9.8-6.1,15.2-2c30.3,22.9,62.1,22,94.9,6.1c3.8-1.8,7.5-3.7,10.9-6.2
		c3.8-2.7,6.8-1.6,9,1.4c12.5,16.5,24.9,33.2,37,49.9c3.2,4.4,2.5,9.3-0.8,13.6c-3.7,4.8-7.8,9.4-11.3,14.4
		c-2.5,3.6-5.5,4.6-9.7,4.5C357,265.4,349.3,265.6,340.1,265.6z"/>
	<path class="st0" d="M320.2,174.6c-21.7,12.4-52.1,11.9-68.2-0.4c8.3-3,12.9-9.1,16.3-17.2c-6.5-2.3-12.8-4.2-18.9-6.6
		c-19.4-7.4-21.7-10.6-20.5-31.1c0.7-13.3,3.2-26.3,9.3-38.3c6.6-12.9,16.3-21.1,31.8-20.4c1.9,0.1,4-1,5.8-1.8
		c9.9-4.6,20.1-7.9,31.3-5.5c8,1.7,14.3,5.4,18.4,13.1c7.7,14.3,15,28.8,17,45.1c0.6,5.1,0.4,10.4-0.3,15.5
		c-0.9,7.1-4.7,12.6-11.2,16c-9.7,5-19.3,10.1-29.2,15.2C305.2,166.2,311.5,171.4,320.2,174.6z"/>
	<path class="st0" d="M107.6,266.2c-14.6,0-29.3,0-43.9,0c-12.2,0-20-7.7-20-19.9c-0.1-24.7-0.1-49.5,0-74.2
		c0-12.9,7.6-20.3,20.6-20.3c29.3,0,58.5,0,87.8,0c12.9,0,20.5,7.5,20.5,20.4c0,24.6,0,49.1,0,73.7c0,12.9-7.6,20.3-20.6,20.4
		C137.3,266.2,122.4,266.2,107.6,266.2z M108,254.5C108,254.5,108,254.5,108,254.5c14.8,0,29.6,0,44.4-0.1c6.4,0,8.5-2.1,8.5-8.3
		c0.1-24.7,0.1-49.4,0-74.2c0-6.3-2.3-8.7-8.4-8.7c-29.1-0.1-58.2-0.1-87.2,0c-8.2,0-9.8,1.7-9.9,9.8c-0.1,24.2-0.1,48.4,0,72.6
		c0,6.7,2.1,8.7,8.7,8.8C78.7,254.5,93.4,254.5,108,254.5z"/>
	<path class="st0" d="M133.2,238.3c-0.1,5.1-2.3,8.1-6.8,9.2c-4.6,1.1-8.8-1.3-10.6-6.3c-3.7-10.5-7.2-21-10.7-31.6
		c-1.9-5.6-4-11.1-5.7-16.8c-1.6-5.2,0.8-9.6,5.6-11.3c4.5-1.6,9.4,0.8,11.2,5.8c5.6,15.9,10.9,31.9,16.4,47.8
		C133,236.4,133.1,237.6,133.2,238.3z"/>
	<path class="st0" d="M102.6,242.6c-0.5,4.6-2.4,7.8-6.9,9c-4.5,1.1-8.5-0.9-10.3-5.7c-3.4-9.3-6.5-18.7-9.7-28
		c-2.4-6.9-4.8-13.8-7-20.7c-1.6-5.2,0.7-9.9,5.4-11.4c4.6-1.5,9.4,0.7,11.2,5.8c5.7,16.2,11.1,32.5,16.7,48.8
		C102.2,241.1,102.4,241.9,102.6,242.6z"/>
</g>
</svg>
