<?xml version="1.0" encoding="utf-8"?>
<!-- Generator: Adobe Illustrator 24.1.1, SVG Export Plug-In . SVG Version: 6.00 Build 0)  -->
<svg version="1.1" id="Layer_1" xmlns="http://www.w3.org/2000/svg" xmlns:xlink="http://www.w3.org/1999/xlink" x="0px" y="0px"
	 viewBox="0 0 512 512" style="enable-background:new 0 0 512 512;" xml:space="preserve">
<style type="text/css">
	.st0{fill:#272F54;}
</style>
<path class="st0" d="M51.32,140.25c1.48-2.92,2.59-6.11,4.5-8.71c4.47-6.09,10.76-8.8,18.3-8.8c53.35,0.02,106.69,0.01,160.04,0.01
	c12.9,0,25.81-0.06,38.71,0.05c2.61,0.02,3.84-0.49,4.66-3.36c11.96-41.99,50.22-69.45,94.11-67.72
	c41.72,1.64,77.8,32.59,86.62,74.33c11.12,52.6-26.45,104.79-79.85,110.91c-46.39,5.32-87.99-22.4-101.02-67.38
	c-0.52-1.78-0.84-3.1-3.23-3.09c-21.15,0.09-42.3,0.07-63.45,0.09c-0.37,0-0.73,0.2-1.51,0.42c0,9.1,0.08,18.24-0.05,27.37
	c-0.04,2.9-0.24,5.9-1.02,8.66c-2.98,10.57-13.28,16.97-24.35,15.41c-10.17-1.44-18.13-10.47-18.3-21.06
	c-0.16-9.97-0.11-19.95-0.16-29.92c0-0.11-0.1-0.23-0.3-0.64c-6.54,0-13.23,0-20.41,0c0,6.92,0.04,13.79-0.01,20.65
	c-0.03,4.12,0.2,8.29-0.38,12.34c-1.74,12.02-11.57,19.63-23.72,18.73c-10.97-0.81-19.55-10.26-19.66-21.85
	c-0.09-9.83-0.02-19.67-0.02-30.17c-2.34,0-4.53,0-6.72,0c-6.52,0-13.04,0.02-19.56,0c-11.24-0.04-18.88-5.57-22.45-16.19
	c-0.16-0.47-0.5-0.87-0.76-1.3C51.32,146.11,51.32,143.18,51.32,140.25z M177.21,134.72c-9.71,0-19.42,0-29.13,0
	c-24.35,0-48.69,0.02-73.04-0.02c-4.42-0.01-8.17,1.12-10.44,5.22c-3.77,6.82,1.04,14.47,9.33,14.59
	c10.24,0.15,20.49,0.03,30.73,0.04c6.22,0.01,8.11,1.88,8.12,8.04c0.02,11.17-0.05,22.35,0.03,33.52
	c0.05,6.94,5.18,11.43,11.62,10.39c4.87-0.79,8.09-4.89,8.14-10.76c0.09-11.31,0-22.61,0.04-33.92c0.02-5.22,2.04-7.24,7.23-7.26
	c9.84-0.04,19.69-0.03,29.53-0.01c6.13,0.01,8.03,1.93,8.04,8.15c0.02,11.17-0.05,22.35,0.03,33.52
	c0.05,6.66,4.66,10.92,10.91,10.34c5.3-0.49,8.75-4.62,8.81-10.94c0.1-11.04,0.01-22.08,0.04-33.12c0.02-6.06,1.85-7.94,7.76-7.95
	c24.88-0.02,49.75-0.01,74.63,0c5.45,0,6.96,1.29,8.09,6.68c8.93,42.7,50.83,71.22,93.04,63.33c44.06-8.23,73.2-48.69,66.47-92.3
	c-5.85-37.91-38.66-67.33-76.52-68.6c-39.95-1.35-74.48,25.23-82.88,63.79c-1.37,6.29-2.52,7.25-8.82,7.25
	C245.06,134.73,211.14,134.72,177.21,134.72z"/>
<path class="st0" d="M51.32,360.58c1.86-3.26,4.69-4.17,8.36-4.12c11.97,0.17,23.95,0.14,35.92-0.02c1.82-0.02,3.83-0.81,5.42-1.78
	c8.04-4.93,15.89-10.14,23.96-15.02c4.06-2.45,7.49-1.62,9.3,1.67c1.79,3.26,0.41,6.32-3.55,8.83c-8.52,5.4-16.89,11.04-25.47,16.35
	c-1.91,1.18-4.41,1.91-6.65,1.95c-11.56,0.19-23.13,0.09-35,0.09c0,22.31,0,44.45,0,67.23c1.29,0,2.68,0.04,4.07-0.01
	c33.09-1.22,65.84,3.12,98.67,5.96c24.64,2.13,49.25,4.69,73.91,6.45c20.2,1.44,39.53-3.51,57.63-11.89
	c21.31-9.87,41.95-21.17,62.88-31.85c1.18-0.6,2.32-1.33,3.55-1.79c3.08-1.15,5.53-0.07,7.15,2.63c1.56,2.61,1.01,5.11-1.1,7.25
	c-0.46,0.47-1.03,0.85-1.61,1.17c-24.69,13.53-48.95,27.92-75.61,37.47c-11.92,4.27-24.09,7.51-36.76,8.58
	c-0.77,0.07-1.52,0.41-2.28,0.63c-5.86,0-11.71,0-17.57,0c-4.33-0.52-8.64-1.15-12.98-1.55c-25.65-2.34-51.29-4.72-76.95-6.89
	c-23.27-1.96-46.47-5.04-69.92-4.17c-5.84,0.22-11.69-0.11-17.53,0.08c-3.58,0.12-6.18-1.09-7.86-4.24
	C51.32,415.93,51.32,388.26,51.32,360.58z"/>
<path class="st0" d="M343.08,308.15c2.85-1.52,5.53-2.95,8.2-4.39c15.18-8.17,29.04-1.81,32.7,15.59c4.54-2.34,8.77-5.07,13.39-6.76
	c4.12-1.51,8.78-2.98,12.98-2.51c10.55,1.17,16.23,8.12,18.1,18.14c3.89-0.24,7.73-1.01,11.43-0.6
	c10.34,1.16,17.74,8.33,19.81,18.51c1.9,9.32-2.44,19.06-11.22,24.02c-12.15,6.86-24.47,13.42-36.72,20.1
	c-6.77,3.69-13.51,7.42-20.31,11.05c-4.01,2.15-7.62,1.35-9.29-1.87c-1.67-3.23-0.31-6.51,3.77-8.74
	c18.43-10.07,36.88-20.1,55.3-30.17c5.26-2.88,7.68-7.45,6.69-12.37c-1.5-7.46-9.48-10.97-16.55-7.13
	c-8.76,4.76-17.36,9.8-26.15,14.5c-15.47,8.25-30.63,17.23-46.63,24.3c-33.38,14.75-68.47,18.67-104.61,13.76
	c-12.12-1.64-24.29-2.91-36.44-4.34c-0.66-0.08-1.32-0.16-1.98-0.26c-3.45-0.54-5.76-2.41-5.78-6c-0.02-3.58,2.2-5.58,5.7-6.04
	c9.36-1.22,18.73-2.4,28.09-3.58c23.88-3.01,47.76-5.97,71.62-9.04c6.05-0.78,9.53-4.04,10.14-9.03c0.6-4.85-1.76-9.3-6.22-10.86
	c-2.07-0.72-4.43-0.85-6.65-0.85c-24.75-0.06-49.5,0-74.25-0.09c-2.46-0.01-5.04-0.47-7.37-1.29c-25.08-8.8-50.35-10.41-75.94-2.38
	c-0.38,0.12-0.76,0.24-1.14,0.35c-3.93,1.09-7.12-0.23-8.22-3.41c-1.22-3.51,0.4-6.94,4.53-7.93c9.03-2.16,18.08-4.6,27.26-5.61
	c18.76-2.06,37.11,0.68,55,6.72c1.59,0.54,3.92,0.09,5.48-0.73c24.06-12.49,47.98-25.26,72.12-37.58c4.08-2.08,9.11-3.45,13.64-3.3
	c9.24,0.3,16.23,6.95,18.55,16.04C342.42,305.52,342.71,306.66,343.08,308.15z M268.4,382.37c-0.07,0.14-0.13,0.28-0.2,0.41
	c0.65,0.1,1.29,0.23,1.94,0.28c22.27,1.69,44.04-1.1,65.41-7.39c27.88-8.2,51.83-24.37,76.93-38.17c1.84-1.01,3.08-3.92,3.67-6.19
	c0.83-3.19-0.67-6.02-3.38-7.95c-3.29-2.34-6.67-2.02-10.14-0.19c-20.91,11.06-41.85,22.04-62.71,33.18
	c-1.42,0.76-2.75,2.43-3.3,3.97c-3.14,8.83-9.11,14.3-18.42,15.59C301.62,378.2,285,380.23,268.4,382.37z M261.18,330.64
	c0.1,0.31,0.19,0.61,0.29,0.92c12.45,0,24.89,0.03,37.34-0.05c1.11-0.01,2.29-0.6,3.32-1.15c7.72-4.13,15.43-8.27,23.08-12.52
	c1.46-0.81,2.88-1.97,3.87-3.31c2.51-3.38,2.2-7.92-0.44-11.05c-2.98-3.53-7.24-4.36-11.87-1.97c-13.78,7.13-27.5,14.37-41.25,21.58
	C270.74,325.58,265.97,328.12,261.18,330.64z M336.78,344.34c9.38-4.95,19.36-10.17,29.29-15.47c5.32-2.84,7.11-7.65,4.69-12.19
	c-2.43-4.55-7.41-5.78-12.67-2.97c-8.42,4.49-16.79,9.08-25.18,13.63c-3.11,1.69-6.2,3.42-8.85,4.88
	C328.23,336.19,332.25,340.03,336.78,344.34z"/>
<path class="st0" d="M308.9,144.73c0.21-40.04,39.79-68.03,77.54-54.7c1,0.35,2,0.73,2.96,1.17c3.59,1.68,4.97,4.48,3.82,7.67
	c-1.22,3.38-4.23,4.52-8.17,3.53c-5.38-1.35-10.79-3.29-16.25-3.5c-26.95-1.01-48.2,20.27-47.64,47.19
	c0.55,26.03,23.2,46.54,49.69,44.31c17.54-1.48,30.55-10.63,37.9-26.64c7.42-16.18,5.45-31.86-4.77-46.42
	c-3.57-5.08-3.91-8.31-0.71-10.77c3.31-2.55,6.46-1.5,10.2,3.42c14.35,18.84,15.42,45.29,2.66,65.55
	c-12.83,20.39-37.21,30.82-60.69,25.98c-23.41-4.82-41.81-23.92-45.5-47.3C309.43,151.08,309.24,147.9,308.9,144.73z"/>
</svg>
