<?xml version="1.0" encoding="utf-8"?>
<!-- Generator: Adobe Illustrator 24.1.1, SVG Export Plug-In . SVG Version: 6.00 Build 0)  -->
<svg version="1.1" id="Layer_1" xmlns="http://www.w3.org/2000/svg" xmlns:xlink="http://www.w3.org/1999/xlink" x="0px" y="0px"
	 viewBox="0 0 512 512" style="enable-background:new 0 0 512 512;" xml:space="preserve">
<style type="text/css">
	.st0{fill:#272F54;}
</style>
<g>
	<path class="st0" d="M237.05,463.31c-1.38-2.46-3.43-4.78-4.01-7.42c-1.64-7.5-2.8-15.11-3.87-22.71
		c-0.32-2.24-1.48-2.96-3.22-3.99c-5.18-3.08-9.36-2.58-13.95,1.54c-4.59,4.12-9.96,7.37-15.04,10.93
		c-4.4,3.09-6.54,2.92-10.26-0.78c-6.99-6.94-13.96-13.91-20.9-20.9c-3.85-3.88-4-6.03-0.74-10.59c4.46-6.26,8.89-12.55,13.5-18.7
		c1.48-1.98,1.24-3.49,0.63-5.79c-1.56-5.81-4.96-8.02-10.84-8.43c-6.43-0.44-12.77-2.01-19.16-3.02c-3.96-0.63-5.95-2.94-5.97-6.88
		c-0.04-10.39-0.07-20.78,0.01-31.17c0.04-4.55,2.05-6.47,7.01-7.25c7.59-1.2,15.16-2.5,22.76-3.62c2.39-0.35,3.33-1.63,4.55-3.69
		c3.08-5.22,2.14-9.18-1.71-13.57c-3.89-4.44-7.24-9.42-10.37-14.45c-1.47-2.37-2.6-5.4-2.64-8.15
		c-0.23-18.35-0.23-36.71-0.03-55.06c0.05-4.13-1.23-5.47-5.31-5.25c-4.73,0.26-7.34-2.25-7.24-6.15c0.1-3.7,2.66-5.8,7.21-5.91
		c11.84-0.28,17.39,5.15,17.4,17.04c0.01,14.01,0,28.02,0,43.37c3.65-3.64,6.52-6.5,9.39-9.37c6.88-6.88,7.55-6.93,15.58-1.16
		c5.48,3.93,10.93,7.91,16.47,11.75c0.98,0.68,2.35,0.78,3.54,1.15c0.36-1.2,1.02-2.41,1.03-3.61c0.07-14.98,0.14-29.96,0.02-44.94
		c-0.25-32.99-26.1-58.93-59.16-59.34c-12.95-0.16-25.91-0.02-38.87-0.03c-7.45-0.01-8.99-1.55-9-8.97c0-1.45,0-2.91,0-5.38
		c-16.77,12.57-32.85,24.63-49.28,36.96c16.46,12.34,32.47,24.35,49.29,36.97c0-3.29-0.08-5.65,0.02-8c0.16-4,2.31-6.19,6.3-6.4
		c2.15-0.12,4.32-0.07,6.48-0.02c4.27,0.1,6.82,2.17,7.07,5.65c0.25,3.51-1.98,5.84-6.21,6.5c-0.39,0.06-0.77,0.15-1.53,0.29
		c0,4.26,0.41,8.61-0.16,12.83c-0.32,2.36-1.74,5.43-3.61,6.45c-1.65,0.9-5.15,0.12-6.91-1.17c-21.28-15.7-42.39-31.62-63.51-47.51
		c-1.26-0.95-2.3-2.18-3.44-3.29c0-1.35,0-2.7,0-4.05c1.59-1.62,3.01-3.47,4.8-4.82c20.24-15.27,40.55-30.46,60.83-45.68
		c2.51-1.88,4.95-3.93,8.41-2.23c3.57,1.75,3.65,4.98,3.61,8.31c-0.05,3.62-0.01,7.24-0.01,11.42c1.87,0,3.43-0.01,4.99,0
		c12.27,0.14,24.59-0.32,36.81,0.55c21.08,1.49,37.87,11.44,50.83,28c0.5,0.64,1.01,1.26,1.91,2.39c0-20.05,0-39.57,0-59.58
		c-3.99,0-8-0.04-12,0.01c-2.98,0.04-5.68-0.41-7.25-3.35c-1.59-2.97-0.37-5.4,1.43-7.8c15.64-20.81,31.24-41.65,46.88-62.46
		c4.09-5.44,7.94-5.5,11.97-0.15c15.73,20.91,31.41,41.86,47.13,62.78c1.72,2.29,3.23,5.01,1.24,7.34
		c-1.52,1.79-4.26,3.15-6.63,3.47c-4.08,0.55-8.29,0.15-12.92,0.15c0,4.07,0.04,7.81-0.01,11.54c-0.07,4.75-2.33,7.41-6.16,7.38
		c-3.85-0.03-5.94-2.61-5.97-7.49c-0.03-5.26-0.03-10.53,0-15.79c0.03-5.81,1.95-7.73,7.74-7.79c1.86-0.02,3.71,0,6.6,0
		c-12.5-16.67-24.49-32.67-36.94-49.29c-12.3,16.4-24.35,32.46-36.99,49.32c3.45,0,5.96-0.12,8.45,0.03
		c3.65,0.21,5.62,2.28,5.89,5.92c0.09,1.21,0.04,2.43,0.04,3.64c0,37.65,0,75.29,0,112.94c0,1.48,0,2.96,0,5.5
		c3.59-4.76,8.13-3.84,12.43-3.86c7.96-0.04,15.93-0.19,23.88,0.09c2.87,0.1,5.7,1.3,8.9,2.09c0-0.37,0-1.63,0-2.9
		c0-22.13-0.01-44.26-0.01-66.39c0-1.08-0.03-2.16,0.02-3.24c0.18-3.87,2.45-6.34,5.86-6.42c3.35-0.08,6.05,2.39,6.2,6.14
		c0.19,4.58,0.06,9.17,0.07,13.76c0,1.27,0,2.55,0,2.63c4.99-4.51,10.12-9.65,15.77-14.14c12.93-10.26,27.91-14.92,44.34-15.02
		c9.98-0.06,19.97-0.01,29.96-0.01c1.45,0,2.91,0,4.85,0c0-4.5-0.39-8.69,0.15-12.76c0.31-2.39,1.59-5.14,3.34-6.72
		c2.3-2.08,5.04-0.63,7.34,1.1c21.14,15.87,42.32,31.7,63.43,47.61c4.71,3.55,4.6,7.61-0.2,11.22
		c-21.01,15.82-42.02,31.66-63.19,47.26c-1.84,1.36-5.43,2.12-7.25,1.22c-1.83-0.9-3.14-4.14-3.46-6.52
		c-0.55-4.09-0.15-8.32-0.15-12.69c-1.25-0.18-2.32-0.19-3.28-0.5c-3.06-1-4.7-3.16-4.41-6.41c0.27-3.07,2.17-5.04,5.17-5.35
		c3.07-0.32,6.23-0.35,9.29-0.01c3.35,0.37,5.26,2.56,5.35,6.04c0.06,2.39,0.01,4.79,0.01,8.25c16.72-12.53,32.72-24.51,49.32-36.94
		c-16.38-12.29-32.45-24.35-49.3-37c0,2.89,0.03,4.97-0.01,7.04c-0.08,5.24-2.08,7.28-7.41,7.31c-12.95,0.05-25.91,0-38.86,0.02
		c-31.41,0.07-55.9,21.06-60.27,52.12c-0.93,6.63-0.45,13.46-0.49,20.21c-0.06,10.66-0.05,21.32,0.04,31.98
		c0.01,1.2,0.36,2.96,1.15,3.42c0.74,0.42,2.47-0.28,3.43-0.96c6.52-4.55,12.95-9.24,19.43-13.86c3.96-2.82,6.58-2.67,10.02,0.7
		c3.73,3.66,7.36,7.42,11.65,11.76c0.15-2.08,0.3-3.21,0.3-4.35c0.02-13.36,0.27-26.72-0.07-40.07c-0.25-9.81,6.67-17.7,19.91-15.59
		c3.12,0.5,4.91,2.78,4.76,6.1c-0.17,3.5-2.24,5.37-5.61,5.79c-6.82,0.85-6.82,0.83-6.82,7.64c0,17.54,0.11,35.08-0.12,52.62
		c-0.04,2.75-1.13,5.82-2.65,8.15c-4.11,6.33-8.64,12.39-13.15,18.44c-1.37,1.84-1.21,3.27-0.63,5.44
		c1.57,5.91,5.15,8.19,11.08,8.61c6.02,0.43,11.98,1.84,17.96,2.83c5.3,0.88,7,2.78,7.02,8.08c0.04,9.85,0.04,19.7,0,29.55
		c-0.02,4.96-1.62,6.89-6.39,7.73c-7.83,1.36-15.67,2.76-23.54,3.86c-2.39,0.33-3.15,1.54-4.29,3.42c-3.22,5.28-2.22,9.4,1.69,13.9
		c4.05,4.67,7.37,9.97,10.95,15.04c2.91,4.11,2.76,6.48-0.72,9.99c-7.12,7.19-14.27,14.35-21.47,21.47
		c-3.36,3.32-5.75,3.48-9.66,0.71c-6.49-4.6-12.98-9.2-19.36-13.96c-1.85-1.38-3.27-1.17-5.43-0.61c-5.94,1.53-8.26,5.05-8.63,11.04
		c-0.36,5.75-2,11.41-2.71,17.16c-0.41,3.29-1.58,5.88-4.25,7.79C261.89,463.31,249.47,463.31,237.05,463.31z M318.26,272.31
		c-6.77,4.86-13.6,9.68-20.34,14.63c-2.83,2.07-5.53,2.18-8.67,0.68c-4-1.91-8.1-3.66-12.29-5.11c-3.61-1.25-5.46-3.39-6.01-7.22
		c-1.18-8.22-2.69-16.38-4.06-24.53c-7.75,0-15,0-22.46,0c-1.38,8.26-2.9,16.34-4.02,24.47c-0.56,4.05-2.6,6.18-6.35,7.39
		c-3.57,1.16-7.22,2.39-10.44,4.26c-4.4,2.55-7.91,1.99-11.82-1.06c-6.13-4.78-12.6-9.14-18.41-13.31
		c-5.54,5.5-10.77,10.69-16.14,16.03c4.7,6.55,9.51,13.38,14.45,20.11c2.08,2.84,2.17,5.54,0.68,8.67c-1.9,4.01-3.7,8.09-5.14,12.28
		c-1.18,3.45-3.11,5.39-6.79,5.94c-8.25,1.24-16.46,2.71-24.88,4.13c0,7.51,0,14.87,0,22.48c8.23,1.35,16.31,2.77,24.43,3.99
		c3.74,0.56,6.05,2.26,7.22,6c1.2,3.84,2.68,7.66,4.59,11.19c2.14,3.95,1.98,7.17-0.77,10.78c-4.89,6.39-9.43,13.05-13.63,18.92
		c5.56,5.57,10.76,10.77,16.13,16.15c6.37-4.58,13.19-9.4,19.92-14.35c2.83-2.08,5.52-2.16,8.66-0.63
		c3.98,1.94,8.09,3.71,12.28,5.12c3.68,1.23,5.42,3.43,5.97,7.23c1.19,8.2,2.69,16.36,4.05,24.44c7.77,0,15.03,0,22.48,0
		c1.38-8.22,2.88-16.29,4.02-24.41c0.57-4.02,2.5-6.18,6.34-7.35c3.71-1.14,7.42-2.58,10.79-4.49c4.13-2.34,7.44-1.82,11.11,0.99
		c6.28,4.81,12.83,9.28,18.72,13.49c5.55-5.53,10.76-10.73,16.14-16.09c-4.62-6.44-9.44-13.26-14.39-19.99
		c-2.08-2.83-2.18-5.54-0.67-8.67c1.81-3.75,3.6-7.57,4.82-11.53c1.33-4.3,3.8-6.33,8.3-6.91c7.96-1.02,15.85-2.56,23.69-3.88
		c0-7.79,0-15.04,0-22.51c-8.39-1.41-16.59-2.92-24.84-4.11c-3.71-0.54-5.67-2.41-6.82-5.87c-1.27-3.82-2.69-7.66-4.61-11.18
		c-2.15-3.95-1.98-7.18,0.78-10.78c4.89-6.39,9.45-13.04,14.05-19.45C328.88,282.84,323.72,277.72,318.26,272.31z"/>
	<path class="st0" d="M255.57,405.34c-30.19-0.09-54.39-24.45-54.3-54.65c0.09-30.17,24.44-54.31,54.7-54.22
		c30.08,0.08,54.27,24.61,54.09,54.83C309.89,381.27,285.53,405.43,255.57,405.34z M255.69,393.17
		c23.35-0.01,42.19-18.83,42.23-42.19c0.04-23.37-18.74-42.29-42.05-42.36c-23.54-0.07-42.49,18.86-42.43,42.38
		C213.5,374.38,232.33,393.17,255.69,393.17z"/>
	<path class="st0" d="M255.84,377.62c-14.84,0.07-26.83-11.71-26.93-26.46c-0.1-14.94,11.93-27.11,26.79-27.09
		c14.71,0.02,26.71,12.03,26.73,26.76C282.45,365.66,270.65,377.55,255.84,377.62z M255.47,365.47c8.2,0.08,14.74-6.27,14.82-14.39
		c0.08-8.13-6.35-14.76-14.42-14.87c-8.07-0.11-14.73,6.39-14.81,14.47C240.98,358.88,247.32,365.39,255.47,365.47z"/>
</g>
</svg>
