<?xml version="1.0" encoding="utf-8"?>
<!-- Generator: Adobe Illustrator 24.1.1, SVG Export Plug-In . SVG Version: 6.00 Build 0)  -->
<svg version="1.0" id="Layer_1" xmlns="http://www.w3.org/2000/svg" xmlns:xlink="http://www.w3.org/1999/xlink" x="0px" y="0px"
	 viewBox="0 0 1383.31 935.43" style="enable-background:new 0 0 1383.31 935.43;" xml:space="preserve">
<style type="text/css">
	.st0{fill:#FFFFFF;}
</style>
<g>
	<path class="st0" d="M636.02,456.28c-3.23,1.37-6.84,0.82-10.29,0.21c-2.51-0.44-10.54-2.12-11.24-1.84
		c0.16,0.63,8.68,4.02,11.88,5.35c5.04,2.09,10.2,2.12,15.41,0.54c1.47-0.44,1.34-0.85,0.55-1.97
		C640.72,456.28,639.22,454.93,636.02,456.28z"/>
	<path class="st0" d="M652.33,436.17c1.57,3.78,0.45,7.02,0,10.27c-0.51,3.63,0,6.89,3.27,9.81c-0.97-3.28,0.18-5.98,0.62-8.76
		C656.88,443.27,656.14,439.52,652.33,436.17z"/>
	<path class="st0" d="M683.79,476.97c-0.12-0.07-0.52,0.03-0.54,0.11c-0.19,0.87,0.75,1.21,1.01,1.92
		C684.63,478.18,684.59,477.44,683.79,476.97z"/>
	<path class="st0" d="M680.85,477.62c-0.28-0.09-0.66,0.07-0.6,0.37c0.17,0.75,0.86,0.98,1.49,1.29
		C682.01,478.36,681.62,477.86,680.85,477.62z"/>
	<path class="st0" d="M695.78,423.72c0.11-0.03,0.27-0.42,0.21-0.49c-0.38-0.49-0.91-0.6-1.76-0.32
		C694.55,423.71,695.09,423.89,695.78,423.72z"/>
	<path class="st0" d="M702.36,477.59c-0.77,0.25-1.16,0.75-0.89,1.66c0.63-0.31,1.32-0.54,1.49-1.29
		C703.02,477.66,702.63,477.5,702.36,477.59z"/>
	<path class="st0" d="M699.41,476.95c-0.79,0.47-0.83,1.21-0.47,2.04c0.27-0.71,1.21-1.05,1.01-1.92
		C699.93,476.99,699.53,476.88,699.41,476.95z"/>
	<path class="st0" d="M577.3,484.9c-0.27-0.11-0.67,0.05-0.62,0.31c0.14,0.76,0.7,1.2,1.51,1.62
		C578.35,485.81,578.09,485.22,577.3,484.9z"/>
	<path class="st0" d="M642.29,438.32c0.44-2.79-0.04-5.27-2.57-7.48c1.04,2.5,0.3,4.64,0,6.78c-0.33,2.4,0,4.56,2.16,6.49
		C641.25,441.94,642,440.15,642.29,438.32z"/>
	<path class="st0" d="M752.18,480.5c-0.76,0.45-0.91,1.14-0.52,2.03c0.29-0.66,1.11-1.03,1.03-1.86
		C752.69,480.6,752.29,480.44,752.18,480.5z"/>
	<path class="st0" d="M629.11,482.01c-0.11-0.06-0.5,0.09-0.51,0.17c-0.07,0.82,0.74,1.2,1.04,1.85
		C630.03,483.14,629.87,482.46,629.11,482.01z"/>
	<path class="st0" d="M580.18,484.12c-0.28-0.06-0.61,0.05-0.61,0.37c0.01,0.82,0.67,1.1,1.41,1.5
		C580.98,485.07,581.09,484.34,580.18,484.12z"/>
	<path class="st0" d="M666.04,404.57c0.98,0.5,2.39,0.18,3.76,0.2c0.03,0,0.05-0.03,0.04-0.06c-1.03-3.93-4.09-2.45-6.04-3.44
		l-0.17,0.41c-0.01,0.01,0,0.03,0.01,0.04C664.42,402.71,665.03,404.05,666.04,404.57z"/>
	<path class="st0" d="M631.03,480.65c-0.11-0.06-0.5,0.09-0.51,0.17c-0.07,0.82,0.74,1.2,1.04,1.85
		C631.95,481.79,631.79,481.1,631.03,480.65z"/>
	<path class="st0" d="M672.7,408.1c0.95-0.34,1.72,0.77,2.07,0.48c0.2-0.17-2.03-2.65-2.6-0.79
		C671.99,408.4,672.31,408.35,672.7,408.1z"/>
	<path class="st0" d="M687.09,423.24c-0.06,0.07,0.1,0.46,0.21,0.49c0.68,0.16,1.22-0.02,1.55-0.82
		C687.99,422.64,687.47,422.75,687.09,423.24z"/>
	<path class="st0" d="M727.19,402.81c-0.44-0.76-1.01-1.45-1.99-1.28c-0.88,0.15-1.43,0.71-1.56,1.71c2.56-0.42,3.23,1.11,2.12,4.48
		C727.54,407.2,728.28,404.71,727.19,402.81z"/>
	<path class="st0" d="M716.23,410.93c-0.65-0.36-1.37-0.88-2.06-0.11c-0.35,0.39-0.88,0.73-0.75,1.46c0.55,0.26,1.09-0.26,1.71-0.03
		c0.52,0.19,1.32,0.22,1.69-0.39C717.11,411.37,716.56,411.11,716.23,410.93z"/>
	<path class="st0" d="M730.78,436.08c-3.81,3.36-4.53,7.11-3.85,11.33c0.45,2.78,1.59,5.47,0.64,8.76c3.26-2.93,3.76-6.19,3.24-9.82
		C730.34,443.1,729.22,439.86,730.78,436.08z"/>
	<path class="st0" d="M749.73,440.02c-0.24-0.68-1.48-3.89,1.57-11.62c1.11-3.24,2.48-6.45,1.62-10.01
		c-0.26-0.9-0.78-2.64-1.23-3.95c-0.63-1.83,1.95-3.93-0.26-4.13c-0.76-0.07-1.45-0.37-2.04-0.73c0.56,2.34,0.8,4.68,0.65,6.76
		c-0.21,2.86-1.47,5.47-2.48,8.12C745.68,429.44,746.01,437.88,749.73,440.02z"/>
	<path class="st0" d="M757.42,456.33c-3.45,0.62-7.05,1.17-10.29-0.19c-3.21-1.35-4.7,0.01-6.31,2.31
		c-0.78,1.12-0.91,1.53,0.56,1.97c5.22,1.56,10.38,1.52,15.41-0.58c3.2-1.33,11.72-4.74,11.87-5.38
		C767.96,454.19,759.93,455.89,757.42,456.33z"/>
	<path class="st0" d="M741.24,443.98c2.15-1.94,2.48-4.09,2.14-6.49c-0.3-2.14-1.05-4.28-0.02-6.78c-2.52,2.22-2.99,4.7-2.55,7.49
		C741.11,440.03,741.87,441.81,741.24,443.98z"/>
	<path class="st0" d="M702.88,422.18c-0.62-0.14-0.54,0.18-0.27,0.55c0.41,0.92-0.64,1.78-0.32,2.1
		C702.47,425.02,704.78,422.6,702.88,422.18z"/>
	<path class="st0" d="M755.68,432.91c-0.65,2.2-1.57,4.43-0.59,7.45c1.29-3.05,3.3-5.19,2.85-8.36c0,0-0.67-1.54,0.47-3.49
		c1.14-1.95-0.05-3.04-0.05-3.04s-1.35-0.67-0.68-1.72c0.67-1.05,0.37-2.28,0.37-2.28c-0.86-3.35-3.04-2.82-3.75-2.55
		C756.5,423.34,757.15,427.96,755.68,432.91z"/>
	<path class="st0" d="M803.04,483.85c-0.92,0.22-0.8,0.95-0.8,1.88c0.75-0.4,1.4-0.69,1.41-1.5
		C803.65,483.89,803.32,483.78,803.04,483.85z"/>
	<path class="st0" d="M754.11,481.85c-0.76,0.45-0.91,1.14-0.52,2.03c0.29-0.66,1.11-1.03,1.03-1.86
		C754.61,481.95,754.21,481.79,754.11,481.85z"/>
	<path class="st0" d="M805.92,484.62c-0.79,0.32-1.05,0.91-0.89,1.93c0.81-0.42,1.37-0.86,1.51-1.62
		C806.59,484.67,806.19,484.51,805.92,484.62z"/>
	<path class="st0" d="M809.63,367.69l-5.83-7.36c-0.67-0.75-1.35-1.5-2.04-2.23l0.31,0.05l-10.33-13.04l39.08,5.94l6.4-42.08
		c-16.83-11.91-27.83-31.52-27.83-53.7c-79.86-4.28-158.3-4.45-235.14,0c0,22.21-11.02,41.83-27.88,53.74l6.39,42.04l38.65-5.88
		l-10.32,13.04l0.39-0.06c-0.9,0.96-1.78,1.93-2.65,2.92l-5.29,6.68c-21.22,26.81-32.43,59.04-32.43,93.21
		c0,82.98,67.51,150.49,150.49,150.49s150.49-67.51,150.49-150.49C842.11,426.76,830.88,394.51,809.63,367.69z M797.29,324.09
		l2.99-9.2l2.99,9.2h9.68l-7.83,5.69l2.99,9.2l-7.83-5.69l-7.83,5.69l2.99-9.2l-7.83-5.69H797.29z M772.96,402.33
		c1.22-1.06,2.71-1.17,4.23-0.87c2.16,0.43,4.28,1.09,6.45,1.38c2.63,0.36,5.24,0.32,6.07-3.07c0.19-0.78,0.66-0.58,1.11-0.25
		c0.69,0.5,1.39,0.98,2.05,1.52c2.45,2.02,2.44,2.29-0.09,4.17c-0.65,0.21-1.19,0.56-0.09,0.78c0.82,0.17,1.77,0.32,2.58-0.26
		c0.74,0.41,1.33-1.55,2.05-0.17c0.57,1.09-0.17,4.25-1.01,4.68c-0.49,0.25-1.11,0.57-1.6,0.48c-2.85-0.57-5.18,1.72-8.03,1.26
		c2.36,1.59,4.94,1.06,7.42,0.98c0.11,0.52-0.13,0.78-0.4,1.02c-4.74,4.13-13.19,5.28-17.94-2.11c-0.55-0.86-0.76-1.81-0.86-2.81
		c-0.19-1.85-0.5-3.65-2.22-4.84C771.66,403.51,772.4,402.82,772.96,402.33z M748.86,296.28l4.2-12.91l4.2,12.91h13.58l-10.99,7.98
		l4.2,12.91l-10.99-7.98l-10.99,7.98l4.2-12.91l-10.99-7.98H748.86z M720.79,384.03c1.32,0.95,2.58,2,4.09,2.66
		c3.44,1.49,6.05,0.58,7.86-2.7c0.3-0.54,0.57-1.09,1.04-2.01c0.97,3.25,2.13,6.11,5.73,6.18c2.99,0.06,5.51-1.47,7.91-3.29
		c0.57,0.9-0.12,1.37-0.5,1.85c-1.59,2-3.14,4.03-4.22,6.36c-0.38,0.81-0.79,0.99-1.64,0.76c-5.32-1.44-10.71-2.02-16.2-1.04
		c-0.7,0.12-1.36,0.23-1.59-0.83c-0.6-2.74-2.15-5.07-3.43-7.51C720.02,384.01,720.42,384.04,720.79,384.03z M685.83,285.38
		l5.82-17.92l5.82,17.92h18.85l-15.25,11.08l5.82,17.92l-15.25-11.08l-15.25,11.08l5.82-17.92l-15.25-11.08H685.83z M650.24,384.08
		c1.81,3.28,4.43,4.18,7.86,2.68c1.51-0.66,2.77-1.71,4.08-2.67c0.37,0.02,0.77-0.02,0.94,0.43c-1.28,2.44-2.82,4.78-3.41,7.52
		c-0.23,1.06-0.89,0.96-1.59,0.83c-5.49-0.96-10.87-0.37-16.19,1.08c-0.85,0.23-1.26,0.06-1.64-0.75c-1.08-2.33-2.64-4.35-4.24-6.35
		c-0.38-0.48-1.07-0.95-0.5-1.85c2.4,1.81,4.92,3.34,7.92,3.27c3.6-0.09,4.75-2.95,5.72-6.2
		C649.67,382.99,649.94,383.55,650.24,384.08z M626.05,296.28l4.2-12.91l4.2,12.91h13.58l-10.99,7.98l4.2,12.91l-10.99-7.98
		l-10.99,7.98l4.2-12.91l-10.99-7.98H626.05z M590.86,338.98l-7.83-5.69l-7.83,5.69l2.99-9.2l-7.83-5.69h9.68l2.99-9.2l2.99,9.2
		h9.68l-7.83,5.69L590.86,338.98z M585.71,405.83c0.71-1.38,1.32,0.58,2.05,0.17c0.81,0.58,1.76,0.42,2.58,0.26
		c1.11-0.23,0.56-0.58-0.09-0.78c-2.53-1.88-2.54-2.15-0.1-4.17c0.66-0.54,1.36-1.03,2.05-1.53c0.45-0.33,0.92-0.53,1.11,0.25
		c0.84,3.38,3.44,3.41,6.08,3.05c2.17-0.3,4.29-0.96,6.44-1.4c1.51-0.31,3-0.2,4.23,0.86c0.56,0.48,1.3,1.18,0.29,1.89
		c-1.72,1.2-2.03,2.99-2.21,4.84c-0.1,1.01-0.31,1.96-0.86,2.82c-4.73,7.4-13.19,6.27-17.94,2.16c-0.27-0.23-0.51-0.5-0.4-1.02
		c2.48,0.08,5.06,0.6,7.41-0.99c-2.84,0.47-5.18-1.82-8.03-1.24c-0.48,0.1-1.11-0.22-1.6-0.47
		C585.89,410.08,585.14,406.92,585.71,405.83z M582.37,486.9c-1.4,1.45-3.41,2.66-5.34,2.44c-2.82-0.32-5.41,0.86-7.79,0.57
		c-1.56,0.11-2.77,0.19-3.97,0.28c-0.66,0.05-1.25,0.04-1.64-0.67c-0.42-0.77,0.03-1.22,0.49-1.66c3.76-3.63,8.08-6.02,13.46-5.96
		c1.68,0.02,3.28,0.37,4.34,1.84C582.62,484.71,583.2,486.05,582.37,486.9z M615.9,486.65c-0.64,0.06-1.08-0.15-1.41-0.7
		c-0.3-0.51-0.19-0.94,0.2-1.34c4.18-4.2,9.03-6.85,15.16-6.1c2.36,0.29,3.71,1.97,3.62,3.99c-0.06,1.31-2.21,3.21-3.95,3.15
		c-3.24-0.12-6.4,0.5-9.6,0.71C618.58,486.45,617.24,486.53,615.9,486.65z M653.98,569.17h-32.8v-45.56h7.99v38.34h24.81V569.17z
		 M656.17,470.75c-2.31-0.45-3.98-1.97-5.41-3.6c-1.99-2.27-3.98-3.1-6.64-1.23c-0.39,0.27-0.93,0.32-1.41,0.45
		c-7.41,1.89-14.35,0.21-21.09-2.83c-2.85-1.28-5.65-2.66-8.5-3.94c-0.67-0.3-1.51-0.98-2.14-0.37c-0.47,0.45-0.04,1.35,0.13,2.03
		c0.52,2.15,1.33,4.19,2.24,6.2c0.51,1.13,0.81,1.97-0.52,3.04c-1.48,1.19-1.27,3.2-0.99,4.99c0.26,1.63,1.72,1.15,2.71,1.5
		c0.73,0.26,3.52,0.97,4.26,1.24c0.94,0.35,1.19,1.03,0.25,1.49c-2.17,1.07-3.9,1.86-4.89,3.32c-0.99,1.47-2.66,1.78-4.04,1.02
		c-2.36-1.31-4.75-2.56-7.09-3.89c-1.62-0.92-2.04-2.33-1.13-3.96c0.97-1.74,0.75-3.4-0.05-5.09c-0.73-1.56-1.77-2.91-3.03-4.07
		c-0.56-0.52-0.93-0.96-0.52-1.81c2.7-5.64,6.78-12.86,13.67-14.83c1.22-3.75-7.17,1.2-9.44,4.63c-1.65,2.48-3.35,4.93-5.02,7.4
		c-3.91,5.8-9.15,9.61-16.13,10.88c-3.3,0.6-6.62,0.77-9.96,0.77c-2.71,0-4.46,1.78-4.27,4.51c0.04,0.63,0.18,1.28,0.43,1.86
		c0.48,1.13,0.18,1.78-0.88,2.42c-2.07,1.26-3.86,2.89-5.42,4.76c-0.41,0.49-0.56,1.63-1.39,1.29c-0.87-0.36-1.27-1.38-0.96-2.37
		c1.52-4.81,0.2-9.42-0.89-14.05c-0.58-2.43,0.03-3.62,2.49-3.86c7.95-0.77,18.21-6.98,17.61-8.03c-0.79-1.38-6.67,4-8.91,2.9
		c3.89-16.46,10.81-18.08,10.56-18.36c-0.61-0.69-3.82,0.78-7.01,5.91c-0.19-2.09-1.34-2.72-2.79-3.2c-2.02-0.66-4.01-1.44-5.82-2.6
		c-2.8-1.79-4.9-4.13-5.42-7.54c-1.12-7.25,2.17-13.56,8.69-16.97c4.62-2.42,9.43-2.74,14.48-1.76c6.82,1.32,13.55,3.25,20.59,3.25
		c2.88,0,5.68-0.41,8.27-1.68c5.24-2.56,7.02-8.17,4.02-12.6c-0.44-0.65-1-1.23-1.63-1.98c0.46-0.03,0.68-0.1,0.86-0.05
		c0.34,0.1,0.7,0.21,0.97,0.42c3.58,2.68,5.03,6.42,5.13,10.73c0.08,3.61-2,5.97-5.01,7.56c-4.12,2.18-8.61,2.86-13.2,2.73
		c-6.38-0.19-12.71-1.32-19.12-1.07c-3.49,0.13-6.97,0.36-10.08,2.2c-2.63,1.55-3.56,4.07-2.7,6.94c0.77,2.57,3.15,4.24,6,4.19
		c2.09-0.04,4.05-0.71,6-1.38c4.1-1.4,8.19-2.69,12.64-2.65c6.61,0.07,13.2,0.53,19.79,0.81c4.06,0.18,7.65-0.47,10.14-4.07
		c0.08-0.12,0.33-0.11,0.56-0.19c-0.45,3.17,1.58,5.31,2.87,8.35c0.97-3.02,0.05-5.25-0.61-7.45c-1.66-5.53-0.69-10.66,2.16-15.54
		c0.58,0.05,0.4,0.59,0.58,0.9c-0.91,3.61,0.49,6.85,1.62,10.12c3.08,7.72,1.84,10.93,1.6,11.61c3.72-2.15,4.03-10.59,2.12-15.57
		c-1.01-2.65-2.28-5.26-2.5-8.12c-0.48-6.36,1.94-11.54,6.82-15.03c-3.03,6.82-2.69,14.03,0.08,20.82c1.51,3.71,3.25,7.33,5,10.93
		c3.61,7.02,2.46,15.88,2.46,15.88s7.32-10.26,0.67-26.63c-1.68-3.98-3.51-7.89-5.28-11.82c-1.2-2.67-1.86-6.86-1.91-9.88
		c0.13-0.08,0.24-0.17,0.37-0.25c2.27-1.34,4.6-2.2,6.97-2.64c-2.24-0.22-4.58-0.05-7.12,0.31c-0.04,0.01-0.07-0.05-0.04-0.08
		c2.1-2.15,4.35-3.19,6.71-3.86c5.27-1.49,10.29-0.82,15,2.09c0.7,0.43,1.69,0.6,2.52,0.55c3.48-0.19,6.4,1.74,7.19,5.11
		c0.27,1.17,0.68,1.68,1.9,1.95c4.23,0.92,7.55,5.49,6.1,9.89c-0.01,0.03-0.04,0.04-0.07,0.03c-1.44-0.92-2.85-2.35-4.49-2.68
		c-1.37-0.28-2.87,0.14-4.36,0.46c2.76,1.79,4.89,4.03,4.89,4.03c-4.33-2.01-7.43-2.11-9.17-1.9c-3.83,2.85-9.15,9.12-4.13,20.17
		c1.64,3.69,3.64,7.23,4.58,11.21c1.11,4.69,0.43,9.02-2.44,12.94c-0.5,0.68-0.82,1.5-1.97,0.79c-1.02-0.63-1.4,0.12-1.44,1.05
		c-0.04,1.08,0.21,2.12,0.59,3.12c1.51,3.97,4.51,8.25,7.75,11.05c1.02,0.88,1.28,1.48,0.2,2.52c-1.22,1.18-3.25,1.75-4.2,3.15
		c-1.02,1.49-1.9,1.39-3.04,0.26c-2.28-2.28-4-4.96-5.67-7.69C657.12,471.76,656.97,470.91,656.17,470.75z M713.55,453.05
		c-6.46-3.64-14.14-7.51-19.99-11.23c-0.71-0.45-0.91-0.8,0.01-1.32c1.52-0.87,2.61-2.14,3.17-3.84c0.4-1.21,1.13-1.36,2.32-0.86
		c4.72,1.97,11.21,3.89,16.46,4.85C713.35,444.38,712.95,448.38,713.55,453.05z M702.01,474.6c5.28-0.04,9.59,2.17,13.31,5.73
		c0.48,0.46,1.17,0.89,0.78,1.78c-0.42,0.95-1.23,0.78-2.01,0.73c-1.06-0.07-2.12-0.14-3.55-0.24c-2.43,0.28-5.09-0.92-7.97-0.57
		c-1.93,0.24-3.96-0.9-5.25-2.38c-0.81-0.93-0.34-2.48,0.63-3.5C699.04,475.02,700.45,474.62,702.01,474.6z M698.05,430.64
		c-0.88,3.29-2.66,6.11-4.96,8.59c-0.16,0.17-0.31,0.36-0.48,0.55c-0.03,0.05-0.1,0.09-0.14,0.14c-0.1,0.1-0.2,0.19-0.31,0.26
		c-0.02,0.01-0.03,0.03-0.05,0.05c-0.04,0.02-0.06,0.01-0.1,0.02c-0.14,0.07-0.29,0.1-0.45,0.1c-0.17,0-0.32-0.03-0.45-0.09
		c-0.04-0.02-0.06,0-0.1-0.02c-0.03-0.01-0.03-0.03-0.05-0.05c-0.11-0.07-0.21-0.16-0.31-0.26c-0.04-0.05-0.11-0.09-0.14-0.14
		c-0.16-0.19-0.32-0.38-0.48-0.55c-2.31-2.48-4.09-5.29-4.98-8.58c-0.55-2.06-0.87-4.18-0.26-6.31c0.62-2.15,2.14-3.35,3.96-3.18
		c0.91,0.09,2.28,1.51,2.79,2.88c0.51-1.37,1.87-2.8,2.78-2.89c1.82-0.17,3.34,1.02,3.97,3.17
		C698.91,426.45,698.6,428.58,698.05,430.64z M686.37,436.66c0.57,1.7,1.66,2.97,3.18,3.84c0.91,0.52,0.72,0.87,0.01,1.32
		c-5.84,3.73-13.51,7.63-19.96,11.28c0.59-4.66,0.18-8.66-2-12.4c5.25-0.97,11.74-2.91,16.45-4.89
		C685.24,435.31,685.97,435.45,686.37,436.66z M685.89,479.67c-1.29,1.49-3.31,2.63-5.24,2.4c-2.88-0.34-5.53,0.86-7.97,0.59
		c-1.43,0.1-2.49,0.18-3.55,0.25c-0.77,0.05-1.58,0.23-2.01-0.72c-0.4-0.89,0.29-1.32,0.77-1.78c3.71-3.57,8.02-5.79,13.3-5.77
		c1.55,0.01,2.97,0.4,4.06,1.54C686.22,477.19,686.69,478.73,685.89,479.67z M692.46,569.17h-32.8v-45.56h7.99v38.34h24.81V569.17z
		 M725.52,530.83h-14.89v38.34h-8.06v-38.34h-14.89v-7.22h37.83V530.83z M739.34,558.28c2.86,3.01,6.61,4.51,11.25,4.51
		c5.93,0,10.44-2.17,13.53-6.51l6.19,5.09c-4.77,5.76-11.39,8.64-19.85,8.64c-7.13,0-12.86-2.15-17.17-6.44
		c-4.32-4.3-6.48-10.08-6.48-17.34c0-7.26,2.15-12.99,6.44-17.17c4.29-4.19,10.03-6.28,17.21-6.28c8.42,0,15.04,2.9,19.85,8.7
		l-6.19,5.09c-3.14-4.38-7.65-6.57-13.53-6.57c-4.68,0-8.44,1.46-11.28,4.38s-4.25,6.87-4.25,11.86
		C735.05,551.26,736.48,555.28,739.34,558.28z M749.75,482.36c-0.1-2.02,1.25-3.71,3.61-4c6.14-0.77,10.98,1.87,15.18,6.06
		c0.39,0.39,0.5,0.82,0.2,1.34c-0.32,0.55-0.77,0.76-1.4,0.71c-1.34-0.12-2.68-0.19-4.03-0.28c-3.2-0.2-6.36-0.81-9.6-0.68
		C751.97,485.57,749.81,483.67,749.75,482.36z M819.6,489.22c-0.39,0.71-0.97,0.72-1.63,0.67c-1.2-0.09-2.41-0.17-3.97-0.27
		c-2.38,0.29-4.97-0.88-7.79-0.55c-1.93,0.22-3.94-0.99-5.34-2.43c-0.83-0.85-0.25-2.2,0.44-3.15c1.06-1.47,2.66-1.82,4.34-1.85
		c5.39-0.07,9.71,2.31,13.48,5.93C819.57,488,820.03,488.45,819.6,489.22z M824.3,486.22c0.31,0.98-0.08,2-0.95,2.37
		c-0.83,0.35-0.98-0.79-1.39-1.28c-1.57-1.87-3.36-3.49-5.43-4.75c-1.07-0.65-1.37-1.29-0.89-2.42c0.24-0.58,0.38-1.23,0.42-1.86
		c0.19-2.72-1.56-4.51-4.28-4.5c-3.34,0.01-6.66-0.15-9.97-0.75c-6.98-1.25-12.23-5.05-16.15-10.84c-1.67-2.47-3.38-4.91-5.04-7.39
		c-2.28-3.42-10.68-8.35-9.45-4.61c6.89,1.95,10.99,9.17,13.71,14.8c0.41,0.85,0.04,1.29-0.52,1.81c-1.26,1.17-2.29,2.52-3.02,4.08
		c-0.79,1.69-1.01,3.35-0.04,5.09c0.91,1.63,0.49,3.04-1.12,3.96c-2.34,1.34-4.73,2.6-7.08,3.91c-1.37,0.77-3.04,0.46-4.04-1.01
		c-0.99-1.46-2.72-2.24-4.9-3.31c-0.94-0.46-0.69-1.14,0.25-1.5c0.73-0.27,3.52-0.98,4.25-1.25c0.98-0.36,2.45,0.12,2.7-1.51
		c0.28-1.79,0.48-3.81-1-4.99c-1.33-1.07-1.04-1.9-0.53-3.04c0.91-2.01,1.71-4.06,2.23-6.2c0.17-0.69,0.59-1.58,0.12-2.03
		c-0.63-0.61-1.47,0.08-2.14,0.38c-2.85,1.28-5.65,2.67-8.49,3.96c-6.74,3.06-13.67,4.76-21.09,2.88c-0.48-0.12-1.03-0.17-1.42-0.44
		c-2.67-1.86-4.66-1.02-6.64,1.25c-1.43,1.63-3.09,3.16-5.4,3.62c-0.79,0.16-0.94,1.01-1.3,1.59c-1.66,2.73-3.37,5.42-5.65,7.71
		c-1.14,1.14-2.02,1.24-3.04-0.25c-0.96-1.4-2.98-1.97-4.21-3.14c-1.08-1.04-0.82-1.64,0.19-2.53c3.23-2.81,6.22-7.09,7.72-11.07
		c0.38-1,0.62-2.05,0.58-3.12c-0.04-0.93-0.42-1.67-1.44-1.04c-1.15,0.71-1.47-0.1-1.97-0.78c-2.88-3.92-3.58-8.24-2.48-12.94
		c0.93-3.98,2.92-7.53,4.56-11.22c0.83-1.88,1.72-3.74,2.16-5.77c0.12-0.55,0.25-1.12,0.26-1.68l-0.02-0.72
		c0.1-0.29-0.28-1.74-0.51-1.94c-1.02-0.94-1.9-1.02-2.02-0.99c-1.45,0.38-2.54,1.19-3.98,1.62c-1.39,0.41-2.92,0.75-3.92,1.8
		c-0.55,0.57-1.1,1.14-1.65,1.71c-1.41,1.46-3.06,1.88-5.01,1.25c-1.17-0.38-1.77-1-3.06-1.36c-0.9-0.16-1.46-1.33-2.07-2.14
		c-1.44-1.92-1.32-3.33,0.53-4.89c1.21-1.02,2.5-1.94,3.76-2.9c0.76-0.59,1.32-1.31,1.63-2.24c0.36-1.08,1.14-1.88,1.98-2.61
		c0.32-0.28,0.64-0.57,0.96-0.86c0.6-0.54,0.93-1.21,0.83-2.02c-0.12-0.91,0.27-1.58,0.92-2.12c0.63-0.52,1.33-0.97,1.93-1.39
		c-0.45-0.57-0.93-1.2-1.47-1.9c-0.73,0.26-1.31,0.84-1.7,1.65c-0.35-0.61-0.3-1.29,0.18-2.43c-0.86-0.03-1.61-0.3-2.2-0.94
		c-0.4-0.44-0.67-0.92-0.74-1.53c-0.09-0.8-0.42-1.03-1.2-0.87c-1.78,0.36-2.78-0.4-2.92-2.22c-0.04-0.53-0.21-0.64-0.74-0.53
		c-2,0.41-2.83-0.41-3.19-1.78c-0.25-0.95-0.78-1.41-1.78-1.42c-0.89-0.01-1.78-0.15-2.52-0.72c-0.67-0.52-1.19-1.12-1.34-2
		c-0.08-0.49-0.41-0.68-1.02-0.6c-0.99,0.12-1.81-0.23-2.55-0.83c-0.35-0.28-0.54-0.64-0.56-1.11c-0.04-0.78-0.27-0.94-1.03-0.79
		c-0.93,0.19-1.59-0.23-1.81-1.15c-0.03-0.14-0.08-0.3-0.06-0.44c0.14-0.9-0.46-1.39-1.06-1.85c-1.2-0.93-2.42-1.83-3.61-2.78
		c-0.49-0.39-0.89-0.87-1.35-1.29c-0.1-0.09-0.24-0.17-0.37-0.17c-1.94-2.3,1.35,0.04,1.35,0.04c-0.01,0.04,2.49,1.37,3.78,1.96
		c0.87,0.39,1.78,0.69,2.65,1.07c0.53,0.23,0.91,0.64,0.98,1.27c0.06,0.45,0.35,0.7,0.8,0.73c0.23,0.02,0.46,0,0.69-0.01
		c1.09-0.06,2.07,0.56,2.35,1.51c0.07,0.22,0.09,0.45,0.13,0.68c0.07,0.37,0.31,0.49,0.65,0.44c0.26-0.04,0.52-0.11,0.78-0.15
		c1.61-0.23,2.64,0.55,2.72,2.07c0.06,1.13,0.34,1.34,1.47,1.1c0.1-0.02,0.19-0.05,0.29-0.07c1.79-0.39,3.31,0.62,3.63,2.39
		c0.12,0.63,0.39,0.85,1.03,0.76c0.31-0.04,0.61-0.15,0.92-0.17c1.29-0.09,2.6,1.01,2.84,2.35c0.06,0.32,0.11,0.65,0.23,0.96
		c0.21,0.57,0.56,0.69,1.14,0.49c0.34-0.12,0.69-0.24,1.05-0.27c1.32-0.11,2.01,0.54,2.02,1.83c0.01,0.81,0.35,1.07,1.13,0.85
		c0.18-0.05,0.36-0.12,0.59-0.2c-0.85-1.81-1.83-3.53-1.78-5.69c1.05,1,1.76,2.18,2.97,2.95c0.23-1.25,0.37-2.45,1.12-3.46
		c0.76-1.02,2.5-1.65,3.2-1.32c-1.42,1.09-2.43,2.41-2.5,4.29c0.98-1.32,1.98-2.59,3.51-3.31c1.56-0.74,3.17-0.75,4.95-0.3
		c-0.45,0.17-0.78,0.27-1.09,0.4c-0.32,0.13-0.64,0.26-0.94,0.43c-0.82,0.47-0.93,0.94-0.43,1.75c0.34,0.55,0.66,1.11,0.99,1.66
		c1.34-2.91,3.93-3.91,7-4.08c-0.45,0.27-0.93,0.47-1.37,0.74c-0.43,0.26-0.87,0.55-1.23,0.9c-0.37,0.36-0.58,0.85-0.54,1.32
		c1.08-0.43,2.11-0.96,3.21-1.27c2.54-0.72,5.05-0.63,7.17,1.13c0.83,0.69,1.56,0.79,2.55,0.72c0.27-0.02,0.57-0.16,0.8-0.03
		c1.45,0.82,1.73,3.28,1.73,3.28c-0.04,3.01-0.69,7.21-1.89,9.88c-1.76,3.94-3.59,7.86-5.25,11.84
		c-6.61,16.38,0.73,26.62,0.73,26.62s-1.17-8.85,2.42-15.88c1.74-3.61,3.47-7.23,4.98-10.95c2.76-6.8,2.31-17.76-0.74-24.57
		c1.31,0.33,2.46,1.07,3.33,2.42c0.01,0.02,0.06,0.02,0.1,0.03c0.46-0.25,0.9-0.55,1.39-0.74c0.75-0.28,1.51-0.6,2.3-0.7
		c1.56-0.2,2.96,0.3,4.17,1.31c1.42,1.17,3.46,0.88,4.58-0.19c0.58-0.56,1.15-1.14,1.71-1.72c0.14-0.14,0.24-0.32,0.36-0.49
		c0.07,0.06,0.15,0.12,0.22,0.17c-0.54,1.18-1.04,2.37-1.62,3.53c-0.46,0.9-1.28,1.4-2.26,1.61c-0.91,0.2-1.8,0.1-2.69-0.11
		c-1.1-0.26-2.2-0.59-3.31-0.8c-1.68-0.32-3.05,0.83-3.03,2.47c0.29-0.13,0.57-0.27,0.85-0.4c2.06-0.9,3.93-0.62,5.56,0.94
		c0.76,0.73,1.44,1.54,2.17,2.3c0.32,0.33,0.67,0.65,1.05,0.89c0.64,0.41,1.17,0.17,1.39-0.56c0.07-0.22,0.1-0.45,0.11-0.68
		c0.05-0.87-0.17-1.68-0.69-2.55c1.27,0.74,1.97,1.73,2.31,2.98c0.43,1.58-0.27,2.79-1.88,3.09c-0.85,0.16-1.73,0.13-2.6,0.16
		c-0.31,0.01-0.63-0.04-0.94-0.06c-0.31-0.03-0.61-0.06-0.91-0.1c1.29,0.54,2.59,1.03,3.78,1.72c1.91,1.11,3.25,2.72,3.49,5
		c0.12,1.17,0.09,2.37,0.03,3.56c-0.05,0.99,0.4,1.55,1.27,1.86c0.2,0.07,0.4,0.15,0.61,0.21c0.68,0.2,1.37,0.38,2.03,0.61
		c1.64,0.57,2.34,1.61,2.34,3.32c-0.01,2.21-2.01,2.78-3.75,2.16c0.19-0.1,0.32-0.18,0.46-0.24c0.24-0.1,0.5-0.16,0.74-0.27
		c0.69-0.31,0.83-0.85,0.33-1.42c-0.24-0.27-0.57-0.52-0.91-0.65c-1.28-0.49-2.63-0.53-3.97-0.56c-1.06,2.45-0.09,5.41,2.16,6.72
		c1.88,1.09,3.95,0.61,5.16-1.19c0.11-0.17,0.23-0.34,0.36-0.55c0.15,0.74-0.29,2.35-0.89,3.3c-0.71,1.13-1.67,1.79-2.87,2.04
		c1.32,0.25,2.72,0.29,4.18,0.23c6.59-0.3,13.18-0.78,19.79-0.86c4.45-0.06,8.54,1.23,12.65,2.62c1.95,0.66,3.9,1.33,6,1.36
		c2.84,0.04,5.22-1.63,5.99-4.21c0.85-2.87-0.09-5.39-2.72-6.93c-3.11-1.83-6.59-2.05-10.08-2.17c-6.41-0.23-12.74,0.92-19.12,1.12
		c-4.59,0.15-9.08-0.52-13.21-2.7c-3.01-1.58-5.1-3.94-5.02-7.55c0.09-4.31,1.53-8.06,5.11-10.75c0.27-0.21,0.63-0.32,0.97-0.42
		c0.18-0.05,0.4,0.02,0.86,0.05c-0.62,0.75-1.18,1.33-1.62,1.98c-2.99,4.43-1.2,10.05,4.06,12.59c2.6,1.26,5.4,1.67,8.28,1.66
		c7.04-0.01,13.76-1.96,20.58-3.3c5.06-0.99,9.86-0.69,14.49,1.72c6.53,3.4,9.84,9.7,8.73,16.95c-0.52,3.41-2.61,5.75-5.41,7.55
		c-1.8,1.16-3.8,1.95-5.81,2.61c-1.45,0.48-2.59,1.11-2.78,3.2c-3.2-5.13-6.42-6.59-7.03-5.89c-0.25,0.28,6.68,1.89,10.6,18.34
		c-2.23,1.1-8.13-4.26-8.91-2.88c-0.6,1.06,9.68,7.24,17.63,7.99c2.46,0.23,3.07,1.42,2.5,3.85
		C824.07,476.8,822.76,481.42,824.3,486.22z"/>
	<g>
		<path class="st0" d="M498.58,393.2c0.88-2.5,1.81-4.97,2.78-7.43c0-6.3,0.26-10.35,0.36-11.68v-59.81h6.76
			c32.54,0,59.01-26.47,59.01-59.01v-6.38l6.37-0.37c37.64-2.18,76.56-3.29,115.68-3.29c39.1,0,79.54,1.1,120.21,3.28l6.4,0.34v6.41
			c0,32.37,26.33,58.84,58.7,59l6.73,0.03l0,59.9c0.1,1.3,0.36,5.31,0.36,11.57c0.97,2.45,1.9,4.93,2.78,7.43
			c0.33-10.62-0.11-17.37-0.25-19.11v-62.67l-9.61-0.05c-30.78-0.16-55.82-25.33-55.82-56.11v-9.16l-9.14-0.49
			c-40.72-2.18-81.21-3.29-120.36-3.29c-39.18,0-78.16,1.11-115.85,3.29l-9.1,0.53v9.12c0,30.94-25.17,56.11-56.11,56.11h-9.66
			l0,62.6C498.69,375.76,498.25,382.54,498.58,393.2z"/>
		<path class="st0" d="M742.9,659.13c-14.84,11.94-30.76,23.14-47.72,33.52l-3.53,2.16l-3.53-2.16
			c-16.96-10.38-32.87-21.57-47.72-33.52c-2.32-0.6-4.62-1.25-6.91-1.93c16.38,13.6,34.09,26.27,53.12,37.92l5.04,3.09l5.04-3.09
			c19.03-11.65,36.74-24.32,53.12-37.92C747.53,657.88,745.23,658.53,742.9,659.13z"/>
	</g>
	<path class="st0" d="M767.45,617.61l-0.03,0.01c0.27,1.73,0.63,6.14,1,12.23l8.33-4.06C771.32,621.16,768.72,618.91,767.45,617.61z
		"/>
	<path class="st0" d="M845.99,326.71l-5.67,37.26l-21.81-3.32c21.86,27.59,34.93,62.45,34.93,100.3
		c0,89.23-72.6,161.83-161.83,161.83s-161.83-72.6-161.83-161.83c0-37.83,13.05-72.66,34.88-100.24l-21.4,3.26l-5.71-37.54
		c-31.44,35.97-50.5,83.05-50.5,134.58c0,113,91.6,204.6,204.6,204.6c113,0,204.6-91.6,204.6-204.6
		C896.25,409.61,877.29,362.64,845.99,326.71z M887.37,453.43c-4.58,3.43-17.52,12.91-20.36,14.66l0,0.07
		c3.15-0.24,6.66-0.3,11.04-0.37l9.55-0.15l0.06,3.8l-24.73,0.4l-0.08-4.88c8.33-6.03,16.88-12.89,19.5-14.37l0-0.07
		c-3.07,0.27-7.14,0.31-11.17,0.37l-8.55,0.14l-0.06-3.8l24.73-0.4L887.37,453.43z M885.59,433.58l-21.1,3.18l1.38,9.16l-3.36,0.51
		l-3.37-22.36l3.36-0.51l1.38,9.14l21.1-3.18L885.59,433.58z M877.5,398.76c-0.93,0.67-2.64,1.16-4.76,1.79l-0.79,0.23
		c-3.23,0.96-3.94,2.53-2.75,6.52l1.82,6.11l9.96-2.97l1.16,3.89l-23.7,7.06l-3.49-11.7c-1.49-5-0.11-8.92,4.06-10.17
		c2.91-0.87,5.34,0.05,6.92,2.6c0-1.55,0.46-4.12,4.63-5.37l1.08-0.32c1.77-0.53,3.73-1.1,4.67-1.7L877.5,398.76z M850.76,397.31
		l-8.18-17.64l3.08-1.43l6.46,13.93l6.07-2.81l-6.14-13.23l3.08-1.43l6.14,13.23l7.14-3.31l-6.79-14.63l3.3-0.95l8.29,17.86
		L850.76,397.31z M517.81,370.43l22.37,10.55l-1.74,3.68l-19.29-9.09l-6.25,13.26l-2.83-1.99L517.81,370.43z M503.93,403.25
		c2.37-7.71,9.29-10.75,16.22-8.63c6.55,2.01,10.75,8.64,8.39,16.33c-2.37,7.72-9.53,10.68-16.07,8.68
		C505.82,417.59,501.45,411.34,503.93,403.25z M496.66,441.63c5.04-2.71,19.23-10.18,22.3-11.49l0.01-0.07
		c-3.15-0.23-6.63-0.69-10.97-1.26l-9.47-1.26l0.5-3.77l24.52,3.26l-0.64,4.83c-9.13,4.73-18.6,10.25-21.4,11.33l-0.01,0.07
		c3.07,0.18,7.11,0.75,11.1,1.28l8.48,1.13l-0.5,3.77l-24.51-3.26L496.66,441.63z M495.61,455.65l24.72-0.67l0.28,10.4
		c0.22,8.07-4.91,12.84-11.61,13.02c-7.92,0.21-12.92-5.29-13.11-12.43L495.61,455.65z M498.81,498.14
		c-1.52-7.92,3.17-13.85,10.29-15.21c6.72-1.29,13.54,2.59,15.06,10.49c1.52,7.93-3.42,13.9-10.13,15.19
		C507.19,509.92,500.41,506.45,498.81,498.14z M510.35,535.46c3.18-4.76,12.22-18.01,14.32-20.6l-0.02-0.07
		c-2.89,1.28-6.18,2.5-10.28,4.02l-8.96,3.33l-1.32-3.56l23.18-8.61l1.7,4.57c-5.85,8.46-11.63,17.77-13.6,20.04l0.02,0.07
		c2.8-1.28,6.63-2.67,10.41-4.07l8.01-2.98l1.32,3.56l-23.18,8.61L510.35,535.46z M530.72,573.08l-9.59-15.4l21-13.08l2.15,3.46
		l-18.1,11.28l7.75,12.45L530.72,573.08z M546.95,593.39l-12.49-15.22l19.12-15.69l12.34,15.03l-2.62,2.15l-9.74-11.87l-5.17,4.24
		l9.25,11.28l-2.62,2.15l-9.25-11.28l-6.08,4.99l10.23,12.46L546.95,593.39z M566.96,612.27l2.43-7.3l-8.71-7.87l-6.91,3.26
		l-3.15-2.84l24.35-11.34l3.76,3.39l-8.47,25.68L566.96,612.27z M595.4,624.9l-0.62,0.93c-1.02,1.54-2.17,3.23-2.5,4.29l-3.49-2.32
		c0.28-1.11,1.29-2.58,2.51-4.42l0.46-0.68c1.87-2.81,1.41-4.47-2.05-6.77l-5.31-3.53l-5.75,8.65l-3.38-2.25l13.7-20.6l10.17,6.76
		c4.35,2.89,5.8,6.78,3.38,10.41c-1.68,2.53-4.14,3.37-6.98,2.43C596.51,619,597.81,621.27,595.4,624.9z M616.15,641.88
		c-1.11-5.62-4.08-21.38-4.43-24.7l-0.06-0.03c-1.14,2.94-2.61,6.13-4.43,10.11l-3.99,8.69l-3.45-1.58l10.32-22.48l4.43,2.04
		c1.84,10.12,4.33,20.79,4.54,23.79l0.06,0.03c1.08-2.88,2.81-6.58,4.49-10.24l3.57-7.77l3.45,1.58l-10.32,22.48L616.15,641.88z
		 M632.57,647.78l-3.89-1.27l7.7-23.51l3.89,1.27L632.57,647.78z M663.04,655.09l-4.5-0.93c-2.35-5.22-8.79-19.91-9.88-23.06
		l-0.07-0.01c-0.45,3.13-1.16,6.56-2.04,10.85l-1.93,9.36l-3.72-0.77l4.99-24.22l4.78,0.98c4.07,9.44,8.91,19.28,9.78,22.15
		l0.07,0.01c0.4-3.05,1.25-7.04,2.07-10.98l1.72-8.37l3.72,0.77L663.04,655.09z M684.39,653.94c4.93,0.19,7.71-2.22,7.88-6.63
		l0.03-0.66l-7.54-0.29l0.13-3.33l11.49,0.45l-0.53,13.67l-3.07-0.12c-0.1-0.6-0.18-2.35-0.17-3.4c-1.72,2.41-4.2,3.75-9,3.57
		c-7.85-0.31-12.34-5.71-12.05-13.28c0.28-7.26,5.4-12.78,13.78-12.45c7.52,0.29,10.6,4.32,11.31,7.98l-4.18-0.16
		c-0.76-2.09-2.65-4.37-7.28-4.55c-5.92-0.23-9.09,3.83-9.3,9.13C675.67,649.46,678.57,653.71,684.39,653.94z M725.34,653.96
		l-4.06,0.66l-3.42-21.06l-9.14,1.49l-0.54-3.35l22.32-3.63l0.55,3.35l-9.12,1.48L725.34,653.96z M756,646.13
		c-0.68-0.92-1.19-2.63-1.84-4.73l-0.24-0.78c-1-3.22-2.57-3.91-6.55-2.68l-6.09,1.89l3.08,9.92l-3.88,1.2l-7.33-23.62l11.66-3.62
		c4.98-1.55,8.92-0.22,10.21,3.94c0.9,2.9,0.01,5.34-2.52,6.95c1.55-0.02,4.13,0.41,5.42,4.57l0.33,1.07
		c0.55,1.77,1.14,3.72,1.75,4.65L756,646.13z M785.25,633.29l-5.86-4.98l-10.55,5.14l0.44,7.63l-3.82,1.86l-1.42-26.82l4.55-2.22
		l20.66,17.45L785.25,633.29z M793.73,628.17l-13.13-20.96l3.47-2.17L797.2,626L793.73,628.17z M818.74,610.16
		c-5.51-1.54-20.92-6.01-24.03-7.2l-0.05,0.04c2.11,2.35,4.29,5.09,7.02,8.52l5.95,7.48l-2.97,2.36l-15.4-19.35l3.82-3.04
		c9.86,2.93,20.51,5.52,23.27,6.69l0.05-0.04c-2.09-2.26-4.6-5.48-7.11-8.63l-5.32-6.69l2.97-2.37l15.39,19.35L818.74,610.16z
		 M828.52,601.08l-17.47-17.5l2.9-2.89l17.47,17.5L828.52,601.08z M848.88,577.96c-5.72-0.28-21.74-1.21-25.04-1.67l-0.04,0.05
		c2.58,1.82,5.32,4.01,8.74,6.75l7.46,5.97l-2.37,2.97l-19.32-15.45l3.05-3.81c10.26,0.66,21.23,0.82,24.19,1.35l0.04-0.05
		c-2.54-1.74-5.7-4.32-8.85-6.83l-6.68-5.34l2.37-2.97l19.32,15.45L848.88,577.96z M867,548.76c-0.58-0.19-2.18-0.9-3.11-1.39
		c1.36,2.63,1.43,5.45-0.91,9.64c-3.84,6.85-10.69,8.41-17.31,4.71c-6.34-3.55-8.93-10.62-4.84-17.93
		c3.68-6.57,8.66-7.48,12.25-6.46l-2.04,3.65c-2.21-0.27-5.1,0.38-7.36,4.42c-2.89,5.17-0.72,9.84,3.92,12.44
		c4.88,2.73,9.99,2.08,12.84-3c2.41-4.3,1.53-7.87-2.33-10.03l-0.57-0.32l-3.69,6.58l-2.91-1.63l5.62-10.04l11.94,6.69L867,548.76z
		 M879.82,517.31c-2.42,8-9.28,10.54-15.99,8.51c-6.71-2.03-10.96-8.43-8.62-16.18c2.1-6.93,6.86-9.1,11.03-8.79l-1.21,4
		c-2.48,0.23-5.28,1.29-6.64,5.81c-1.57,5.19,1.37,9.41,6.55,10.98c5.13,1.55,10.16-0.18,11.77-5.48c1.27-4.2,0.02-6.45-2.25-8.44
		l1.2-3.95C879.35,506.29,881.91,510.4,879.82,517.31z M884.03,498.91l-24.46-3.62l2.85-19.24l3.36,0.5l-2.25,15.19l6.62,0.98
		l2.14-14.43l3.36,0.5l-2.14,14.43l7.78,1.15l2.36-15.95l3.28,1.01L884.03,498.91z"/>
	<path class="st0" d="M598.86,613.29c1.4-2.1,0.65-4.15-2.28-6.1l-6.05-4.02l-4.34,6.53l5.96,3.96
		C595.18,615.67,597.34,615.57,598.86,613.29z"/>
	<path class="st0" d="M563.86,595.38l6.88,6.21c2.27-6.77,3.38-10.02,4.12-11.69l-0.03-0.02
		C573.32,590.77,569.37,592.76,563.86,595.38z"/>
	<path class="st0" d="M508.76,474.07c5.45-0.15,8.65-3.62,8.53-9.18l-0.16-5.73l-18.11,0.49l0.15,5.51
		C499.34,471.3,503.2,474.22,508.76,474.07z"/>
	<path class="st0" d="M744.93,627.08l-6.94,2.15l2.32,7.48l6.83-2.12c3.47-1.08,4.76-2.82,3.95-5.44
		C750.35,626.76,748.29,626.04,744.93,627.08z"/>
	<path class="st0" d="M520.83,493.86c-1.04-5.44-5.95-7.64-10.83-6.7c-5.07,0.97-8.96,4.81-7.87,10.52
		c1.09,5.69,6.05,7.65,11.01,6.7C518,503.44,521.94,499.66,520.83,493.86z"/>
	<path class="st0" d="M860.47,403.47c-2.42,0.72-3.15,2.78-2.15,6.14l2.08,6.96l7.51-2.24l-2.04-6.86
		C864.82,403.99,863.09,402.69,860.47,403.47z"/>
	<path class="st0" d="M854.54,319.26c7.51,8.63,14.29,17.79,20.28,27.39v-25.62c-7.8-0.04-15.27-1.44-22.2-3.97L854.54,319.26z"/>
	<path class="st0" d="M529.02,318.97l1.51-1.73c-6.9,2.45-14.32,3.8-22.05,3.8v25.62C514.55,336.95,521.4,327.68,529.02,318.97z"/>
	<path class="st0" d="M513.67,415.48c4.73,1.45,9.99-0.04,11.72-5.69c1.63-5.3-1.67-9.54-6.43-11c-4.94-1.52-10.18,0.05-11.88,5.61
		C505.38,409.94,508.85,414,513.67,415.48z"/>
</g>
</svg>
