<?xml version="1.0" encoding="utf-8"?>
<!-- Generator: Adobe Illustrator 24.1.1, SVG Export Plug-In . SVG Version: 6.00 Build 0)  -->
<svg version="1.0" id="Layer_1" xmlns="http://www.w3.org/2000/svg" xmlns:xlink="http://www.w3.org/1999/xlink" x="0px" y="0px"
	 viewBox="0 0 295.33 278.67" style="enable-background:new 0 0 295.33 278.67;" xml:space="preserve">
<style type="text/css">
	.st0{fill:#FFFFFF;}
	.st1{fill:url(#SVGID_1_);}
	.st2{fill:url(#SVGID_2_);}
	.st3{fill:url(#SVGID_3_);}
	.st4{fill:url(#SVGID_4_);}
	.st5{fill:url(#SVGID_5_);}
	.st6{fill:#A22531;}
</style>
<g>
	<g>
		<path class="st0" d="M157.57,172c-3.1-6.99-7.97-14.03-4.79-22.25c-6.64,7.37-2.06,14.59,1.78,22.09L157.57,172z"/>
		<path class="st0" d="M157.54,187.96c0,0.01,0,0.01-0.01,0.02C157.54,187.97,157.54,187.96,157.54,187.96
			C157.55,187.96,157.54,187.96,157.54,187.96z"/>
	</g>
	<path class="st0" d="M129.26,171.02c0.36-0.04,0.72-0.08,1.08-0.12c1.04-8.89,17.58-14.46,8.73-24.3
		C142.73,156.94,127.12,162.03,129.26,171.02z"/>
	<g>
		<path class="st0" d="M139.56,170.57c1.08,0.01,2.11,0.01,2.89,0c3-7.41,6.11-14.6-0.82-20.96
			C145.28,156.9,141.99,163.84,139.56,170.57z"/>
	</g>
	<path class="st0" d="M146.66,186.28l-2.85,0.04c-1.08,6.62-2.3,13.13,2.51,15.8C143.36,198.64,145.54,192.32,146.66,186.28z"/>
	<g>
		<path class="st0" d="M151.44,171.51c-2.39-5.84-4.08-12.26-1.85-21.06c-4.39,8.36-4.12,14.69-2.26,20.42
			C148.77,171.09,150.34,171.34,151.44,171.51z"/>
		<path class="st0" d="M153.67,187.63c1.4,4.33,3.01,9.39,1.65,15.14c2.36-5.81,2.74-10.56,2.11-14.82
			C156.73,187.95,154.77,187.64,153.67,187.63z"/>
	</g>
	<linearGradient id="SVGID_1_" gradientUnits="userSpaceOnUse" x1="77.7008" y1="182.4513" x2="120.0611" y2="160.8107">
		<stop  offset="5.586592e-03" style="stop-color:#BEBEBE"/>
		<stop  offset="0.0866" style="stop-color:#FFFFFF"/>
		<stop  offset="0.1592" style="stop-color:#BEBEBE"/>
		<stop  offset="0.2989" style="stop-color:#FFFFFF"/>
		<stop  offset="0.433" style="stop-color:#BEBEBE"/>
		<stop  offset="0.5" style="stop-color:#FDFDFD"/>
		<stop  offset="0.5782" style="stop-color:#BEBEBE"/>
		<stop  offset="0.6844" style="stop-color:#FFFFFF"/>
		<stop  offset="0.7877" style="stop-color:#BEBEBE"/>
		<stop  offset="0.9022" style="stop-color:#FFFFFF"/>
		<stop  offset="1" style="stop-color:#BEBEBE"/>
	</linearGradient>
	<path class="st1" d="M72.83,173.96c6.32,3.6,17.19-10.54,23.13-6.58c0.56,0.37,0.99,0.59,1.18,0.89l7.38,11.47
		c-0.19-0.3-0.57-0.6-1.18-0.89c-3.33-1.6-18.26,11.67-23.06,6.84L72.83,173.96z"/>
	<path class="st0" d="M91.52,173.9c0.4,1.69,1.23,3.11,4.85,3.05c1.16-0.02,2.58-0.22,4.29-0.53c-1.7-2.74-3.24-5.44-4.62-8.09
		c-5.39-2.65-17.16,10.49-22.15,7.3l5.78,9.12c3.27,2.5,8.8-0.46,13.66-3.32L91.52,173.9z"/>
	<linearGradient id="SVGID_2_" gradientUnits="userSpaceOnUse" x1="104.3607" y1="170.921" x2="67.8608" y2="190.4746">
		<stop  offset="5.586592e-03" style="stop-color:#BEBEBE"/>
		<stop  offset="0.0866" style="stop-color:#FFFFFF"/>
		<stop  offset="0.1592" style="stop-color:#BEBEBE"/>
		<stop  offset="0.2989" style="stop-color:#FFFFFF"/>
		<stop  offset="0.433" style="stop-color:#BEBEBE"/>
		<stop  offset="0.5" style="stop-color:#FDFDFD"/>
		<stop  offset="0.5782" style="stop-color:#BEBEBE"/>
		<stop  offset="0.6844" style="stop-color:#FFFFFF"/>
		<stop  offset="0.7877" style="stop-color:#BEBEBE"/>
		<stop  offset="0.9022" style="stop-color:#FFFFFF"/>
		<stop  offset="1" style="stop-color:#BEBEBE"/>
	</linearGradient>
	<path class="st2" d="M104.3,176.59l-9.83,4.59l-2.95-7.28c-0.19-0.56,0.63-1.44,2.41-2.23c2.9-1.28,5.98-2.19,5.4-3.69
		L104.3,176.59z"/>
	<linearGradient id="SVGID_3_" gradientUnits="userSpaceOnUse" x1="217.7482" y1="182.3967" x2="180.0346" y2="163.6932">
		<stop  offset="5.586592e-03" style="stop-color:#BEBEBE"/>
		<stop  offset="0.0866" style="stop-color:#FFFFFF"/>
		<stop  offset="0.1592" style="stop-color:#BEBEBE"/>
		<stop  offset="0.2989" style="stop-color:#FFFFFF"/>
		<stop  offset="0.433" style="stop-color:#BEBEBE"/>
		<stop  offset="0.5" style="stop-color:#FDFDFD"/>
		<stop  offset="0.5782" style="stop-color:#BEBEBE"/>
		<stop  offset="0.6844" style="stop-color:#FFFFFF"/>
		<stop  offset="0.7877" style="stop-color:#BEBEBE"/>
		<stop  offset="0.9022" style="stop-color:#FFFFFF"/>
		<stop  offset="1" style="stop-color:#BEBEBE"/>
	</linearGradient>
	<path class="st3" d="M222.48,174.08c-6.07,3.6-17.1-10.67-23.04-6.71c-0.56,0.37-0.99,0.59-1.18,0.89l-7.38,11.47
		c0.19-0.3,0.57-0.6,1.18-0.89c3.33-1.6,18.57,11.67,23.12,6.84L222.48,174.08z"/>
	<path class="st0" d="M199.27,168.36c-1.35,2.6-2.87,5.25-4.53,7.93c1.67,0.3,3.06,0.5,4.21,0.52c3.62,0.07,5.11-1.54,5.43-2.92
		l-1.82,7.82c4.73,2.77,10.01,5.45,13.17,3.03l5.78-9.12C216.49,178.83,204.62,165.51,199.27,168.36z"/>
	<linearGradient id="SVGID_4_" gradientUnits="userSpaceOnUse" x1="193.6996" y1="174.1582" x2="258.5056" y2="219.2245">
		<stop  offset="5.586592e-03" style="stop-color:#BEBEBE"/>
		<stop  offset="0.0866" style="stop-color:#FFFFFF"/>
		<stop  offset="0.1592" style="stop-color:#BEBEBE"/>
		<stop  offset="0.2989" style="stop-color:#FFFFFF"/>
		<stop  offset="0.433" style="stop-color:#BEBEBE"/>
		<stop  offset="0.5" style="stop-color:#FDFDFD"/>
		<stop  offset="0.5782" style="stop-color:#BEBEBE"/>
		<stop  offset="0.6844" style="stop-color:#FFFFFF"/>
		<stop  offset="0.7877" style="stop-color:#BEBEBE"/>
		<stop  offset="0.9022" style="stop-color:#FFFFFF"/>
		<stop  offset="1" style="stop-color:#BEBEBE"/>
	</linearGradient>
	<path class="st4" d="M191.55,180.56l8.59,6.51l4.24-13.18c0.2-0.56-0.54-1.34-2.31-2.15c-2.88-1.33-5.94-2.3-5.34-3.79
		L191.55,180.56z"/>
	<path class="st0" d="M206.78,150.66c6.9-20.85,5.91-36.72,5.78-38.42V91.52l-2.71-0.01c-10.75-0.06-19.5-8.85-19.5-19.59v-2.58
		c-13.67-3.31-27.9-4.94-42.59-4.94c-14.65,0-29.03,1.66-42.67,4.96v2.57c0,10.81-8.79,19.6-19.6,19.6h-2.73v20.73
		c-0.13,1.7-1.13,17.56,5.78,38.42c6.59,19.88,21.94,48.18,57.69,70.06l1.42,0.87l1.42-0.87
		C184.84,198.84,200.19,170.54,206.78,150.66z M147.66,214.87c-33.04-20.76-47.38-47.14-53.59-65.74
		c-6.86-20.54-5.6-36.36-5.59-36.51l0.01-0.13V97.06c11.76-1.39,21.07-10.88,22.21-22.72c12.11-2.61,24.56-3.94,37.06-3.94
		c12.45,0,24.88,1.32,36.98,3.94c1.13,11.77,10.4,21.25,22.09,22.7l0,15.44l0.01,0.13c0.01,0.16,1.27,15.98-5.59,36.51
		C195.04,167.73,180.71,194.11,147.66,214.87z"/>
	<path class="st0" d="M189.72,126.99c-2.46,9.99-11.48,17.4-22.23,17.4c-0.37,0-0.73-0.01-1.09-0.03c-0.15-0.01-0.31-0.02-0.46-0.03
		c1.68-0.93,6.18-1.36,7.84-8.57c-2.64,5.55-8.54,6.18-13.16,7.57c-3.89,1.18-8.19,2.54-11.11,6.44c0,0-0.09-3.52,6.02-8.76
		c1.09-0.94,2.38-1.93,3.9-2.97c2.4-1.64,5.39-3.38,9.09-5.2c1.69,0.4,3.45,0.61,5.25,0.61
		C179.98,133.46,185.6,130.99,189.72,126.99z"/>
	<path class="st0" d="M190.88,107.36c0,2.57-0.57,5-1.58,7.18c-2.66,5.73-8.38,9.74-15.07,9.91c0.6-1.53,1.04-3.13,1.3-4.8
		c4.76-2.89,8.12-7.86,8.8-13.65c0.09-0.72,0.13-1.45,0.13-2.19c0-2.13-0.36-4.18-1.02-6.08c-0.84-2.42-2.17-4.62-3.88-6.47
		c6.11,2.19,10.61,7.76,11.25,14.46C190.86,106.26,190.88,106.81,190.88,107.36z"/>
	<path class="st0" d="M192.62,113.72c0,3.21-0.82,6.23-2.26,8.87c-3.14,5.75-9.24,9.65-16.26,9.65c-1.53,0-3.01-0.18-4.42-0.53
		c1.6-1.72,2.93-3.68,3.95-5.82c0.05,0,0.1,0,0.16,0c6.87,0,12.87-3.75,16.07-9.31c1.2-2.09,2.01-4.44,2.31-6.95
		C192.46,110.94,192.62,112.31,192.62,113.72z"/>
	<path class="st0" d="M183.05,103.81c0,0.3-0.01,0.59-0.02,0.88c-0.28,5.44-3.09,10.2-7.28,13.13c0.04-0.57,0.06-1.14,0.06-1.72
		c0-2.42-0.37-4.74-1.07-6.93c1.86-2.2,3.03-4.99,3.2-8.05c0.01-0.25,0.02-0.5,0.02-0.76c0-1.74-0.32-3.41-0.92-4.94
		c-0.77-1.99-2-3.76-3.55-5.17c-0.53-0.48-1.09-0.92-1.69-1.31c-0.55-0.37-1.13-0.69-1.74-0.97c-1.53-0.71-3.21-1.15-4.99-1.25
		c0.29-0.01,0.59-0.02,0.88-0.02c2.08,0,4.07,0.37,5.91,1.05c0.82,0.3,1.62,0.67,2.38,1.09c0.87,0.48,1.69,1.04,2.45,1.66
		c2.06,1.67,3.73,3.8,4.84,6.25C182.51,98.91,183.05,101.3,183.05,103.81z"/>
	<path class="st0" d="M171.68,117.82c-0.44,2.41-1.37,4.42-2.6,6.15c-0.18-0.34-0.43-0.64-0.78-0.89c-0.03-0.02-0.04-0.06-0.08-0.12
		c0.52-0.5,1.06-0.99,1.39-1.62c-0.38,0.21-0.75,0.46-1.15,0.63c-0.4,0.17-0.83,0.31-1.35,0.1c0.84-0.63,1.45-1.34,1.66-2.36
		c-0.74,0.4-1.43,0.87-2.32,0.45c-0.78-0.37-1.33-0.93-1.76-1.69c0.84,0.31,1.62,0.19,2.39-0.15c-0.12-0.03-0.24-0.04-0.35-0.03
		c-0.71,0.04-1.33-0.16-1.9-0.58c-0.27-0.2-0.56-0.38-0.85-0.55c-1.02-0.63-2.08-0.77-3.18-0.22c-0.43,0.21-0.87,0.4-1.31,0.58
		c-0.12,0.05-0.25,0.06-0.38,0.08c-0.01-0.03-0.03-0.07-0.04-0.1c0.31-0.8,1.11-0.89,1.78-1.19c-0.43-0.05-0.85,0.01-1.24,0.16
		c-0.85,0.31-1.42,0.93-1.84,1.71c-0.26,0.47-0.36,0.49-0.75,0.12c-0.52-0.49-1.11-0.84-1.79-1.04c-0.11-0.03-0.29-0.04-0.36,0.03
		c-0.06,0.06-0.06,0.24-0.03,0.35c0.25,0.81,0.51,1.62,0.78,2.46c-0.21-0.04-0.4-0.08-0.6-0.1c-0.34-0.04-0.54-0.21-0.71-0.51
		c-0.11-0.19-0.35-0.33-0.56-0.45c-0.13-0.08-0.3-0.09-0.46-0.12c-0.28-0.05-0.48-0.2-0.57-0.47c-0.14-0.4-0.44-0.59-0.83-0.7
		c-0.34-0.09-0.6-0.28-0.83-0.55c-0.19-0.22-0.42-0.42-0.66-0.59c-0.6-0.43-1.21-0.84-1.81-1.26c-0.08-0.05-0.16-0.11-0.24-0.17
		c0.35,0.53,0.72,1.03,1.12,1.5c0.18,0.21,0.4,0.4,0.65,0.52c0.3,0.15,0.49,0.36,0.58,0.67c0.12,0.38,0.38,0.63,0.75,0.81
		c0.2,0.1,0.39,0.27,0.51,0.45c0.25,0.38,0.48,0.75,0.92,0.94c0.14,0.06,0.28,0.24,0.33,0.39c0.16,0.52,0.44,0.9,0.96,1.1
		c0.27,0.1,0.31,0.33,0.19,0.56c-0.14,0.27-0.25,0.56-0.36,0.84c-0.14,0.33-0.23,0.68-0.4,0.99c-0.5,0.93-1.18,1.72-1.95,2.44
		c-0.21,0.2-0.41,0.41-0.59,0.63c-0.21,0.25-0.23,0.52-0.09,0.83c0.11,0.24,0.13,0.53,0.16,0.8c0.02,0.21-0.01,0.42-0.01,0.63
		c0,0.36,0.09,0.52,0.44,0.57c0.55,0.08,1.11,0.1,1.66,0.13c0.33,0.01,0.53-0.19,0.7-0.47c0.16-0.27,0.35-0.55,0.6-0.73
		c0.71-0.5,1.51-0.84,2.39-0.83c0.98,0.01,1.59-0.47,1.99-1.31c0.07-0.15,0.16-0.3,0.26-0.5c0.03,0.09,0.05,0.12,0.05,0.14
		c0,0.08,0.01,0.16,0,0.24c-0.07,0.81-0.33,1.56-0.86,2.19c-1.03,2.13-0.59,3.43-0.39,4.26c-5.53,3.58-10.54,7.34-10.29,14.97
		C150.63,133.7,174.75,134.33,171.68,117.82z M155.95,123.05c0.03-0.7,0.48-0.99,1.43-0.9
		C157.29,122.93,156.89,123.18,155.95,123.05z M167.52,125.86c-0.06,0.07-0.13,0.13-0.19,0.2c-0.06-0.04-0.12-0.1-0.21-0.17
		C167.27,125.85,167.4,125.85,167.52,125.86z"/>
	<path class="st0" d="M156.77,146.29c-10.8,10.1,10.44,17.63,5.98,28.19C170.94,164.08,151.71,157.38,156.77,146.29z"/>
	<path class="st0" d="M105.61,126.99c2.46,9.99,11.48,17.4,22.23,17.4c0.37,0,0.73-0.01,1.09-0.03c0.15-0.01,0.31-0.02,0.46-0.03
		c-1.68-0.93-6.18-1.36-7.84-8.57c2.64,5.55,8.54,6.18,13.16,7.57c3.89,1.18,8.19,2.54,11.11,6.44c0,0,0.09-3.52-6.02-8.76
		c-1.09-0.94-2.38-1.93-3.9-2.97c-2.4-1.64-5.39-3.38-9.09-5.2c-1.69,0.4-3.45,0.61-5.25,0.61
		C115.35,133.46,109.73,130.99,105.61,126.99z"/>
	<path class="st0" d="M104.44,107.36c0,2.57,0.57,5,1.58,7.18c2.66,5.73,8.38,9.74,15.07,9.91c-0.6-1.53-1.04-3.13-1.3-4.8
		c-4.76-2.89-8.12-7.86-8.8-13.65c-0.09-0.72-0.13-1.45-0.13-2.19c0-2.13,0.36-4.18,1.02-6.08c0.84-2.42,2.17-4.62,3.88-6.47
		c-6.11,2.19-10.61,7.76-11.25,14.46C104.47,106.26,104.44,106.81,104.44,107.36z"/>
	<path class="st0" d="M102.71,113.72c0,3.21,0.82,6.23,2.26,8.87c3.14,5.75,9.24,9.65,16.26,9.65c1.53,0,3.01-0.18,4.42-0.53
		c-1.6-1.72-2.93-3.68-3.95-5.82c-0.05,0-0.1,0-0.16,0c-6.87,0-12.87-3.75-16.07-9.31c-1.2-2.09-2.01-4.44-2.31-6.95
		C102.87,110.94,102.71,112.31,102.71,113.72z"/>
	<path class="st0" d="M112.28,103.81c0,0.3,0.01,0.59,0.02,0.88c0.28,5.44,3.09,10.2,7.28,13.13c-0.04-0.57-0.06-1.14-0.06-1.72
		c0-2.42,0.37-4.74,1.07-6.93c-1.86-2.2-3.03-4.99-3.19-8.05c-0.01-0.25-0.02-0.5-0.02-0.76c0-1.74,0.32-3.41,0.92-4.94
		c0.77-1.99,2-3.76,3.55-5.17c0.53-0.48,1.09-0.92,1.69-1.31c0.55-0.37,1.13-0.69,1.74-0.97c1.53-0.71,3.21-1.15,4.99-1.25
		c-0.29-0.01-0.59-0.02-0.88-0.02c-2.08,0-4.07,0.37-5.91,1.05c-0.82,0.3-1.62,0.67-2.38,1.09c-0.87,0.48-1.69,1.04-2.45,1.66
		c-2.06,1.67-3.73,3.8-4.84,6.25C112.82,98.91,112.28,101.3,112.28,103.81z"/>
	<path class="st0" d="M136.11,132.16c0.17-3.41,2.47-5.43,5.89-5.15c2.18,0.18,4.17,0.75,5.26,2.92c1.19-0.94,1.42-1.93,0.67-3.09
		c-0.38-0.58-0.93-1.06-1.39-1.59c-0.19-0.22-0.46-0.47-0.49-0.72c-0.22-2.1-1.56-3.23-3.31-4.09c-2.7-1.32-5.5-2.56-6.19-6.09
		c-0.99,0.95-1.26,2.03-0.98,3.13c0.26,1.02,0.82,1.96,1.36,3.19c-0.91-0.51-1.69-0.96-2.57-1.45c0.08,0.68,0.16,1.36,0.27,2.27
		c-0.93-0.39-1.75-0.73-2.73-1.14c0.13,0.6,0.27,1.24,0.41,1.91c-1.53,1.29-2.72,2.84-3.55,4.54c-2.48-2.33-4.42-5.15-5.12-9
		c-3.07,16.51,21.06,15.88,24.01,30.13C147.92,139.74,142.11,136.01,136.11,132.16z M143.55,122.93c-1.11,0.35-1.8,0.15-2.43-0.71
		C142.07,121.86,142.85,122.09,143.55,122.93z"/>
	<linearGradient id="SVGID_5_" gradientUnits="userSpaceOnUse" x1="198.4479" y1="167.7872" x2="97.3281" y2="196.8382">
		<stop  offset="5.586592e-03" style="stop-color:#BEBEBE"/>
		<stop  offset="0.0866" style="stop-color:#FFFFFF"/>
		<stop  offset="0.1592" style="stop-color:#BEBEBE"/>
		<stop  offset="0.2989" style="stop-color:#FFFFFF"/>
		<stop  offset="0.433" style="stop-color:#BEBEBE"/>
		<stop  offset="0.5" style="stop-color:#FDFDFD"/>
		<stop  offset="0.5782" style="stop-color:#BEBEBE"/>
		<stop  offset="0.6844" style="stop-color:#FFFFFF"/>
		<stop  offset="0.7877" style="stop-color:#BEBEBE"/>
		<stop  offset="0.9022" style="stop-color:#FFFFFF"/>
		<stop  offset="1" style="stop-color:#BEBEBE"/>
	</linearGradient>
	<path class="st5" d="M199.54,175.42c-6.52-0.12-21.14-5.83-51.57-5.83h-0.02c-30.43,0-45.05,5.71-51.57,5.83
		c-3.62,0.07-4.28-0.54-4.85-1.53l4.28,16.74c0.36,0.56,1.75,2.63,6.9,2.63c6.52,0,25.89-4.84,45.25-4.85
		c19.37,0.01,38.74,4.85,45.25,4.85c6.68,0,6.91-3.08,7.27-3.64l3.9-15.74C203.81,174.87,203.16,175.49,199.54,175.42z
		 M120.16,185.15l-0.74-9.9l2.78-0.21l0.57,7.62l4.51-0.34l0.17,2.27L120.16,185.15z M131.6,184.54c-0.82,0.04-1.5-0.59-1.54-1.43
		c-0.02-0.41,0.1-0.77,0.37-1.08c0.27-0.31,0.62-0.48,1.02-0.5c0.39-0.02,0.75,0.12,1.05,0.4c0.31,0.28,0.48,0.63,0.5,1.03
		C133.05,183.81,132.42,184.5,131.6,184.54z M136.27,184.17l-0.26-9.92l2.78-0.07l0.2,7.64l4.52-0.12l0.06,2.28L136.27,184.17z
		 M147.71,184.12c-0.82,0.01-1.48-0.64-1.49-1.48c-0.01-0.41,0.12-0.76,0.4-1.06c0.28-0.3,0.63-0.46,1.04-0.47
		c0.39-0.01,0.75,0.14,1.04,0.43c0.3,0.29,0.46,0.64,0.47,1.05C149.18,183.44,148.52,184.11,147.71,184.12z M159.8,176.57l-2.8-0.06
		l-0.16,7.57l-2.78-0.06l0.16-7.57l-2.81-0.06l0.05-2.35l8.39,0.18L159.8,176.57z M162.4,184.43c-0.81-0.04-1.44-0.72-1.4-1.57
		c0.02-0.41,0.17-0.75,0.47-1.04c0.3-0.28,0.66-0.42,1.07-0.41c0.39,0.02,0.74,0.19,1.01,0.5c0.29,0.31,0.42,0.67,0.4,1.07
		C163.91,183.83,163.22,184.46,162.4,184.43z M170.23,181.57c0.4,0.49,0.91,0.75,1.54,0.8c0.77,0.05,1.41-0.28,1.91-1l2,1.94
		c-1.04,1.11-2.52,1.73-4.09,1.62c-1.4-0.1-2.57-0.67-3.49-1.74c-0.92-1.07-1.34-2.29-1.24-3.7c0.1-1.4,0.68-2.56,1.74-3.49
		s2.3-1.35,3.7-1.25c1.57,0.11,2.95,0.94,3.83,2.18l-2.25,1.65c-0.4-0.78-0.98-1.2-1.75-1.25c-0.64-0.04-1.18,0.14-1.63,0.56
		c-0.45,0.42-0.71,1.02-0.76,1.8C169.67,180.45,169.84,181.07,170.23,181.57z"/>
	<path class="st0" d="M198.95,176.81c-6.52-0.12-20.56-5.7-50.99-5.7h-0.02c-30.43,0-45.05,5.71-51.57,5.83
		c-3.62,0.07-4.45-1.36-4.85-3.05l3.85,16.08c0.64,1.78,4.36,2.38,7.98,2.31c6.52-0.12,25.24-5.37,44.6-5.38
		c19.36,0.01,38.73,4.72,45.25,4.84c3.62,0.07,6.73,0.03,7.52-2.14l3.66-15.72C204.06,175.27,202.57,176.88,198.95,176.81z
		 M120.16,185.15l-0.74-9.9l2.78-0.21l0.57,7.62l4.51-0.34l0.17,2.27L120.16,185.15z M131.6,184.54c-0.82,0.04-1.5-0.59-1.54-1.43
		c-0.02-0.41,0.1-0.77,0.37-1.08c0.27-0.31,0.62-0.48,1.02-0.5c0.39-0.02,0.75,0.12,1.05,0.4c0.31,0.28,0.48,0.63,0.5,1.03
		C133.05,183.81,132.42,184.5,131.6,184.54z M136.27,184.17l-0.26-9.92l2.78-0.07l0.2,7.64l4.52-0.12l0.06,2.28L136.27,184.17z
		 M147.71,184.12c-0.82,0.01-1.48-0.64-1.49-1.48c-0.01-0.41,0.12-0.76,0.4-1.06c0.28-0.3,0.63-0.46,1.04-0.47
		c0.39-0.01,0.75,0.14,1.04,0.43c0.3,0.29,0.46,0.64,0.47,1.05C149.18,183.44,148.52,184.11,147.71,184.12z M159.8,176.57l-2.8-0.06
		l-0.16,7.57l-2.78-0.06l0.16-7.57l-2.81-0.06l0.05-2.35l8.39,0.18L159.8,176.57z M162.4,184.43c-0.81-0.04-1.44-0.72-1.4-1.57
		c0.02-0.41,0.17-0.75,0.47-1.04c0.3-0.28,0.66-0.42,1.07-0.41c0.39,0.02,0.74,0.19,1.01,0.5c0.29,0.31,0.42,0.67,0.4,1.07
		C163.91,183.83,163.22,184.46,162.4,184.43z M170.23,181.57c0.4,0.49,0.91,0.75,1.54,0.8c0.77,0.05,1.41-0.28,1.91-1l2,1.94
		c-1.04,1.11-2.52,1.73-4.09,1.62c-1.4-0.1-2.57-0.67-3.49-1.74c-0.92-1.07-1.34-2.29-1.24-3.7c0.1-1.4,0.68-2.56,1.74-3.49
		s2.3-1.35,3.7-1.25c1.57,0.11,2.95,0.94,3.83,2.18l-2.25,1.65c-0.4-0.78-0.98-1.2-1.75-1.25c-0.64-0.04-1.18,0.14-1.63,0.56
		c-0.45,0.42-0.71,1.02-0.76,1.8C169.67,180.45,169.84,181.07,170.23,181.57z"/>
	<g>
		<path class="st0" d="M147.67,256.99c-64.88,0-117.66-52.78-117.66-117.66c0-64.88,52.78-117.66,117.66-117.66
			c64.88,0,117.66,52.78,117.66,117.66C265.33,204.21,212.55,256.99,147.67,256.99z M147.67,23.67
			c-63.78,0-115.66,51.89-115.66,115.66c0,63.78,51.89,115.66,115.66,115.66c63.78,0,115.66-51.89,115.66-115.66
			C263.33,75.56,211.44,23.67,147.67,23.67z"/>
		<path class="st0" d="M147.67,226.8c-48.23,0-87.47-39.24-87.47-87.47c0-48.23,39.24-87.47,87.47-87.47
			c48.23,0,87.47,39.24,87.47,87.47C235.13,187.56,195.9,226.8,147.67,226.8z M147.67,53.87c-47.13,0-85.47,38.34-85.47,85.47
			s38.34,85.47,85.47,85.47s85.47-38.34,85.47-85.47S194.79,53.87,147.67,53.87z"/>
		<polygon class="st0" points="247.53,149.43 249.08,154.18 254.07,154.18 250.03,157.12 251.58,161.87 247.53,158.93 
			243.49,161.87 245.04,157.12 240.99,154.18 245.99,154.18 		"/>
		<polygon class="st0" points="47.93,149.43 49.47,154.18 54.47,154.18 50.43,157.12 51.97,161.87 47.93,158.93 43.88,161.87 
			45.43,157.12 41.39,154.18 46.38,154.18 		"/>
		<g>
			<path class="st0" d="M53.28,119.57l4.18,0.56l-1.8,13.38l-18.17-2.44l0.69-5.1l13.99,1.88L53.28,119.57z"/>
			<path class="st0" d="M48.03,97.88c2.34-1.14,4.74-1.28,7.19-0.42s4.25,2.45,5.38,4.8c1.13,2.34,1.26,4.75,0.4,7.24
				c-0.86,2.47-2.46,4.27-4.8,5.41c-2.34,1.14-4.74,1.29-7.2,0.43c-2.46-0.85-4.25-2.46-5.37-4.81s-1.26-4.76-0.41-7.23
				C44.09,100.83,45.69,99.02,48.03,97.88z M56.23,104.66c-0.59-1.08-1.5-1.84-2.72-2.26c-1.21-0.42-2.39-0.39-3.53,0.09
				c-1.14,0.48-1.9,1.27-2.29,2.38c-0.38,1.09-0.27,2.18,0.32,3.26s1.5,1.84,2.71,2.26c1.23,0.43,2.41,0.4,3.54-0.08
				c1.13-0.48,1.89-1.27,2.27-2.36C56.92,106.83,56.81,105.74,56.23,104.66z"/>
			<path class="st0" d="M59.15,73.2l15.46,9.85l-1.3,2.03l-12.58,2.85l7.65,4.88l-2.77,4.34L50.16,87.3l1.3-2.03l12.58-2.85
				l-7.65-4.88L59.15,73.2z"/>
			<path class="st0" d="M85.63,67.68c0.12,2.44-0.64,4.47-2.27,6.08l-6.05,5.98L64.43,66.71l5.64-5.58
				c1.75-1.73,3.87-2.57,6.37-2.52c2.5,0.05,4.64,0.98,6.42,2.78C84.59,63.14,85.51,65.24,85.63,67.68z M79.79,70.79
				c0.71-0.75,1.02-1.7,0.91-2.83c-0.11-1.13-0.59-2.13-1.44-3c-0.88-0.89-1.9-1.38-3.06-1.49c-1.16-0.11-2.12,0.21-2.87,0.95
				l-2.09,2.07l6.38,6.45L79.79,70.79z"/>
			<path class="st0" d="M97.19,43.98c2.53,0.6,4.48,2.01,5.84,4.23c1.36,2.22,1.74,4.59,1.13,7.12c-0.61,2.53-2.03,4.48-4.27,5.86
				c-2.22,1.37-4.61,1.75-7.14,1.15c-2.54-0.6-4.49-2-5.85-4.22c-1.36-2.22-1.73-4.59-1.12-7.12c0.61-2.53,2.03-4.48,4.26-5.85
				C92.27,43.76,94.66,43.37,97.19,43.98z M99.25,54.41c0.23-1.21,0-2.37-0.68-3.48c-0.67-1.09-1.6-1.81-2.79-2.16
				c-1.19-0.35-2.28-0.22-3.28,0.4c-0.98,0.6-1.59,1.51-1.81,2.73c-0.23,1.22,0,2.37,0.67,3.46c0.68,1.11,1.61,1.83,2.79,2.17
				c1.18,0.34,2.27,0.21,3.25-0.39C98.41,56.53,99.02,55.62,99.25,54.41z"/>
			<path class="st0" d="M121.42,31.91l5.72,17.42l-2.29,0.75l-11.54-5.76l2.83,8.62l-4.89,1.6l-5.72-17.42l2.29-0.75l11.54,5.76
				l-2.83-8.62L121.42,31.91z"/>
			<path class="st0" d="M154.69,43l0.07,4.21l-13.5,0.22l-0.3-18.33l5.15-0.08l0.23,14.12L154.69,43z"/>
			<path class="st0" d="M173.06,45.95l-0.79,4.27l-14.15-2.61l3.32-18.03l13.63,2.51l-0.79,4.27l-8.72-1.6l-0.54,2.94l7.18,1.32
				l-0.76,4.14l-7.18-1.32l-0.44,2.4L173.06,45.95z"/>
			<path class="st0" d="M187.9,53.03l-6.09-2.55l-2.27,2.24l-4.95-2.08L189.7,37.1l2.22,0.93l0.98,20.29l-4.98-2.09L187.9,53.03z
				 M185.11,47.3l2.78,1.16l0.01-3.92L185.11,47.3z"/>
			<path class="st0" d="M203.69,61.12c-0.02-0.03-0.05-0.07-0.11-0.11l-1.78-1.26l-2.27,3.2l-4.2-2.98l10.61-14.94l6.85,4.87
				c1.08,0.77,1.91,1.59,2.49,2.47c0.58,0.88,0.91,1.76,0.97,2.62c0.06,0.86-0.03,1.7-0.29,2.51s-0.66,1.6-1.21,2.38
				c-1.81,2.54-3.92,3.66-6.36,3.36l0.25,6.2l-4.99-3.54L203.69,61.12z M204.21,56.35l1.6,1.13c0.96,0.68,1.8,0.94,2.53,0.79
				c0.73-0.15,1.33-0.56,1.81-1.22c0.5-0.71,0.74-1.43,0.7-2.16c-0.03-0.73-0.46-1.39-1.28-1.97l-1.94-1.38L204.21,56.35z"/>
			<path class="st0" d="M235.75,71.59L222.17,83.9l-1.62-1.79l0.57-12.88l-6.73,6.09l-3.46-3.81l13.59-12.31l1.62,1.79l-0.57,12.88
				l6.73-6.09L235.75,71.59z"/>
			<path class="st0" d="M227.35,92.19l-2.77-4.34l15.44-9.88l2.77,4.34L227.35,92.19z"/>
			<path class="st0" d="M253.32,104.29l-16.88,7.14l-0.94-2.22l4.79-11.97l-8.36,3.54l-2-4.74l16.88-7.14l0.94,2.22l-4.79,11.97
				l8.36-3.54L253.32,104.29z"/>
			<path class="st0" d="M249.9,130.27l-6.96,1.23c-2.15-1.8-3.48-4.18-4.01-7.14c-0.45-2.57,0.06-4.93,1.55-7.07
				c1.49-2.14,3.51-3.44,6.07-3.89s4.91,0.07,7.04,1.58s3.42,3.54,3.88,6.11c0.5,2.85,0.04,5.34-1.38,7.46l-4.01-2.53
				c0.76-1.15,1.01-2.52,0.73-4.1c-0.2-1.15-0.83-2.06-1.88-2.71c-1.05-0.66-2.21-0.87-3.47-0.65c-1.38,0.24-2.47,0.86-3.27,1.84
				s-1.09,2.05-0.89,3.2c0.16,0.89,0.56,1.69,1.22,2.41l0.33-0.06l-0.51-2.89l4.15-0.73L249.9,130.27z"/>
		</g>
		<g>
			<path class="st0" d="M59.82,180.14l-2.22-4.63l1.7-0.82l5.42,11.31l-1.7,0.81l-2.22-4.62l-10.67,5.12l-0.99-2.05L59.82,180.14z"
				/>
			<path class="st0" d="M61.59,195.84l-4.72,3.32l-1.3-1.84l11.23-7.9l3.9,5.54c1.67,2.37,1.63,4.68-0.35,6.07
				c-1.38,0.97-2.82,0.91-4.1-0.15c0.27,0.81,0.49,2.25-1.49,3.64l-0.51,0.36c-0.84,0.59-1.77,1.23-2.16,1.72l-1.34-1.9
				c0.37-0.52,1.19-1.07,2.19-1.78l0.37-0.26c1.53-1.08,1.63-2.03,0.3-3.92L61.59,195.84z M63.07,194.8l2.29,3.25
				c1.16,1.65,2.3,2.03,3.54,1.16c1.14-0.8,1.17-2.02,0.05-3.61l-2.32-3.3L63.07,194.8z"/>
			<path class="st0" d="M71.46,211.29l-3.92,1.62l-1.67-1.66l13.79-5.64l1.99,1.98l-5.37,14.01l-1.75-1.74l1.54-3.98L71.46,211.29z
				 M76.91,214.04c1.44-3.69,2.14-5.46,2.59-6.37l-0.01-0.01c-0.86,0.46-3.1,1.45-6.22,2.76L76.91,214.04z"/>
			<path class="st0" d="M91.1,215.6l-8.31,10.92l-1.81-1.37l8.31-10.92L91.1,215.6z"/>
			<path class="st0" d="M89.02,231.04l6.72-11.96l2.36,1.33c0.56,5.68,1.45,11.69,1.43,13.36l0.03,0.02
				c0.73-1.54,1.85-3.51,2.95-5.46l2.32-4.13l1.84,1.03l-6.72,11.96l-2.22-1.25c-0.36-3.16-1.29-12.01-1.33-13.86l-0.03-0.02
				c-0.76,1.58-1.72,3.27-2.91,5.39l-2.6,4.62L89.02,231.04z"/>
			<path class="st0" d="M114.16,228.21l-5.01,12.78l-2.11-0.83l5.01-12.78L114.16,228.21z"/>
			<path class="st0" d="M116.39,243.62l3.17-13.35l2.63,0.62c2.1,5.3,4.62,10.84,5.06,12.45l0.04,0.01
				c0.27-1.69,0.81-3.88,1.33-6.06l1.09-4.62l2.05,0.49l-3.17,13.35l-2.48-0.59c-1.22-2.93-4.55-11.19-5.1-12.95l-0.04-0.01
				c-0.3,1.72-0.75,3.62-1.31,5.98l-1.22,5.16L116.39,243.62z"/>
			<path class="st0" d="M149.59,248.18l-1.71-0.07c-0.05-0.33-0.1-1.31-0.09-1.89c-0.96,1.33-2.34,2.08-5,1.96
				c-4.36-0.18-6.84-3.19-6.67-7.39c0.17-4.03,3.02-7.08,7.67-6.89c4.18,0.18,5.87,2.41,6.26,4.45l-2.32-0.1
				c-0.42-1.16-1.46-2.43-4.03-2.54c-3.28-0.14-5.05,2.11-5.18,5.05c-0.13,3.1,1.47,5.47,4.7,5.6c2.73,0.12,4.28-1.22,4.38-3.67
				l0.02-0.36l-4.18-0.18l0.08-1.85l6.38,0.27L149.59,248.18z"/>
			<path class="st0" d="M177.59,239.79c-0.21,2.48-1.48,4.84-5.39,5.72c-4.53,1.03-7.63-1.59-8.49-5.38
				c-0.86-3.79,1.06-7.6,5.44-8.59c3.92-0.89,6.27,0.81,7.26,2.91l-2.26,0.51c-0.79-1.14-2.07-2.19-4.62-1.61
				c-2.94,0.67-4.17,3.24-3.5,6.17c0.66,2.9,2.88,4.85,5.87,4.17c2.37-0.54,3.11-1.76,3.46-3.4L177.59,239.79z"/>
			<path class="st0" d="M192.04,231.83l-7.47,3.12l1.68,4.03l8.26-3.44l0.46,1.85l-10.08,4.21l-5.29-12.66l9.96-4.15l0.72,1.74
				l-7.86,3.28l1.43,3.42l7.47-3.12L192.04,231.83z"/>
			<path class="st0" d="M201.33,234.06l-7.45-11.53l2.27-1.47c5.29,2.15,11.03,4.16,12.49,4.96l0.03-0.02
				c-1.03-1.36-2.24-3.27-3.46-5.15l-2.58-3.98l1.77-1.14l7.45,11.53l-2.14,1.39c-2.96-1.15-11.23-4.46-12.88-5.28l-0.03,0.02
				c1.04,1.41,2.09,3.05,3.42,5.09l2.88,4.45L201.33,234.06z"/>
			<path class="st0" d="M212.58,211.19l-3.77,3.49l-1.28-1.38l9.21-8.52l1.28,1.38l-3.76,3.48l8.04,8.69l-1.67,1.55L212.58,211.19z"
				/>
			<path class="st0" d="M227.07,204.87l4.55,3.53l-1.38,1.78l-10.84-8.41l4.15-5.35c1.77-2.29,3.99-2.93,5.9-1.45
				c1.33,1.03,1.7,2.42,1.06,3.96c0.7-0.5,2.01-1.13,3.92,0.36l0.49,0.38c0.81,0.63,1.7,1.33,2.27,1.56l-1.42,1.84
				c-0.6-0.2-1.37-0.82-2.34-1.57l-0.36-0.28c-1.48-1.15-2.41-0.96-3.83,0.86L227.07,204.87z M225.64,203.76l2.43-3.13
				c1.24-1.59,1.27-2.79,0.07-3.73c-1.11-0.86-2.27-0.53-3.46,1.01l-2.47,3.18L225.64,203.76z"/>
			<path class="st0" d="M240.58,182.81l-3.82,7.14l3.85,2.06l4.22-7.89l1.52,1.14l-5.15,9.63l-12.1-6.47l5.09-9.52l1.66,0.89
				l-4.02,7.52l3.27,1.75l3.82-7.14L240.58,182.81z"/>
		</g>
	</g>
	<path class="st6" d="M186.81,75.44"/>
</g>
</svg>
