<?xml version="1.0"?>
<svg xmlns="http://www.w3.org/2000/svg" xmlns:xlink="http://www.w3.org/1999/xlink" xmlns:svgjs="http://svgjs.com/svgjs" version="1.1" width="512" height="512" x="0" y="0" viewBox="0 0 90 90" style="enable-background:new 0 0 512 512" xml:space="preserve" class=""><g><path xmlns="http://www.w3.org/2000/svg" d="m36.332 42.241h-22.71a1.624 1.624 0 0 1 -1.622-1.622v-5.835a7.23 7.23 0 0 1 7.219-7.225h1.6a1 1 0 0 1 .776.369l3.385 4.162 3.385-4.162a1 1 0 0 1 .776-.369h1.6a7.231 7.231 0 0 1 7.22 7.225v5.835a1.624 1.624 0 0 1 -1.629 1.622zm-22.332-2h21.954v-5.457a5.228 5.228 0 0 0 -5.22-5.225h-1.121l-3.86 4.747a1.036 1.036 0 0 1 -1.552 0l-3.861-4.747h-1.121a5.227 5.227 0 0 0 -5.219 5.225z" fill="#a41034" data-original="#000000" style="" class=""/><path xmlns="http://www.w3.org/2000/svg" d="m24.978 26.187a7 7 0 0 1 -6.874-7.1 6.877 6.877 0 1 1 13.747 0 7 7 0 0 1 -6.873 7.1zm0-12.187a4.991 4.991 0 0 0 -4.878 5.09 4.878 4.878 0 1 0 9.747 0 4.99 4.99 0 0 0 -4.869-5.09z" fill="#a41034" data-original="#000000" style="" class=""/><path xmlns="http://www.w3.org/2000/svg" d="m76.378 42.241h-22.71a1.624 1.624 0 0 1 -1.622-1.622v-5.835a7.231 7.231 0 0 1 7.22-7.225h1.6a1 1 0 0 1 .776.369l3.385 4.162 3.385-4.162a1 1 0 0 1 .776-.369h1.6a7.23 7.23 0 0 1 7.212 7.225v5.835a1.624 1.624 0 0 1 -1.622 1.622zm-22.332-2h21.954v-5.457a5.227 5.227 0 0 0 -5.219-5.225h-1.121l-3.86 4.747a1 1 0 0 1 -.776.369 1 1 0 0 1 -.776-.369l-3.86-4.747h-1.122a5.228 5.228 0 0 0 -5.22 5.225z" fill="#a41034" data-original="#000000" style="" class=""/><path xmlns="http://www.w3.org/2000/svg" d="m65.024 26.187a7 7 0 0 1 -6.874-7.1 6.877 6.877 0 1 1 13.747 0 7 7 0 0 1 -6.873 7.1zm0-12.187a4.991 4.991 0 0 0 -4.874 5.09 4.878 4.878 0 1 0 9.747 0 4.99 4.99 0 0 0 -4.873-5.09z" fill="#a41034" data-original="#000000" style="" class=""/><path xmlns="http://www.w3.org/2000/svg" d="m56.355 78h-22.71a1.624 1.624 0 0 1 -1.622-1.622v-5.834a7.231 7.231 0 0 1 7.219-7.226h1.6a1 1 0 0 1 .776.37l3.382 4.162 3.385-4.162a1 1 0 0 1 .776-.37h1.6a7.231 7.231 0 0 1 7.219 7.226v5.834a1.624 1.624 0 0 1 -1.625 1.622zm-22.332-2h21.954v-5.456a5.228 5.228 0 0 0 -5.219-5.226h-1.121l-3.861 4.747a1.035 1.035 0 0 1 -1.552 0l-3.861-4.747h-1.121a5.228 5.228 0 0 0 -5.219 5.226z" fill="#a41034" data-original="#000000" style="" class=""/><path xmlns="http://www.w3.org/2000/svg" d="m45 61.945a7.1 7.1 0 1 1 6.874-7.095 6.995 6.995 0 0 1 -6.874 7.095zm0-12.186a5.1 5.1 0 1 0 4.874 5.091 4.991 4.991 0 0 0 -4.874-5.091z" fill="#a41034" data-original="#000000" style="" class=""/><path xmlns="http://www.w3.org/2000/svg" d="m31.816 62.651a.994.994 0 0 1 -.685-.271 22.436 22.436 0 0 1 -6.951-16.32c0-.371.008-.74.026-1.106a1.014 1.014 0 0 1 1.046-.954 1 1 0 0 1 .952 1.046c-.016.335-.024.673-.024 1.012a20.43 20.43 0 0 0 6.32 14.865 1 1 0 0 1 -.685 1.728z" fill="#a41034" data-original="#000000" style="" class=""/><path xmlns="http://www.w3.org/2000/svg" d="m58.474 62.364a1 1 0 0 1 -.7-1.715 20.474 20.474 0 0 0 6.036-14.589 1 1 0 0 1 2 0 22.485 22.485 0 0 1 -6.637 16.019.994.994 0 0 1 -.699.285z" fill="#a41034" data-original="#000000" style="" class=""/><path xmlns="http://www.w3.org/2000/svg" d="m52.05 27.551a1.016 1.016 0 0 1 -.372-.072 18.044 18.044 0 0 0 -13.355 0 1 1 0 1 1 -.746-1.856 20.056 20.056 0 0 1 14.846 0 1 1 0 0 1 -.373 1.928z" fill="#a41034" data-original="#000000" style="" class=""/></g></svg>
